<svg width="184" height="176" viewBox="0 0 184 176" fill="none" xmlns="http://www.w3.org/2000/svg">
<g filter="url(#filter0_f_12118_2386)">
<ellipse cx="92.0487" cy="140.055" rx="69.3839" ry="13.7502" fill="#1F88F8" fill-opacity="0.35"/>
</g>
<path d="M94.617 156.853C134.355 156.853 166.569 123.76 166.569 82.9377C166.569 42.1156 134.355 9.02271 94.617 9.02271C54.8789 9.02271 22.6648 42.1156 22.6648 82.9377C22.6648 123.76 54.8789 156.853 94.617 156.853Z" fill="url(#paint0_linear_12118_2386)"/>
<path d="M144.278 38.9023H64.8867C61.573 38.9023 58.8867 41.5886 58.8867 44.9023V85.2335H150.278V44.9023C150.278 41.5886 147.592 38.9023 144.278 38.9023Z" fill="url(#paint1_linear_12118_2386)"/>
<path d="M150.278 46.6741H66.5615V85.2297H150.278V46.6741Z" fill="url(#paint2_linear_12118_2386)"/>
<path d="M144.279 38.9023H142.476V85.2335H150.279V44.9023C150.279 41.5886 147.593 38.9023 144.279 38.9023Z" fill="url(#paint3_linear_12118_2386)"/>
<path d="M78.7338 84.9919L70.9927 84.9919L70.9927 145.551L78.7338 145.551L78.7338 84.9919Z" fill="url(#paint4_linear_12118_2386)"/>
<path d="M65.011 85.3303V85.4176V88.1732V108.248H85.9828C86.507 108.248 86.932 107.823 86.932 107.298V88.1732V86.2796C86.932 85.7553 86.507 85.3303 85.9828 85.3303H65.011Z" fill="url(#paint5_linear_12118_2386)"/>
<path d="M64.0745 85.3303C63.5502 85.3303 63.1252 85.7553 63.1252 86.2796V107.298C63.1252 107.823 63.5502 108.248 64.0745 108.248H85.0463V85.3303H64.0745Z" fill="url(#paint6_linear_12118_2386)"/>
<path d="M94.5006 44.1917H78.6189C78.2698 44.1917 77.9868 44.4824 77.9868 44.841V45.2284C77.9868 45.587 78.2698 45.8777 78.6189 45.8777H94.5006C94.8497 45.8777 95.1327 45.587 95.1327 45.2284V44.841C95.1327 44.4824 94.8497 44.1917 94.5006 44.1917Z" fill="#A5C4F1"/>
<g filter="url(#filter1_f_12118_2386)">
<ellipse cx="47.492" cy="55.2607" rx="22.9459" ry="7.57665" fill="#FF4C77" fill-opacity="0.3"/>
</g>
<path d="M143.176 29.7074C143.176 31.189 142.016 32.3297 140.658 32.3297C139.3 32.3297 138.14 31.189 138.14 29.7074C138.14 28.2258 139.3 27.0852 140.658 27.0852C142.016 27.0852 143.176 28.2258 143.176 29.7074Z" stroke="url(#paint7_linear_12118_2386)" stroke-width="2.61276"/>
<path d="M125.611 152.788C125.611 154.27 124.451 155.411 123.093 155.411C121.736 155.411 120.575 154.27 120.575 152.788C120.575 151.307 121.736 150.166 123.093 150.166C124.451 150.166 125.611 151.307 125.611 152.788Z" stroke="url(#paint8_linear_12118_2386)" stroke-width="2.61276"/>
<path d="M20.9986 113.098C22.3029 112.883 23.339 114.193 22.8678 115.461L21.6154 118.83C21.1422 120.102 19.5053 120.378 18.6723 119.325L16.4584 116.526C15.6254 115.473 16.2227 113.883 17.5323 113.668L20.9986 113.098Z" fill="url(#paint9_linear_12118_2386)"/>
<path d="M160.924 109.348C160.597 108.031 161.782 106.844 163.055 107.211L166.435 108.187C167.708 108.555 168.115 110.2 167.169 111.149L164.656 113.668C163.71 114.617 162.118 114.159 161.792 112.842L160.924 109.348Z" fill="url(#paint10_linear_12118_2386)"/>
<path d="M87.0625 8.65922C87.5676 6.50981 90.627 6.5098 91.1321 8.65922L91.3548 9.60714C91.5342 10.3704 92.1255 10.9691 92.8865 11.1578L94.028 11.4408C96.1442 11.9656 96.1442 14.9736 94.028 15.4984L92.8865 15.7814C92.1255 15.9701 91.5342 16.5688 91.3548 17.332L91.1321 18.28C90.627 20.4294 87.5676 20.4294 87.0625 18.28L86.8397 17.332C86.6604 16.5688 86.069 15.9701 85.3081 15.7814L84.1665 15.4984C82.0504 14.9736 82.0504 11.9656 84.1665 11.4408L85.3081 11.1578C86.069 10.9691 86.6604 10.3704 86.8397 9.60714L87.0625 8.65922Z" fill="url(#paint11_linear_12118_2386)"/>
<path d="M53.8149 151.717C54.32 149.568 57.3794 149.568 57.8845 151.717L58.1072 152.665C58.2866 153.428 58.878 154.027 59.6389 154.216L60.7805 154.499C62.8966 155.023 62.8966 158.031 60.7805 158.556L59.6389 158.839C58.878 159.028 58.2866 159.627 58.1072 160.39L57.8845 161.338C57.3794 163.487 54.32 163.487 53.8149 161.338L53.5922 160.39C53.4128 159.627 52.8215 159.028 52.0605 158.839L50.919 158.556C48.8028 158.031 48.8028 155.023 50.919 154.499L52.0605 154.216C52.8215 154.027 53.4128 153.428 53.5922 152.665L53.8149 151.717Z" fill="url(#paint12_linear_12118_2386)"/>
<circle cx="41" cy="52.0001" r="14" transform="rotate(-19.8538 41 52.0001)" fill="url(#paint13_linear_12118_2386)"/>
<path fill-rule="evenodd" clip-rule="evenodd" d="M34.7534 47.7314L41.407 51.7178L39.025 52.3554L41.4703 59.1646L39.0883 59.8022L34.7534 47.7314ZM48.0446 57.4048L41.3911 53.4184L43.7731 52.7808L41.3277 45.9716L43.7097 45.334L48.0446 57.4048Z" fill="#1C203B"/>
<circle cx="127.627" cy="78.6275" r="9" transform="rotate(20.9996 127.627 78.6275)" fill="url(#paint14_linear_12118_2386)"/>
<path fill-rule="evenodd" clip-rule="evenodd" d="M126.385 73.9252L127.944 78.6615L126.518 77.9699L124.843 82.3091L123.417 81.6175L126.385 73.9252ZM128.78 84.218L127.221 79.4817L128.648 80.1733L130.322 75.834L131.748 76.5257L128.78 84.218Z" fill="#1C203B"/>
<path d="M124.384 40.5657C124.384 41.424 124.259 42.2775 124.013 43.0976C123.613 44.4125 122.908 45.6075 121.957 46.5788C121.678 46.869 121.378 47.1372 121.059 47.3809C120.85 47.5485 120.63 47.7017 120.401 47.8393C120.172 47.9831 119.936 48.1143 119.694 48.2321C119.333 48.4153 118.958 48.5685 118.573 48.6905C117.775 48.9436 116.944 49.0723 116.109 49.0724H114.568V90.078H71.5444V39.6763C71.5514 37.6598 72.3343 35.7278 73.7224 34.3019C75.1105 32.876 76.9911 32.0717 78.9541 32.0645H116.088C117.122 32.0604 118.148 32.2586 119.11 32.6484C119.377 32.7547 119.637 32.8767 119.891 33.0139C120.018 33.0794 120.14 33.1504 120.263 33.2268C120.363 33.2834 120.46 33.3453 120.555 33.4123C121.057 33.7383 121.522 34.1208 121.941 34.5527C122.504 35.1324 122.984 35.7921 123.364 36.5116C123.622 36.9964 123.832 37.5064 123.991 38.0339L124.103 38.4432C124.171 38.7166 124.226 38.9934 124.267 39.2726C124.339 39.6999 124.378 40.1322 124.384 40.5657Z" fill="url(#paint15_linear_12118_2386)"/>
<path d="M96.2647 76.1504H78.5244C78.2275 76.1504 77.9868 76.5278 77.9868 76.9934C77.9868 77.459 78.2275 77.8364 78.5244 77.8364H96.2647C96.5616 77.8364 96.8023 77.459 96.8023 76.9934C96.8023 76.5278 96.5616 76.1504 96.2647 76.1504Z" fill="#A5C4F1"/>
<path d="M105.979 71.5029H78.8101C78.3554 71.5029 77.9868 71.8804 77.9868 72.346C77.9868 72.8116 78.3554 73.189 78.8101 73.189H105.979C106.434 73.189 106.802 72.8116 106.802 72.346C106.802 71.8804 106.434 71.5029 105.979 71.5029Z" fill="#A5C4F1"/>
<path fill-rule="evenodd" clip-rule="evenodd" d="M100 48H84C83.4477 48 83 48.4477 83 49V65C83 65.3272 83.1571 65.6177 83.4 65.8001L96 56.0001L101 61.0001V49C101 48.4477 100.552 48 100 48ZM101.5 66.3229C101.811 65.9703 102 65.5072 102 65V49C102 47.8954 101.105 47 100 47H84C82.8954 47 82 47.8954 82 49V65C82 65.5578 82.2283 66.0622 82.5966 66.425L82.5 66.5001H82.6772C83.0297 66.8112 83.4928 67 84 67H100C100.507 67 100.97 66.8112 101.323 66.5001H101.5V66.3229ZM91 53C91 54.6569 89.6569 56 88 56C86.3432 56 85 54.6569 85 53C85 51.3432 86.3432 50 88 50C89.6569 50 91 51.3432 91 53Z" fill="url(#paint16_linear_12118_2386)"/>
<path fill-rule="evenodd" clip-rule="evenodd" d="M34.0558 84.9919H37.3824L37.3824 145.551H34.0558C31.4345 145.551 29.3096 143.426 29.3096 140.805L29.3096 89.7382C29.3096 87.1169 31.4346 84.9919 34.0558 84.9919ZM116.248 92.9443V84.9921H37.3825V92.9443H116.248ZM116.248 145.552V137.6H37.3825V145.552H116.248Z" fill="url(#paint17_linear_12118_2386)"/>
<rect x="37.0508" y="92.9458" width="33.9417" height="44.6549" fill="url(#paint18_linear_12118_2386)"/>
<rect x="78.7332" y="92.9458" width="33.9417" height="44.6549" fill="url(#paint19_linear_12118_2386)"/>
<circle cx="74" cy="97" r="16" fill="url(#paint20_linear_12118_2386)"/>
<path d="M76.2953 97.9998L80.0791 93.7956C80.4336 93.3797 80.6278 92.827 80.6205 92.2548C80.6132 91.6827 80.4049 91.1362 80.0399 90.7316C79.675 90.327 79.1821 90.0961 78.666 90.088C78.1499 90.0799 77.6513 90.2952 77.2761 90.6882L73.4838 94.8924L69.6999 90.6882C69.5178 90.4746 69.299 90.3036 69.0562 90.1854C68.8135 90.0672 68.5519 90.0041 68.2868 90C68.0217 89.9958 67.7585 90.0506 67.5129 90.1612C67.2673 90.2717 67.0441 90.4358 66.8566 90.6436C66.6692 90.8514 66.5212 91.0988 66.4215 91.3711C66.3218 91.6434 66.2723 91.9352 66.2761 92.229C66.2798 92.5229 66.3367 92.813 66.4433 93.0821C66.55 93.3511 66.7042 93.5938 66.8969 93.7956L70.6871 97.9998L66.8969 102.204C66.7042 102.406 66.55 102.648 66.4433 102.917C66.3367 103.187 66.2798 103.477 66.2761 103.77C66.2723 104.064 66.3218 104.356 66.4215 104.628C66.5212 104.901 66.6692 105.148 66.8566 105.356C67.0441 105.564 67.2673 105.728 67.5129 105.838C67.7585 105.949 68.0217 106.004 68.2868 106C68.5519 105.995 68.8135 105.932 69.0562 105.814C69.299 105.696 69.5178 105.525 69.6999 105.311L73.4922 101.107L77.2845 105.311C77.6633 105.681 78.1549 105.877 78.6594 105.859C79.1638 105.841 79.643 105.61 79.9993 105.214C80.3556 104.818 80.5623 104.286 80.5771 103.726C80.5919 103.167 80.4138 102.623 80.0791 102.204L76.2953 97.9998Z" fill="white"/>
<rect x="120.417" y="92.9458" width="22.0323" height="44.6549" fill="url(#paint21_linear_12118_2386)"/>
<path fill-rule="evenodd" clip-rule="evenodd" d="M120.416 84.9919H112.675L112.675 145.551H120.415V145.552H142.448L142.448 145.551H145.443C148.064 145.551 150.189 143.426 150.189 140.805L150.189 84.9921L142.448 84.9921H120.416V84.9919ZM142.448 92.9443H120.416L120.416 137.6H142.448V92.9443Z" fill="url(#paint22_linear_12118_2386)"/>
<defs>
<filter id="filter0_f_12118_2386" x="0.8918" y="104.532" width="182.314" height="71.0465" filterUnits="userSpaceOnUse" color-interpolation-filters="sRGB">
<feFlood flood-opacity="0" result="BackgroundImageFix"/>
<feBlend mode="normal" in="SourceGraphic" in2="BackgroundImageFix" result="shape"/>
<feGaussianBlur stdDeviation="10.8865" result="effect1_foregroundBlur_12118_2386"/>
</filter>
<filter id="filter1_f_12118_2386" x="2.77315" y="25.9111" width="89.4378" height="58.6993" filterUnits="userSpaceOnUse" color-interpolation-filters="sRGB">
<feFlood flood-opacity="0" result="BackgroundImageFix"/>
<feBlend mode="normal" in="SourceGraphic" in2="BackgroundImageFix" result="shape"/>
<feGaussianBlur stdDeviation="10.8865" result="effect1_foregroundBlur_12118_2386"/>
</filter>
<linearGradient id="paint0_linear_12118_2386" x1="94.0624" y1="-15.0458" x2="95.6178" y2="244.532" gradientUnits="userSpaceOnUse">
<stop stop-color="#CAE0FF" stop-opacity="0"/>
<stop offset="1" stop-color="#BCD8FF"/>
</linearGradient>
<linearGradient id="paint1_linear_12118_2386" x1="104.583" y1="38.9023" x2="104.583" y2="85.2335" gradientUnits="userSpaceOnUse">
<stop stop-color="#ABCCFF"/>
<stop offset="1" stop-color="#70A8FF"/>
</linearGradient>
<linearGradient id="paint2_linear_12118_2386" x1="108.42" y1="46.6741" x2="108.42" y2="85.2297" gradientUnits="userSpaceOnUse">
<stop stop-color="#3B81EF"/>
<stop offset="1" stop-color="#6095E7"/>
</linearGradient>
<linearGradient id="paint3_linear_12118_2386" x1="146.378" y1="38.9023" x2="146.378" y2="85.2335" gradientUnits="userSpaceOnUse">
<stop stop-color="#ABCCFF"/>
<stop offset="1" stop-color="#70A8FF"/>
</linearGradient>
<linearGradient id="paint4_linear_12118_2386" x1="61.4652" y1="103.649" x2="55.8129" y2="157.143" gradientUnits="userSpaceOnUse">
<stop stop-color="#ABCCFF"/>
<stop offset="1" stop-color="#70A8FF"/>
</linearGradient>
<linearGradient id="paint5_linear_12118_2386" x1="75.9715" y1="85.3303" x2="75.9715" y2="108.248" gradientUnits="userSpaceOnUse">
<stop stop-color="#70A8FF"/>
<stop offset="1" stop-color="#5597FD"/>
</linearGradient>
<linearGradient id="paint6_linear_12118_2386" x1="74.0857" y1="85.3303" x2="74.0857" y2="108.248" gradientUnits="userSpaceOnUse">
<stop stop-color="#ABCCFF"/>
<stop offset="1" stop-color="#70A8FF"/>
</linearGradient>
<linearGradient id="paint7_linear_12118_2386" x1="135.957" y1="27.252" x2="148.183" y2="37.5664" gradientUnits="userSpaceOnUse">
<stop stop-color="#94BFFF"/>
<stop offset="1" stop-color="#4C94FE"/>
</linearGradient>
<linearGradient id="paint8_linear_12118_2386" x1="118.393" y1="150.333" x2="130.618" y2="160.647" gradientUnits="userSpaceOnUse">
<stop stop-color="#94BFFF"/>
<stop offset="1" stop-color="#4C94FE"/>
</linearGradient>
<linearGradient id="paint9_linear_12118_2386" x1="23.9252" y1="112.616" x2="15.2649" y2="119.467" gradientUnits="userSpaceOnUse">
<stop stop-color="#70A8FF"/>
<stop offset="1" stop-color="#5597FD"/>
</linearGradient>
<linearGradient id="paint10_linear_12118_2386" x1="160.189" y1="106.384" x2="168.031" y2="114.206" gradientUnits="userSpaceOnUse">
<stop stop-color="#70A8FF"/>
<stop offset="1" stop-color="#5597FD"/>
</linearGradient>
<linearGradient id="paint11_linear_12118_2386" x1="89.0973" y1="0" x2="89.0973" y2="26.9392" gradientUnits="userSpaceOnUse">
<stop stop-color="#70A8FF"/>
<stop offset="1" stop-color="#5597FD"/>
</linearGradient>
<linearGradient id="paint12_linear_12118_2386" x1="55.8497" y1="143.058" x2="55.8497" y2="169.997" gradientUnits="userSpaceOnUse">
<stop stop-color="#70A8FF"/>
<stop offset="1" stop-color="#5597FD"/>
</linearGradient>
<linearGradient id="paint13_linear_12118_2386" x1="41" y1="38.0001" x2="41" y2="66.0001" gradientUnits="userSpaceOnUse">
<stop stop-color="#ABCCFF"/>
<stop offset="1" stop-color="#70A8FF"/>
</linearGradient>
<linearGradient id="paint14_linear_12118_2386" x1="127.627" y1="69.6275" x2="127.627" y2="87.6275" gradientUnits="userSpaceOnUse">
<stop stop-color="#ABCCFF"/>
<stop offset="1" stop-color="#70A8FF"/>
</linearGradient>
<linearGradient id="paint15_linear_12118_2386" x1="97.9644" y1="32.0645" x2="97.9644" y2="90.078" gradientUnits="userSpaceOnUse">
<stop stop-color="#EDF4FF"/>
<stop offset="1" stop-color="#ABCCFF"/>
</linearGradient>
<linearGradient id="paint16_linear_12118_2386" x1="92" y1="47" x2="92" y2="67" gradientUnits="userSpaceOnUse">
<stop stop-color="#3B81EF"/>
<stop offset="1" stop-color="#6095E7"/>
</linearGradient>
<linearGradient id="paint17_linear_12118_2386" x1="27.8209" y1="95.6971" x2="113.764" y2="134.309" gradientUnits="userSpaceOnUse">
<stop stop-color="#ABCCFF"/>
<stop offset="1" stop-color="#70A8FF"/>
</linearGradient>
<linearGradient id="paint18_linear_12118_2386" x1="80.2222" y1="154.117" x2="37.4855" y2="114.892" gradientUnits="userSpaceOnUse">
<stop stop-color="#EDF4FF"/>
<stop offset="1" stop-color="#ABCCFF"/>
</linearGradient>
<linearGradient id="paint19_linear_12118_2386" x1="114.461" y1="141.577" x2="72.456" y2="124.637" gradientUnits="userSpaceOnUse">
<stop stop-color="#EDF4FF"/>
<stop offset="1" stop-color="#ABCCFF"/>
</linearGradient>
<linearGradient id="paint20_linear_12118_2386" x1="58.153" y1="83.153" x2="90.0196" y2="113.108" gradientUnits="userSpaceOnUse">
<stop stop-color="#FF698D"/>
<stop offset="1" stop-color="#FF3868"/>
</linearGradient>
<linearGradient id="paint21_linear_12118_2386" x1="151.382" y1="142.494" x2="111.694" y2="105.941" gradientUnits="userSpaceOnUse">
<stop stop-color="#EDF4FF"/>
<stop offset="1" stop-color="#ABCCFF"/>
</linearGradient>
<linearGradient id="paint22_linear_12118_2386" x1="179.664" y1="122.613" x2="126.367" y2="124.352" gradientUnits="userSpaceOnUse">
<stop stop-color="#70A8FF"/>
<stop offset="1" stop-color="#5597FD"/>
</linearGradient>
</defs>
</svg>
