<svg width="1144" height="564" viewBox="0 0 1144 564" fill="none" xmlns="http://www.w3.org/2000/svg">
<g opacity="0.5">
<g opacity="0.3">
<rect x="155.923" y="307.843" width="99" height="32" rx="1.5" transform="rotate(-13.9288 155.923 307.843)" stroke="white"/>
<rect x="168.479" y="337.699" width="89" height="49" transform="rotate(-13.9288 168.479 337.699)" stroke="white"/>
<rect x="196.082" y="297.369" width="16" height="82" transform="rotate(-13.9288 196.082 297.369)" fill="white"/>
<path fill-rule="evenodd" clip-rule="evenodd" d="M203.995 296.321C204.026 296.352 204.057 296.382 204.088 296.413C203.992 296.415 203.896 296.417 203.8 296.419C203.713 296.463 203.628 296.506 203.542 296.549C203.555 296.507 203.568 296.465 203.581 296.423C189.794 296.655 164.528 294.358 169.915 283.252C175.294 272.164 194.431 286.923 203.704 296.034C207.646 283.646 217.669 261.655 227.605 268.945C237.558 276.246 216.292 290.084 203.995 296.321Z" fill="white"/>
<path d="M204.088 296.413L204.099 296.913L205.273 296.888L204.44 296.059L204.088 296.413ZM203.995 296.321L203.768 295.875L203.151 296.188L203.642 296.676L203.995 296.321ZM203.8 296.419L203.79 295.919L203.676 295.921L203.574 295.973L203.8 296.419ZM203.542 296.549L203.065 296.4L202.716 297.522L203.766 296.996L203.542 296.549ZM203.581 296.423L204.059 296.572L204.265 295.911L203.573 295.923L203.581 296.423ZM169.915 283.252L169.465 283.034L169.465 283.034L169.915 283.252ZM203.704 296.034L203.354 296.391L203.934 296.961L204.181 296.186L203.704 296.034ZM227.605 268.945L227.901 268.541L227.605 268.945ZM204.44 296.059C204.409 296.028 204.378 295.997 204.347 295.966L203.642 296.676C203.673 296.706 203.704 296.737 203.735 296.768L204.44 296.059ZM203.809 296.919C203.906 296.917 204.003 296.915 204.099 296.913L204.077 295.913C203.982 295.915 203.886 295.917 203.79 295.919L203.809 296.919ZM203.574 295.973C203.489 296.016 203.403 296.059 203.318 296.102L203.766 296.996C203.852 296.953 203.938 296.909 204.025 296.866L203.574 295.973ZM204.02 296.697C204.032 296.656 204.045 296.614 204.059 296.572L203.104 296.274C203.091 296.316 203.078 296.358 203.065 296.4L204.02 296.697ZM169.465 283.034C168.756 284.496 168.532 285.854 168.757 287.105C168.982 288.355 169.645 289.445 170.615 290.387C172.538 292.254 175.727 293.601 179.431 294.573C186.862 296.524 196.678 297.039 203.59 296.923L203.573 295.923C196.698 296.039 186.987 295.523 179.685 293.606C176.022 292.644 173.043 291.35 171.312 289.669C170.456 288.838 169.921 287.928 169.741 286.928C169.562 285.928 169.727 284.785 170.365 283.47L169.465 283.034ZM204.055 295.677C199.402 291.106 192.258 285.1 185.58 281.625C182.247 279.89 178.972 278.756 176.153 278.79C174.735 278.808 173.419 279.122 172.272 279.817C171.122 280.513 170.174 281.573 169.465 283.034L170.365 283.47C171.001 282.159 171.827 281.255 172.79 280.672C173.755 280.087 174.888 279.806 176.166 279.79C178.738 279.759 181.835 280.804 185.118 282.512C191.671 285.922 198.733 291.851 203.354 296.391L204.055 295.677ZM204.181 296.186C206.145 290.013 209.618 281.471 213.818 275.394C215.922 272.35 218.172 269.978 220.461 268.805C221.598 268.222 222.731 267.941 223.858 268.007C224.982 268.072 226.134 268.486 227.309 269.348L227.901 268.541C226.592 267.581 225.257 267.087 223.916 267.008C222.577 266.93 221.266 267.268 220.005 267.915C217.496 269.201 215.131 271.735 212.995 274.826C208.714 281.019 205.205 289.667 203.228 295.882L204.181 296.186ZM227.309 269.348C228.488 270.212 229.168 271.146 229.476 272.113C229.784 273.081 229.737 274.136 229.368 275.271C228.623 277.565 226.595 280.102 223.805 282.664C218.245 287.77 209.901 292.765 203.768 295.875L204.221 296.766C210.386 293.64 218.823 288.597 224.482 283.4C227.302 280.81 229.492 278.128 230.32 275.58C230.737 274.294 230.814 273.02 230.429 271.81C230.043 270.599 229.211 269.502 227.901 268.541L227.309 269.348Z" fill="white"/>
</g>
<g opacity="0.3">
<rect x="22.0874" y="74.3764" width="99" height="32" rx="1.5" transform="rotate(15.3726 22.0874 74.3764)" stroke="white"/>
<rect x="18.4254" y="106.557" width="89" height="49" transform="rotate(15.3726 18.4254 106.557)" stroke="white"/>
<rect x="62.2352" y="84.896" width="16" height="82" transform="rotate(15.3726 62.2352 84.896)" fill="white"/>
<path fill-rule="evenodd" clip-rule="evenodd" d="M69.6477 87.8544C69.6598 87.8967 69.6718 87.9389 69.6838 87.9809C69.5995 87.936 69.5148 87.8907 69.4296 87.845C69.333 87.8408 69.2371 87.8364 69.1417 87.8319C69.1734 87.8019 69.2053 87.7718 69.2373 87.7416C57.1005 81.1969 36.1908 66.8279 46.3241 59.7794C56.4411 52.7422 65.9067 74.9787 69.5348 87.4624C79.0349 78.5881 98.5379 64.3159 103.635 75.5361C108.741 86.7743 83.4245 88.4342 69.6477 87.8544Z" fill="white"/>
<path d="M69.6838 87.9809L69.4486 88.4222L70.4856 88.9748L70.1648 87.8444L69.6838 87.9809ZM69.6477 87.8544L69.6688 87.3549L68.9768 87.3258L69.167 87.9917L69.6477 87.8544ZM69.4296 87.845L69.666 87.4044L69.5655 87.3505L69.4517 87.3455L69.4296 87.845ZM69.1417 87.8319L68.7981 87.4687L67.9445 88.2761L69.1182 88.3313L69.1417 87.8319ZM69.2373 87.7416L69.5803 88.1054L70.0842 87.6302L69.4746 87.3015L69.2373 87.7416ZM46.3241 59.7794L46.0386 59.3689L46.0386 59.3689L46.3241 59.7794ZM69.5348 87.4624L69.0547 87.6019L69.2817 88.383L69.8761 87.8278L69.5348 87.4624ZM103.635 75.5361L104.091 75.3293L103.635 75.5361ZM70.1648 87.8444C70.1527 87.8021 70.1407 87.7597 70.1285 87.7172L69.167 87.9917C69.179 88.0337 69.1909 88.0757 69.2028 88.1175L70.1648 87.8444ZM69.1932 88.2856C69.2788 88.3315 69.3639 88.3771 69.4486 88.4222L69.9189 87.5397C69.8351 87.495 69.7507 87.4499 69.666 87.4044L69.1932 88.2856ZM69.4517 87.3455C69.3556 87.3413 69.2601 87.3369 69.1652 87.3325L69.1182 88.3313C69.2141 88.3359 69.3105 88.3403 69.4075 88.3445L69.4517 87.3455ZM69.4853 88.1951C69.5168 88.1653 69.5485 88.1354 69.5803 88.1054L68.8943 87.3778C68.8621 87.4082 68.83 87.4385 68.7981 87.4687L69.4853 88.1951ZM46.0386 59.3689C44.705 60.2966 43.8452 61.3715 43.429 62.5725C43.0131 63.7729 43.0582 65.0477 43.4433 66.3441C44.2062 68.9128 46.328 71.6487 49.082 74.3091C54.6078 79.6467 62.9153 84.9006 69 88.1817L69.4746 87.3015C63.4225 84.0379 55.2068 78.835 49.7768 73.5898C47.053 70.9588 45.0887 68.3718 44.4019 66.0594C44.062 64.9153 44.0412 63.86 44.3739 62.8999C44.7064 61.9403 45.4099 61.0244 46.6096 60.1899L46.0386 59.3689ZM70.0149 87.3228C68.1947 81.0596 64.9045 72.326 60.7811 66.0267C58.7234 62.883 56.4232 60.2907 53.948 58.9415C52.7029 58.2628 51.4012 57.8921 50.0607 57.9367C48.7178 57.9814 47.3715 58.4418 46.0386 59.3689L46.6096 60.1899C47.8059 59.3577 48.9685 58.9736 50.0939 58.9361C51.2217 58.8986 52.3477 59.2081 53.4694 59.8195C55.7278 61.0506 57.9177 63.4781 59.9445 66.5744C63.9901 72.755 67.2468 81.3815 69.0547 87.6019L70.0149 87.3228ZM69.8761 87.8278C74.6099 83.4058 81.8189 77.6567 88.4556 74.413C91.7804 72.7881 94.9035 71.8212 97.4738 71.9178C98.7504 71.9657 99.8764 72.2754 100.826 72.8841C101.775 73.4917 102.577 74.4162 103.18 75.7429L104.091 75.3293C103.419 73.851 102.497 72.7671 101.366 72.0422C100.237 71.3185 98.9284 70.9717 97.5114 70.9185C94.6943 70.8127 91.3922 71.8647 88.0165 73.5146C81.2523 76.8205 73.9598 82.6446 69.1935 87.097L69.8761 87.8278ZM103.18 75.7429C103.785 77.0735 103.921 78.2203 103.716 79.215C103.511 80.2102 102.954 81.1065 102.077 81.9161C100.304 83.5524 97.2938 84.7716 93.6077 85.6404C86.2595 87.3724 76.5387 87.644 69.6688 87.3549L69.6267 88.354C76.5335 88.6447 86.3593 88.3762 93.8372 86.6137C97.5642 85.7352 100.786 84.4685 102.755 82.6509C103.749 81.7335 104.439 80.6609 104.696 79.4166C104.952 78.1717 104.763 76.8083 104.091 75.3293L103.18 75.7429Z" fill="white"/>
</g>
<g opacity="0.3">
<rect x="1007.04" y="79.342" width="99" height="32" rx="1.5" transform="rotate(-13.9288 1007.04 79.342)" stroke="white"/>
<rect x="1019.59" y="109.197" width="89" height="49" transform="rotate(-13.9288 1019.59 109.197)" stroke="white"/>
<rect x="1047.2" y="68.8672" width="16" height="82" transform="rotate(-13.9288 1047.2 68.8672)" fill="white"/>
<path fill-rule="evenodd" clip-rule="evenodd" d="M1055.11 67.8191C1055.14 67.85 1055.17 67.8809 1055.2 67.9118C1055.11 67.9138 1055.01 67.9158 1054.92 67.9176C1054.83 67.9612 1054.74 68.0043 1054.66 68.0471C1054.67 68.0054 1054.68 67.9635 1054.7 67.9215C1040.91 68.154 1015.64 65.8567 1021.03 54.7507C1026.41 43.6625 1045.55 58.4216 1054.82 67.5325C1058.76 55.1442 1068.78 33.1532 1078.72 40.4431C1088.67 47.7448 1067.41 61.5823 1055.11 67.8191Z" fill="white"/>
<path d="M1055.2 67.9118L1055.21 68.4116L1056.39 68.386L1055.56 67.5573L1055.2 67.9118ZM1055.11 67.8191L1054.88 67.3732L1054.27 67.6864L1054.76 68.1741L1055.11 67.8191ZM1054.92 67.9176L1054.91 67.4177L1054.79 67.4199L1054.69 67.4712L1054.92 67.9176ZM1054.66 68.0471L1054.18 67.8985L1053.83 69.0204L1054.88 68.4941L1054.66 68.0471ZM1054.7 67.9215L1055.17 68.0709L1055.38 67.4099L1054.69 67.4216L1054.7 67.9215ZM1021.03 54.7507L1020.58 54.5325L1020.58 54.5325L1021.03 54.7507ZM1054.82 67.5325L1054.47 67.8891L1055.05 68.4592L1055.3 67.6841L1054.82 67.5325ZM1078.72 40.4431L1079.02 40.04L1078.72 40.4431ZM1055.56 67.5573C1055.52 67.5263 1055.49 67.4952 1055.46 67.4641L1054.76 68.1741C1054.79 68.2049 1054.82 68.2356 1054.85 68.2662L1055.56 67.5573ZM1054.92 68.4175C1055.02 68.4157 1055.12 68.4137 1055.21 68.4116L1055.19 67.4119C1055.1 67.414 1055 67.4159 1054.91 67.4177L1054.92 68.4175ZM1054.69 67.4712C1054.6 67.5146 1054.52 67.5575 1054.43 67.6L1054.88 68.4941C1054.97 68.4512 1055.05 68.4078 1055.14 68.364L1054.69 67.4712ZM1055.14 68.1957C1055.15 68.1542 1055.16 68.1126 1055.17 68.0709L1054.22 67.7722C1054.21 67.8144 1054.19 67.8565 1054.18 67.8985L1055.14 68.1957ZM1020.58 54.5325C1019.87 55.9941 1019.65 57.3523 1019.87 58.6033C1020.1 59.8537 1020.76 60.9433 1021.73 61.8854C1023.65 63.7521 1026.84 65.0996 1030.55 66.0717C1037.98 68.0221 1047.79 68.538 1054.71 68.4215L1054.69 67.4216C1047.81 67.5375 1038.1 67.021 1030.8 65.1044C1027.14 64.143 1024.16 62.8484 1022.43 61.168C1021.57 60.3365 1021.04 59.4265 1020.86 58.4264C1020.68 57.4268 1020.84 56.2838 1021.48 54.9689L1020.58 54.5325ZM1055.17 67.1758C1050.52 62.6048 1043.37 56.5988 1036.7 53.1234C1033.36 51.389 1030.09 50.2541 1027.27 50.2889C1025.85 50.3063 1024.53 50.6201 1023.39 51.3151C1022.24 52.0112 1021.29 53.0716 1020.58 54.5325L1021.48 54.9689C1022.12 53.6578 1022.94 52.7538 1023.91 52.1704C1024.87 51.5857 1026 51.3045 1027.28 51.2888C1029.85 51.257 1032.95 52.3023 1036.23 54.0105C1042.79 57.4203 1049.85 63.3493 1054.47 67.8891L1055.17 67.1758ZM1055.3 67.6841C1057.26 61.5112 1060.73 52.9695 1064.93 46.8928C1067.04 43.8486 1069.29 41.477 1071.58 40.3032C1072.71 39.7202 1073.85 39.4392 1074.97 39.5051C1076.1 39.5709 1077.25 39.9843 1078.42 40.8463L1079.02 40.04C1077.71 39.0795 1076.37 38.5854 1075.03 38.5069C1073.69 38.4285 1072.38 38.7663 1071.12 39.4134C1068.61 40.6998 1066.25 43.2333 1064.11 46.3242C1059.83 52.5176 1056.32 61.1655 1054.34 67.3809L1055.3 67.6841ZM1078.42 40.8463C1079.6 41.7107 1080.28 42.6441 1080.59 43.6118C1080.9 44.5799 1080.85 45.6343 1080.48 46.7696C1079.74 49.0639 1077.71 51.6006 1074.92 54.1622C1069.36 59.2688 1061.02 64.2631 1054.88 67.3732L1055.34 68.265C1061.5 65.1383 1069.94 60.0954 1075.6 54.8987C1078.42 52.3086 1080.61 49.627 1081.44 47.0784C1081.85 45.792 1081.93 44.5188 1081.54 43.3082C1081.16 42.0972 1080.33 41.0009 1079.02 40.04L1078.42 40.8463Z" fill="white"/>
</g>
<g opacity="0.3">
<rect x="937.138" y="512.258" width="64.0185" height="20.4561" rx="1.5" transform="rotate(-13.9288 937.138 512.258)" stroke="white"/>
<rect x="945.302" y="531.67" width="57.5167" height="31.5093" transform="rotate(-13.9288 945.302 531.67)" stroke="white"/>
<rect x="963.037" y="505.32" width="10.403" height="53.3152" transform="rotate(-13.9288 963.037 505.32)" fill="white"/>
<path fill-rule="evenodd" clip-rule="evenodd" d="M967.913 504.706C967.904 504.733 967.896 504.76 967.887 504.787C967.943 504.759 967.999 504.731 968.055 504.703C968.118 504.702 968.18 504.701 968.242 504.699C968.222 504.679 968.202 504.659 968.181 504.639C976.177 500.584 990.004 491.587 983.533 486.84C977.072 482.1 970.555 496.398 967.993 504.453C961.963 498.529 949.52 488.933 946.023 496.142C942.521 503.363 958.949 504.857 967.913 504.706Z" fill="white"/>
<path d="M967.887 504.787L967.41 504.639L967.061 505.761L968.111 505.234L967.887 504.787ZM967.913 504.706L968.39 504.855L968.597 504.194L967.904 504.206L967.913 504.706ZM968.055 504.703L968.045 504.203L967.931 504.205L967.829 504.257L968.055 504.703ZM968.242 504.699L968.253 505.199L969.428 505.174L968.595 504.345L968.242 504.699ZM968.181 504.639L967.955 504.193L967.338 504.506L967.829 504.994L968.181 504.639ZM983.533 486.84L983.237 487.243L983.237 487.243L983.533 486.84ZM967.993 504.453L967.642 504.809L968.222 505.379L968.469 504.604L967.993 504.453ZM946.023 496.142L946.473 496.36L946.023 496.142ZM968.365 504.936C968.373 504.909 968.381 504.882 968.39 504.855L967.436 504.556C967.427 504.584 967.418 504.611 967.41 504.639L968.365 504.936ZM967.829 504.257C967.774 504.285 967.718 504.313 967.663 504.34L968.111 505.234C968.167 505.206 968.223 505.178 968.28 505.15L967.829 504.257ZM968.064 505.203C968.127 505.202 968.19 505.201 968.253 505.199L968.231 504.199C968.17 504.201 968.108 504.202 968.045 504.203L968.064 505.203ZM968.595 504.345C968.574 504.325 968.554 504.304 968.534 504.284L967.829 504.994C967.849 505.014 967.87 505.034 967.889 505.054L968.595 504.345ZM983.237 487.243C983.98 487.788 984.396 488.366 984.582 488.953C984.769 489.54 984.744 490.187 984.513 490.899C984.043 492.346 982.752 493.97 980.944 495.631C977.346 498.935 971.937 502.174 967.955 504.193L968.408 505.085C972.422 503.049 977.924 499.762 981.62 496.367C983.459 494.678 984.911 492.909 985.464 491.208C985.744 490.345 985.799 489.479 985.535 488.649C985.271 487.819 984.703 487.078 983.828 486.436L983.237 487.243ZM968.469 504.604C969.744 500.598 971.995 495.063 974.712 491.132C976.075 489.161 977.518 487.648 978.967 486.904C979.685 486.536 980.391 486.364 981.086 486.404C981.779 486.445 982.496 486.699 983.237 487.243L983.828 486.436C982.954 485.795 982.054 485.459 981.144 485.406C980.237 485.353 979.353 485.582 978.511 486.014C976.842 486.871 975.284 488.546 973.89 490.564C971.092 494.611 968.804 500.253 967.516 504.301L968.469 504.604ZM968.343 504.096C965.312 501.119 960.654 497.2 956.289 494.929C954.113 493.797 951.953 493.043 950.077 493.066C949.131 493.078 948.243 493.288 947.465 493.759C946.685 494.231 946.047 494.948 945.574 495.924L946.473 496.36C946.874 495.534 947.39 494.974 947.983 494.614C948.579 494.253 949.284 494.076 950.09 494.066C951.719 494.046 953.702 494.71 955.828 495.816C960.066 498.022 964.643 501.863 967.642 504.809L968.343 504.096ZM945.574 495.924C945.1 496.9 944.944 497.821 945.099 498.678C945.253 499.535 945.706 500.275 946.357 500.907C947.641 502.153 949.751 503.038 952.166 503.672C957.02 504.946 963.421 505.281 967.921 505.206L967.904 504.206C963.441 504.281 957.145 503.945 952.42 502.705C950.046 502.082 948.145 501.249 947.054 500.189C946.517 499.668 946.192 499.108 946.083 498.501C945.974 497.895 946.071 497.19 946.473 496.36L945.574 495.924Z" fill="white"/>
</g>
<g opacity="0.3">
<rect x="291.193" y="14.3143" width="64.0185" height="20.4561" rx="1.5" transform="rotate(22.1653 291.193 14.3143)" stroke="white"/>
<rect x="286.354" y="34.8089" width="57.5167" height="31.5093" transform="rotate(22.1653 286.354 34.8089)" stroke="white"/>
<rect x="316.208" y="23.9653" width="10.403" height="53.3152" transform="rotate(22.1653 316.208 23.9653)" fill="white"/>
<path fill-rule="evenodd" clip-rule="evenodd" d="M320.51 26.3407C320.488 26.3577 320.465 26.3747 320.442 26.3916C320.503 26.4019 320.565 26.4121 320.627 26.4222C320.678 26.4583 320.729 26.4941 320.78 26.5296C320.776 26.5015 320.771 26.4733 320.767 26.4451C329.617 27.8789 346.089 28.7541 343.657 21.1058C341.229 13.4698 327.54 21.1844 320.724 26.1833C319.342 17.8446 314.941 2.7603 307.868 6.52566C300.783 10.2971 313.178 21.182 320.51 26.3407Z" fill="white"/>
<path d="M320.442 26.3916L320.144 25.9903L319.2 26.6912L320.359 26.8848L320.442 26.3916ZM320.51 26.3407L320.808 26.7425L321.365 26.3303L320.798 25.9318L320.51 26.3407ZM320.627 26.4222L320.913 26.0127L320.82 25.9473L320.708 25.9288L320.627 26.4222ZM320.78 26.5296L320.495 26.9399L321.459 27.6113L321.274 26.4509L320.78 26.5296ZM320.767 26.4451L320.847 25.9515L320.163 25.8408L320.273 26.5245L320.767 26.4451ZM343.657 21.1058L343.181 21.2574L343.181 21.2574L343.657 21.1058ZM320.724 26.1833L320.231 26.2651L320.364 27.0675L321.02 26.5865L320.724 26.1833ZM307.868 6.52566L308.103 6.96701L307.868 6.52566ZM320.74 26.7929C320.763 26.7762 320.785 26.7594 320.808 26.7425L320.213 25.9389C320.19 25.9561 320.167 25.9732 320.144 25.9903L320.74 26.7929ZM320.708 25.9288C320.646 25.9187 320.585 25.9086 320.524 25.8985L320.359 26.8848C320.421 26.8951 320.483 26.9054 320.546 26.9156L320.708 25.9288ZM320.34 26.8318C320.392 26.8681 320.443 26.9042 320.495 26.9399L321.066 26.1192C321.015 26.084 320.965 26.0485 320.913 26.0127L320.34 26.8318ZM321.274 26.4509C321.27 26.4225 321.265 26.3941 321.26 26.3657L320.273 26.5245C320.278 26.5526 320.282 26.5805 320.287 26.6082L321.274 26.4509ZM343.181 21.2574C343.46 22.1357 343.455 22.8479 343.261 23.4319C343.066 24.0165 342.664 24.5245 342.058 24.9634C340.826 25.8561 338.826 26.4078 336.386 26.6844C331.532 27.2349 325.254 26.6655 320.847 25.9515L320.687 26.9387C325.13 27.6585 331.513 28.2436 336.499 27.6781C338.98 27.3967 341.196 26.8228 342.645 25.7733C343.379 25.2411 343.934 24.5739 344.209 23.748C344.485 22.9216 344.462 21.988 344.134 20.9543L343.181 21.2574ZM321.02 26.5865C324.41 24.1002 329.49 20.9541 334.001 19.3785C336.263 18.5884 338.321 18.2154 339.93 18.4687C340.727 18.594 341.399 18.8703 341.937 19.3127C342.473 19.7537 342.902 20.3822 343.181 21.2574L344.134 20.9543C343.805 19.9205 343.276 19.1197 342.572 18.5405C341.87 17.9628 341.021 17.628 340.086 17.4809C338.233 17.1892 335.987 17.6256 333.671 18.4345C329.026 20.0569 323.854 23.2675 320.428 25.7801L321.02 26.5865ZM321.217 26.1015C320.522 21.9102 319.066 15.9993 316.878 11.593C315.786 9.39624 314.485 7.5148 312.955 6.42839C312.184 5.88022 311.343 5.52651 310.437 5.44905C309.528 5.37139 308.59 5.57452 307.633 6.0843L308.103 6.96701C308.913 6.53545 309.66 6.38629 310.351 6.44542C311.045 6.50474 311.719 6.77688 312.376 7.24365C313.705 8.18711 314.916 9.8919 315.982 12.0379C318.108 16.3171 319.543 22.1177 320.231 26.2651L321.217 26.1015ZM307.633 6.0843C306.675 6.59404 306.007 7.24634 305.626 8.02986C305.246 8.81289 305.177 9.67806 305.33 10.5721C305.633 12.3352 306.817 14.2939 308.395 16.2289C311.567 20.118 316.541 24.1596 320.223 26.7496L320.798 25.9318C317.147 23.363 312.258 19.3828 309.17 15.5969C307.619 13.6945 306.574 11.9024 306.316 10.4027C306.189 9.66527 306.257 9.02101 306.526 8.46675C306.795 7.91298 307.289 7.40013 308.103 6.96701L307.633 6.0843Z" fill="white"/>
</g>
<g opacity="0.3">
<rect x="853.861" y="247.144" width="74.9581" height="24.0662" rx="1.5" transform="rotate(15.3726 853.861 247.144)" stroke="white"/>
<rect x="851.08" y="271.588" width="67.3623" height="36.9791" transform="rotate(15.3726 851.08 271.588)" stroke="white"/>
<rect x="884.273" y="254.987" width="12.1533" height="62.2857" transform="rotate(15.3726 884.273 254.987)" fill="white"/>
<path fill-rule="evenodd" clip-rule="evenodd" d="M889.903 257.234C889.912 257.266 889.921 257.298 889.931 257.33C889.867 257.296 889.802 257.262 889.738 257.227C889.664 257.224 889.591 257.221 889.519 257.217C889.543 257.194 889.567 257.171 889.591 257.148C880.373 252.177 864.49 241.263 872.187 235.909C879.872 230.564 887.062 247.454 889.817 256.936C897.034 250.196 911.847 239.355 915.719 247.878C919.598 256.414 900.368 257.675 889.903 257.234Z" fill="white"/>
<path d="M889.931 257.33L889.695 257.771L890.732 258.324L890.412 257.194L889.931 257.33ZM889.903 257.234L889.924 256.735L889.232 256.706L889.422 257.372L889.903 257.234ZM889.738 257.227L889.974 256.787L889.874 256.733L889.76 256.728L889.738 257.227ZM889.519 257.217L889.175 256.854L888.321 257.662L889.495 257.717L889.519 257.217ZM889.591 257.148L889.935 257.512L890.438 257.037L889.829 256.708L889.591 257.148ZM872.187 235.909L871.901 235.498L872.187 235.909ZM889.817 256.936L889.337 257.076L889.564 257.857L890.159 257.302L889.817 256.936ZM915.719 247.878L915.264 248.084L915.719 247.878ZM890.412 257.194C890.402 257.162 890.393 257.129 890.384 257.097L889.422 257.372C889.432 257.403 889.441 257.435 889.45 257.467L890.412 257.194ZM889.502 257.668C889.566 257.703 889.631 257.737 889.695 257.771L890.166 256.889C890.102 256.855 890.038 256.821 889.974 256.787L889.502 257.668ZM889.76 256.728C889.687 256.724 889.614 256.721 889.542 256.718L889.495 257.717C889.568 257.72 889.642 257.723 889.716 257.727L889.76 256.728ZM889.862 257.58C889.886 257.558 889.91 257.535 889.935 257.512L889.248 256.785C889.224 256.808 889.199 256.831 889.175 256.854L889.862 257.58ZM871.901 235.498C870.872 236.214 870.2 237.05 869.874 237.991C869.548 238.932 869.586 239.927 869.883 240.93C870.472 242.912 872.103 245.008 874.198 247.032C878.407 251.097 884.728 255.094 889.354 257.589L889.829 256.708C885.236 254.232 879.006 250.286 874.893 246.313C872.828 244.318 871.355 242.37 870.842 240.645C870.589 239.794 870.577 239.019 870.819 238.319C871.062 237.619 871.577 236.942 872.472 236.319L871.901 235.498ZM890.298 256.797C888.913 252.034 886.41 245.388 883.269 240.588C881.702 238.195 879.942 236.206 878.035 235.167C877.075 234.643 876.065 234.354 875.021 234.389C873.975 234.424 872.93 234.783 871.901 235.498L872.472 236.319C873.365 235.699 874.226 235.416 875.054 235.389C875.885 235.361 876.72 235.589 877.557 236.045C879.246 236.966 880.896 238.79 882.432 241.136C885.496 245.817 887.966 252.356 889.337 257.076L890.298 256.797ZM890.159 257.302C893.75 253.947 899.216 249.589 904.242 247.132C906.761 245.901 909.112 245.177 911.035 245.249C911.988 245.285 912.821 245.516 913.521 245.964C914.219 246.412 914.815 247.095 915.264 248.084L916.175 247.671C915.656 246.53 914.942 245.687 914.061 245.122C913.181 244.559 912.166 244.291 911.072 244.25C908.903 244.169 906.373 244.978 903.803 246.234C898.65 248.753 893.1 253.185 889.476 256.571L890.159 257.302ZM915.264 248.084C915.715 249.077 915.812 249.922 915.663 250.648C915.514 251.374 915.106 252.033 914.454 252.635C913.131 253.856 910.87 254.777 908.075 255.436C902.509 256.747 895.138 256.954 889.924 256.735L889.882 257.734C895.133 257.955 902.609 257.751 908.305 256.409C911.14 255.74 913.613 254.773 915.132 253.37C915.901 252.66 916.442 251.824 916.643 250.849C916.843 249.874 916.693 248.812 916.175 247.671L915.264 248.084Z" fill="white"/>
</g>
<g opacity="0.49">
<path opacity="0.49" d="M730.368 403.777C730.368 407.48 727.377 410.493 723.7 410.493C720.023 410.493 717.032 407.48 717.032 403.777C717.032 400.073 720.023 397.061 723.7 397.061C727.377 397.061 730.368 400.073 730.368 403.777Z" stroke="white" stroke-width="2" stroke-miterlimit="10" stroke-linecap="round" stroke-linejoin="round"/>
<path opacity="0.49" d="M521.869 71.9691C521.869 75.6729 518.878 78.6852 515.201 78.6852C511.524 78.6852 508.533 75.6729 508.533 71.9691C508.533 68.2653 511.524 65.2529 515.201 65.2529C518.894 65.2529 521.869 68.2489 521.869 71.9691Z" stroke="white" stroke-width="2" stroke-miterlimit="10" stroke-linecap="round" stroke-linejoin="round"/>
<g opacity="0.49">
<path opacity="0.49" d="M646.334 5.26904V17.0223" stroke="white" stroke-width="2" stroke-miterlimit="10" stroke-linecap="round" stroke-linejoin="round"/>
<path opacity="0.49" d="M652.168 11.145H640.516" stroke="white" stroke-width="2" stroke-miterlimit="10" stroke-linecap="round" stroke-linejoin="round"/>
</g>
<g opacity="0.49">
<path opacity="0.49" d="M1136.68 397.917V409.653" stroke="white" stroke-width="2" stroke-miterlimit="10" stroke-linecap="round" stroke-linejoin="round"/>
<path opacity="0.49" d="M1142.51 403.776H1130.86" stroke="white" stroke-width="2" stroke-miterlimit="10" stroke-linecap="round" stroke-linejoin="round"/>
</g>
<g opacity="0.49">
<path opacity="0.49" d="M314.171 291.577V303.314" stroke="white" stroke-width="2" stroke-miterlimit="10" stroke-linecap="round" stroke-linejoin="round"/>
<path opacity="0.49" d="M320.006 297.437H308.353" stroke="white" stroke-width="2" stroke-miterlimit="10" stroke-linecap="round" stroke-linejoin="round"/>
</g>
<g opacity="0.49">
<g opacity="0.49">
<path opacity="0.49" d="M910.087 538.297V550.034" stroke="white" stroke-width="2" stroke-miterlimit="10" stroke-linecap="round" stroke-linejoin="round"/>
<path opacity="0.49" d="M915.905 544.158H904.252" stroke="white" stroke-width="2" stroke-miterlimit="10" stroke-linecap="round" stroke-linejoin="round"/>
</g>
<g opacity="0.49">
<path opacity="0.49" d="M874.852 538.297V550.034" stroke="white" stroke-width="2" stroke-miterlimit="10" stroke-linecap="round" stroke-linejoin="round"/>
<path opacity="0.49" d="M880.67 544.158H869.018" stroke="white" stroke-width="2" stroke-miterlimit="10" stroke-linecap="round" stroke-linejoin="round"/>
</g>
<g opacity="0.49">
<path opacity="0.49" d="M839.618 538.297V550.034" stroke="white" stroke-width="2" stroke-miterlimit="10" stroke-linecap="round" stroke-linejoin="round"/>
<path opacity="0.49" d="M845.436 544.158H833.783" stroke="white" stroke-width="2" stroke-miterlimit="10" stroke-linecap="round" stroke-linejoin="round"/>
</g>
</g>
<g opacity="0.49">
<g opacity="0.49">
<path opacity="0.49" d="M120.724 13.187V24.9238" stroke="white" stroke-width="2" stroke-miterlimit="10" stroke-linecap="round" stroke-linejoin="round"/>
<path opacity="0.49" d="M126.542 19.063H114.89" stroke="white" stroke-width="2" stroke-miterlimit="10" stroke-linecap="round" stroke-linejoin="round"/>
</g>
<g opacity="0.49">
<path opacity="0.49" d="M85.4898 13.187V24.9238" stroke="white" stroke-width="2" stroke-miterlimit="10" stroke-linecap="round" stroke-linejoin="round"/>
<path opacity="0.49" d="M91.3242 19.063H79.6556" stroke="white" stroke-width="2" stroke-miterlimit="10" stroke-linecap="round" stroke-linejoin="round"/>
</g>
<g opacity="0.49">
<path opacity="0.49" d="M50.2551 13.187V24.9238" stroke="white" stroke-width="2" stroke-miterlimit="10" stroke-linecap="round" stroke-linejoin="round"/>
<path opacity="0.49" d="M56.0895 19.063H44.4373" stroke="white" stroke-width="2" stroke-miterlimit="10" stroke-linecap="round" stroke-linejoin="round"/>
</g>
</g>
<path opacity="0.49" d="M452.74 257.635L461.81 241.815H443.67L452.74 257.635Z" stroke="white" stroke-width="2" stroke-miterlimit="10" stroke-linecap="round" stroke-linejoin="round"/>
<path opacity="0.49" d="M438.653 497.292C442.608 493.309 449.537 500.288 453.492 496.305C457.447 492.321 450.518 485.342 454.472 481.358C458.427 477.374 465.357 484.354 469.312 480.37C473.266 476.387 466.337 469.407 470.276 465.424C474.231 461.44 481.16 468.42 485.115 464.436C489.07 460.452 482.14 453.473 486.095 449.473C490.05 445.489 496.979 452.469 500.951 448.485" stroke="white" stroke-width="2" stroke-miterlimit="10" stroke-linecap="round" stroke-linejoin="round"/>
</g>
</g>
</svg>
