<svg width="170" height="170" viewBox="0 0 170 170" fill="none" xmlns="http://www.w3.org/2000/svg">
<path d="M85 170C131.944 170 170 131.944 170 85C170 38.0558 131.944 0 85 0C38.0558 0 0 38.0558 0 85C0 131.944 38.0558 170 85 170Z" fill="url(#paint0_linear_5786_5976)"/>
<path d="M147.846 21.4819C158.958 43.1089 129.517 66.1982 121.366 70.476" stroke="#63A0FE" stroke-linecap="round" stroke-linejoin="round" stroke-dasharray="4 4"/>
<path d="M32.938 20.9907C30.8495 29.299 37.6149 46.7562 48.058 48.1409C67.3811 50.703 63.8324 28.2308 52.305 32.4541C38.5858 37.4805 52.3149 58.9812 71.1128 63.8277" stroke="#629FFE" stroke-linecap="round" stroke-linejoin="round" stroke-dasharray="4 4"/>
<path d="M152.748 60.4541H35.5068L26.2578 80.6698H143.49L152.748 60.4541Z" fill="url(#paint1_linear_5786_5976)"/>
<path d="M145.063 80.6697H68.3809V157.352H145.063V80.6697Z" fill="url(#paint2_linear_5786_5976)"/>
<path d="M102.94 80.6697H26.2578V157.352H102.94V80.6697Z" fill="url(#paint3_linear_5786_5976)"/>
<ellipse cx="62.5" cy="119" rx="14.5" ry="16" fill="url(#paint4_linear_5786_5976)"/>
<path d="M62.3663 131C64.3184 131 65.709 129.431 65.709 127.235C65.709 125.039 64.3184 123.471 62.3663 123.471C60.4409 123.471 59.0236 125.039 59.0236 127.235C59.0236 129.431 60.4409 131 62.3663 131ZM65.0405 122.843C65.0405 120.773 66.0567 120.02 67.4472 119.267C69.2924 118.263 70.6563 116.224 70.6563 113.714C70.6563 109.761 67.3403 107 62.8476 107C58.0341 107 54.6379 110.169 54.3438 114.592L60.4944 115.91C60.6548 114.184 61.4303 112.961 62.5267 112.961C63.3557 112.961 63.9708 113.62 63.9708 114.529C63.9708 115.596 63.0616 116.255 62.3395 116.757C60.4141 118.231 59.6921 119.863 59.6921 122.843H65.0405Z" fill="white"/>
<path d="M93.6825 57.3994H17L26.2574 80.6699H102.931L93.6825 57.3994Z" fill="url(#paint5_linear_5786_5976)"/>
<path d="M154.313 57.3994H112.189L102.931 80.6699H145.055L154.313 57.3994Z" fill="url(#paint6_linear_5786_5976)"/>
<path fill-rule="evenodd" clip-rule="evenodd" d="M147.301 5.404C145.215 1.74683 141.342 0.0264978 138.651 1.56151C135.961 3.09653 135.471 7.30561 137.557 10.9628C137.643 11.1128 137.559 11.3063 137.395 11.3614C136.16 11.7776 135.043 13.0415 134.581 14.729C133.933 17.1002 134.824 19.4099 136.572 19.888C138.32 20.366 140.262 18.8313 140.911 16.4601C141.13 15.6585 142.085 15.0653 142.897 15.2417C144.062 15.4946 145.215 15.3712 146.207 14.8053C147.188 14.2452 147.877 13.3292 148.255 12.2139C148.451 11.6343 149.116 11.2825 149.707 11.4439C152.078 12.0925 154.388 11.2013 154.866 9.45341C155.344 7.70554 153.809 5.76286 151.438 5.11433C150.002 4.72162 148.589 4.89348 147.591 5.47823C147.49 5.53718 147.359 5.50525 147.301 5.404Z" fill="url(#paint7_linear_5786_5976)"/>
<path fill-rule="evenodd" clip-rule="evenodd" d="M38.5768 17.6515C38.3102 17.2873 37.7687 17.2077 37.4117 17.4838C36.3206 18.3275 35.0515 18.7339 33.7724 18.5358C32.4922 18.3375 31.4048 17.5651 30.6198 16.4292C30.19 15.8072 29.1819 15.6546 28.5718 16.1011C26.588 17.5528 24.1122 17.5442 23.0421 16.0819C21.972 14.6195 22.7127 12.2572 24.6965 10.8055C25.2743 10.3826 25.8939 10.0837 26.5082 9.90846C27.9004 9.51138 29.6496 8.57759 30.2865 7.27749C31.5468 4.70443 33.8104 3.11269 36.1061 3.46825C38.574 3.85047 40.3257 6.36638 40.5745 9.50727C40.6674 10.6802 41.5235 11.7576 42.4928 12.4245C42.997 12.7714 43.4697 13.226 43.8724 13.7762C45.3241 15.7601 45.3155 18.2358 43.8532 19.3059C42.3908 20.3761 40.0285 19.6353 38.5768 17.6515Z" fill="url(#paint8_linear_5786_5976)"/>
<path d="M8.15945 95.6228C7.76192 94.0636 9.2013 92.6588 10.7503 93.0941L18.3772 95.2374C19.9262 95.6727 20.4231 97.6216 19.2716 98.7455L13.6021 104.279C12.4506 105.403 10.5143 104.859 10.1168 103.299L8.15945 95.6228Z" fill="url(#paint9_linear_5786_5976)"/>
<path d="M125.143 36.1628C126.703 35.7673 128.106 37.2085 127.668 38.757L125.515 46.381C125.078 47.9295 123.128 48.4239 122.006 47.2709L116.48 41.5943C115.358 40.4413 115.904 38.5057 117.464 38.1102L125.143 36.1628Z" fill="url(#paint10_linear_5786_5976)"/>
<path d="M125.468 129.417C125.983 127.284 129.017 127.284 129.532 129.417L130.214 132.244C130.398 133.007 130.993 133.602 131.756 133.786L134.583 134.468C136.716 134.983 136.716 138.017 134.583 138.532L131.756 139.214C130.993 139.398 130.398 139.993 130.214 140.756L129.532 143.583C129.017 145.716 125.983 145.716 125.468 143.583L124.786 140.756C124.602 139.993 124.007 139.398 123.244 139.214L120.417 138.532C118.284 138.017 118.284 134.983 120.417 134.468L123.244 133.786C124.007 133.602 124.602 133.007 124.786 132.244L125.468 129.417Z" fill="url(#paint11_linear_5786_5976)"/>
<defs>
<linearGradient id="paint0_linear_5786_5976" x1="84.3448" y1="-27.6781" x2="86.086" y2="270.829" gradientUnits="userSpaceOnUse">
<stop stop-color="#CAE0FF" stop-opacity="0"/>
<stop offset="1" stop-color="#BCD8FF"/>
</linearGradient>
<linearGradient id="paint1_linear_5786_5976" x1="89.5027" y1="60.4541" x2="89.5027" y2="80.6698" gradientUnits="userSpaceOnUse">
<stop stop-color="#2A64BE"/>
<stop offset="1" stop-color="#6095E7"/>
</linearGradient>
<linearGradient id="paint2_linear_5786_5976" x1="66.0784" y1="138.172" x2="176.866" y2="139.924" gradientUnits="userSpaceOnUse">
<stop offset="0.392237" stop-color="#5597FD"/>
<stop offset="1" stop-color="#E9FCFF"/>
</linearGradient>
<linearGradient id="paint3_linear_5786_5976" x1="47.4079" y1="123.009" x2="89.0227" y2="133.853" gradientUnits="userSpaceOnUse">
<stop stop-color="#E0ECFF"/>
<stop offset="1" stop-color="#7FB2FF"/>
</linearGradient>
<linearGradient id="paint4_linear_5786_5976" x1="48.1387" y1="105.153" x2="79.6603" y2="132.006" gradientUnits="userSpaceOnUse">
<stop stop-color="#FF698D"/>
<stop offset="1" stop-color="#FF3868"/>
</linearGradient>
<linearGradient id="paint5_linear_5786_5976" x1="59.9657" y1="57.3994" x2="59.9657" y2="80.6699" gradientUnits="userSpaceOnUse">
<stop stop-color="#8FB3EC"/>
<stop offset="1" stop-color="#AECEFF"/>
</linearGradient>
<linearGradient id="paint6_linear_5786_5976" x1="128.622" y1="57.3994" x2="128.622" y2="80.6699" gradientUnits="userSpaceOnUse">
<stop stop-color="#8FB3EC"/>
<stop offset="1" stop-color="#AECEFF"/>
</linearGradient>
<linearGradient id="paint7_linear_5786_5976" x1="144.661" y1="1" x2="144.661" y2="19.9752" gradientUnits="userSpaceOnUse">
<stop stop-color="#70A8FF"/>
<stop offset="1" stop-color="#5597FD"/>
</linearGradient>
<linearGradient id="paint8_linear_5786_5976" x1="41.6892" y1="8.05825" x2="27.7837" y2="21.1466" gradientUnits="userSpaceOnUse">
<stop stop-color="#70A8FF"/>
<stop offset="1" stop-color="#5597FD"/>
</linearGradient>
<linearGradient id="paint9_linear_5786_5976" x1="7.265" y1="92.1147" x2="19.4941" y2="104.645" gradientUnits="userSpaceOnUse">
<stop stop-color="#70A8FF"/>
<stop offset="1" stop-color="#5597FD"/>
</linearGradient>
<linearGradient id="paint10_linear_5786_5976" x1="128.652" y1="35.2729" x2="116.107" y2="47.4858" gradientUnits="userSpaceOnUse">
<stop stop-color="#70A8FF"/>
<stop offset="1" stop-color="#5597FD"/>
</linearGradient>
<linearGradient id="paint11_linear_5786_5976" x1="127.5" y1="121" x2="127.5" y2="152" gradientUnits="userSpaceOnUse">
<stop stop-color="#70A8FF"/>
<stop offset="1" stop-color="#5597FD"/>
</linearGradient>
</defs>
</svg>
