<svg width="164" height="120" viewBox="0 0 164 120" fill="none" xmlns="http://www.w3.org/2000/svg">
<rect width="163.5" height="120" fill="#383D5D"/>
<path d="M45.1348 53.2732H117.673V92.0501C117.673 98.6775 112.301 104.05 105.673 104.05H57.1348C50.5074 104.05 45.1348 98.6775 45.1348 92.0501V53.2732Z" fill="url(#paint0_linear_5799_6451)"/>
<path fill-rule="evenodd" clip-rule="evenodd" d="M50.0812 31.512C47.9052 31.512 45.9791 32.9192 45.3177 34.9922L44.3939 37.8879C43.8743 39.5163 44.2305 41.1623 45.1463 42.393H43.1196V50.6917C43.1196 53.4531 45.3582 55.6917 48.1196 55.6917H115.091C117.852 55.6917 120.091 53.4531 120.091 50.6917V42.393H118.064C118.98 41.1623 119.336 39.5163 118.817 37.8879L117.893 34.9922C117.232 32.9192 115.306 31.512 113.13 31.512H50.0812Z" fill="#F9443D"/>
<rect opacity="0.1" x="45.1348" y="53.2732" width="72.5384" height="7.65683" fill="black"/>
<path d="M43.1196 42.3928H120.091V50.6915C120.091 53.453 117.852 55.6915 115.091 55.6915H48.1196C45.3582 55.6915 43.1196 53.453 43.1196 50.6915V42.3928Z" fill="url(#paint1_linear_5799_6451)"/>
<path d="M45.3177 34.9922C45.9791 32.9192 47.9052 31.512 50.0811 31.512H113.13C115.306 31.512 117.232 32.9192 117.893 34.9922L118.817 37.8879C119.846 41.1134 117.439 44.4077 114.053 44.4077H49.1573C45.7716 44.4077 43.3647 41.1134 44.3938 37.8879L45.3177 34.9922Z" fill="url(#paint2_linear_5799_6451)"/>
<path d="M137.218 31.7131C128.03 28.0056 115.927 31.1087 111.024 33.1236L110.419 37.355C120.091 38.161 130.972 44.1387 135.203 47.0268C133.591 42.9969 129.561 38.2282 127.748 36.3475L137.218 31.7131Z" fill="url(#paint3_linear_5799_6451)"/>
<path d="M27.0002 31.7131C36.1884 28.0056 48.2915 31.1087 53.1946 33.1236L53.7991 37.355C44.1273 38.161 33.2465 44.1387 29.0151 47.0268C30.6271 42.9969 34.657 38.2282 36.4705 36.3475L27.0002 31.7131Z" fill="url(#paint4_linear_5799_6451)"/>
<path d="M113.24 16.3997C106.848 11.0042 92.6205 22.5789 87.0458 27.8849L85.4338 35.7432C89.7067 39.1782 100.404 40.1577 110.016 38.5642C121.378 36.6806 121.967 23.765 113.24 16.3997Z" fill="url(#paint5_linear_5799_6451)"/>
<path d="M51.1238 16.3997C57.5164 11.0042 71.7435 22.5789 77.3182 27.8849L78.9302 35.7432C74.6573 39.1782 63.9602 40.1577 54.3477 38.5642C42.9861 36.6806 42.3972 23.765 51.1238 16.3997Z" fill="url(#paint6_linear_5799_6451)"/>
<path d="M90.0681 38.1613C95.5748 40.6287 111.157 42.739 115.054 34.3329C118.95 25.9268 97.7492 29.2951 90.0681 38.1613Z" fill="#F53030"/>
<path d="M73.9951 38.3367C70.9713 39.6025 53.7061 42.3839 49.0097 34.5083C44.3132 26.6327 66.314 29.4705 73.9951 38.3367Z" fill="#F53030"/>
<path d="M90.6728 35.1387C90.6728 36.9118 85.2996 37.2208 82.6129 37.1536C75.414 37.4382 72.4186 34.6588 74.1501 32.7207C75.8589 30.8082 75.4024 30.0378 76.5681 27.6833C77.8841 25.0252 79.1242 25.3724 82.6129 25.4669C86.043 25.5598 87.0459 25.4669 87.4489 27.0788C87.8518 28.6908 89.2623 31.1088 89.2623 31.1088C89.2623 31.1088 90.6728 33.3655 90.6728 35.1387Z" fill="url(#paint7_linear_5799_6451)"/>
<rect x="73.344" y="36.0886" width="18.1346" height="68.9115" rx="6" fill="url(#paint8_linear_5799_6451)"/>
<path d="M82.2399 81.6399C83.6532 81.6399 84.6599 80.5373 84.6599 78.9935C84.6599 77.4498 83.6532 76.3471 82.2399 76.3471C80.846 76.3471 79.8199 77.4498 79.8199 78.9935C79.8199 80.5373 80.846 81.6399 82.2399 81.6399ZM84.1759 75.906C84.1759 74.4505 84.9116 73.9212 85.9183 73.3919C87.2541 72.6862 88.2415 71.2528 88.2415 69.4885C88.2415 66.7097 85.8409 64.769 82.5884 64.769C79.1036 64.769 76.6448 66.9964 76.4319 70.106L80.8847 71.0322C81.0009 69.8193 81.5623 68.9592 82.3561 68.9592C82.9562 68.9592 83.4015 69.4223 83.4015 70.0619C83.4015 70.8117 82.7433 71.2748 82.2205 71.6277C80.8266 72.6642 80.3039 73.811 80.3039 75.906H84.1759Z" fill="white"/>
<defs>
<linearGradient id="paint0_linear_5799_6451" x1="65.1419" y1="81.3089" x2="102.064" y2="95.054" gradientUnits="userSpaceOnUse">
<stop stop-color="#E0ECFF"/>
<stop offset="1" stop-color="#7FB2FF"/>
</linearGradient>
<linearGradient id="paint1_linear_5799_6451" x1="64.3494" y1="49.7355" x2="77.9707" y2="70.2801" gradientUnits="userSpaceOnUse">
<stop stop-color="#E0ECFF"/>
<stop offset="1" stop-color="#7FB2FF"/>
</linearGradient>
<linearGradient id="paint2_linear_5799_6451" x1="63.9881" y1="38.6321" x2="76.9201" y2="59.1679" gradientUnits="userSpaceOnUse">
<stop stop-color="#E0ECFF"/>
<stop offset="1" stop-color="#7FB2FF"/>
</linearGradient>
<linearGradient id="paint3_linear_5799_6451" x1="123.819" y1="29.9829" x2="123.819" y2="47.0268" gradientUnits="userSpaceOnUse">
<stop stop-color="#FFCDCD"/>
<stop offset="0.557292" stop-color="#F88282"/>
<stop offset="1" stop-color="#FF3535"/>
</linearGradient>
<linearGradient id="paint4_linear_5799_6451" x1="40.3996" y1="29.9829" x2="40.3996" y2="47.0268" gradientUnits="userSpaceOnUse">
<stop stop-color="#FFCDCD"/>
<stop offset="0.557292" stop-color="#F88282"/>
<stop offset="1" stop-color="#FF3535"/>
</linearGradient>
<linearGradient id="paint5_linear_5799_6451" x1="102.332" y1="15" x2="102.332" y2="39.3079" gradientUnits="userSpaceOnUse">
<stop stop-color="#FFCDCD"/>
<stop offset="0.557292" stop-color="#F88282"/>
<stop offset="1" stop-color="#FF3535"/>
</linearGradient>
<linearGradient id="paint6_linear_5799_6451" x1="62.0324" y1="15" x2="62.0324" y2="39.3079" gradientUnits="userSpaceOnUse">
<stop stop-color="#FFCDCD"/>
<stop offset="0.557292" stop-color="#F88282"/>
<stop offset="1" stop-color="#FF3535"/>
</linearGradient>
<linearGradient id="paint7_linear_5799_6451" x1="82.172" y1="25.3992" x2="82.172" y2="37.1739" gradientUnits="userSpaceOnUse">
<stop stop-color="#FFCDCD"/>
<stop offset="0.557292" stop-color="#F88282"/>
<stop offset="1" stop-color="#FF3535"/>
</linearGradient>
<linearGradient id="paint8_linear_5799_6451" x1="82.4113" y1="36.0886" x2="82.4113" y2="105" gradientUnits="userSpaceOnUse">
<stop stop-color="#FFCDCD"/>
<stop offset="0.557292" stop-color="#F88282"/>
<stop offset="1" stop-color="#FF3535"/>
</linearGradient>
</defs>
</svg>
