<svg width="164" height="120" viewBox="0 0 164 120" fill="none" xmlns="http://www.w3.org/2000/svg">
<rect width="163.5" height="120" fill="#383D5D"/>
<path d="M44.821 45.7612H117.359V84.5381C117.359 91.1655 111.987 96.5381 105.359 96.5381H56.8211C50.1936 96.5381 44.821 91.1655 44.821 84.5381V45.7612Z" fill="url(#paint0_linear_5799_6469)"/>
<path d="M45.0039 27.4803C45.6652 25.4073 47.5914 24 49.7673 24H112.816C114.992 24 116.918 25.4073 117.579 27.4803L118.503 30.376C119.532 33.6015 117.125 36.8957 113.74 36.8957H48.8434C45.4578 36.8957 43.0509 33.6015 44.08 30.376L45.0039 27.4803Z" fill="#F9443D"/>
<rect opacity="0.1" x="44.821" y="45.7612" width="72.5384" height="7.65683" fill="black"/>
<path d="M42.8059 34.8809H119.777V43.1796C119.777 45.941 117.539 48.1796 114.777 48.1796H47.8059C45.0445 48.1796 42.8059 45.941 42.8059 43.1796V34.8809Z" fill="url(#paint1_linear_5799_6469)"/>
<path d="M45.004 27.4803C45.6653 25.4073 47.5914 24 49.7674 24H112.816C114.992 24 116.918 25.4073 117.579 27.4803L118.503 30.376C119.532 33.6015 117.125 36.8957 113.74 36.8957H48.8435C45.4579 36.8957 43.051 33.6015 44.0801 30.376L45.004 27.4803Z" fill="url(#paint2_linear_5799_6469)"/>
<path d="M80.9261 78.1282C82.3393 78.1282 83.3461 77.0255 83.3461 75.4818C83.3461 73.9381 82.3393 72.8354 80.9261 72.8354C79.5321 72.8354 78.506 73.9381 78.506 75.4818C78.506 77.0255 79.5321 78.1282 80.9261 78.1282ZM82.8621 72.3943C82.8621 70.9388 83.5977 70.4095 84.6045 69.8802C85.9403 69.1745 86.9277 67.741 86.9277 65.9768C86.9277 63.198 84.527 61.2573 81.2745 61.2573C77.7897 61.2573 75.331 63.4847 75.118 66.5943L79.5708 67.5205C79.687 66.3076 80.2484 65.4475 81.0422 65.4475C81.6424 65.4475 82.0877 65.9106 82.0877 66.5502C82.0877 67.3 81.4294 67.7631 80.9067 68.1159C79.5128 69.1525 78.99 70.2992 78.99 72.3943H82.8621Z" fill="#383D5D"/>
<defs>
<linearGradient id="paint0_linear_5799_6469" x1="64.8282" y1="73.7969" x2="100.192" y2="85.7026" gradientUnits="userSpaceOnUse">
<stop stop-color="white"/>
<stop offset="1" stop-color="#BABDC2"/>
</linearGradient>
<linearGradient id="paint1_linear_5799_6469" x1="64.0357" y1="42.2235" x2="78.6411" y2="62.1451" gradientUnits="userSpaceOnUse">
<stop stop-color="white"/>
<stop offset="1" stop-color="#BABDC2"/>
</linearGradient>
<linearGradient id="paint2_linear_5799_6469" x1="63.6744" y1="31.1202" x2="77.6029" y2="51.1224" gradientUnits="userSpaceOnUse">
<stop stop-color="white"/>
<stop offset="1" stop-color="#BABDC2"/>
</linearGradient>
</defs>
</svg>
