<svg width="170" height="170" viewBox="0 0 170 170" fill="none" xmlns="http://www.w3.org/2000/svg">
<path d="M85 170C131.944 170 170 131.944 170 85C170 38.0558 131.944 0 85 0C38.0558 0 0 38.0558 0 85C0 131.944 38.0558 170 85 170Z" fill="url(#paint0_linear_10943_1129)"/>
<path fill-rule="evenodd" clip-rule="evenodd" d="M111.5 146.357C114.025 146.357 116.071 144.183 116.071 141.5C116.071 138.817 114.025 136.643 111.5 136.643C108.975 136.643 106.929 138.817 106.929 141.5C106.929 144.183 108.975 146.357 111.5 146.357ZM111.5 150C115.918 150 119.5 146.194 119.5 141.5C119.5 136.806 115.918 133 111.5 133C107.082 133 103.5 136.806 103.5 141.5C103.5 146.194 107.082 150 111.5 150Z" fill="url(#paint1_linear_10943_1129)"/>
<path d="M40.9982 76.3719H126.991V124.567C126.991 131.194 121.618 136.567 114.991 136.567H52.9982C46.3708 136.567 40.9982 131.194 40.9982 124.567V76.3719Z" fill="url(#paint2_linear_10943_1129)"/>
<path fill-rule="evenodd" clip-rule="evenodd" d="M46.1845 50.5744C44.0086 50.5744 42.0825 51.9816 41.4211 54.0546L39.7341 59.3422C39.2655 60.8109 39.5094 62.2939 40.2336 63.4736H38.6094V74.2389C38.6094 77.0003 40.8479 79.2389 43.6094 79.2389H124.857C127.618 79.2389 129.857 77.0003 129.857 74.2389V63.4736H128.233C128.957 62.2939 129.201 60.8109 128.732 59.3422L127.045 54.0546C126.384 51.9816 124.458 50.5744 122.282 50.5744H46.1845Z" fill="#F9443D"/>
<rect opacity="0.1" x="40.9982" y="76.3719" width="85.9924" height="9.07698" fill="black"/>
<path d="M38.6094 63.4733H129.857V74.2386C129.857 77 127.618 79.2386 124.857 79.2386H43.6094C40.8479 79.2386 38.6094 77 38.6094 74.2386V63.4733Z" fill="url(#paint3_linear_10943_1129)"/>
<path d="M41.4211 54.0546C42.0825 51.9816 44.0086 50.5744 46.1845 50.5744H122.282C124.458 50.5744 126.384 51.9816 127.045 54.0546L128.732 59.3422C129.761 62.5677 127.355 65.8619 123.969 65.8619H44.4976C41.1119 65.8619 38.7051 62.5676 39.7341 59.3422L41.4211 54.0546Z" fill="url(#paint4_linear_10943_1129)"/>
<path d="M150.161 50.8132C139.269 46.418 124.921 50.0966 119.108 52.4853L118.391 57.5015C129.857 58.4569 142.756 65.5434 147.772 68.9671C145.861 64.1898 141.084 58.5366 138.934 56.3071L150.161 50.8132Z" fill="url(#paint5_linear_10943_1129)"/>
<path d="M19.5 50.8132C30.3924 46.418 44.7404 50.0966 50.5528 52.4853L51.2694 57.5015C39.8038 58.4569 26.9049 65.5434 21.8887 68.9671C23.7996 64.1898 28.577 58.5366 30.7268 56.3071L19.5 50.8132Z" fill="url(#paint6_linear_10943_1129)"/>
<path d="M121.735 32.6593C114.157 26.2631 97.2913 39.9845 90.6826 46.2747L88.7717 55.5906C93.837 59.6626 106.518 60.8238 117.914 58.9347C131.382 56.7019 132.081 41.3907 121.735 32.6593Z" fill="url(#paint7_linear_10943_1129)"/>
<path d="M48.098 32.6593C55.6763 26.2631 72.5421 39.9845 79.1508 46.2747L81.0618 55.5906C75.9964 59.6626 63.3152 60.8238 51.9199 58.9347C38.451 56.7019 37.7528 41.3907 48.098 32.6593Z" fill="url(#paint8_linear_10943_1129)"/>
<path d="M94.2656 58.457C100.794 61.382 119.266 63.8837 123.885 53.9185C128.505 43.9534 103.371 47.9463 94.2656 58.457Z" fill="#F0B730"/>
<path d="M75.2114 58.665C71.6267 60.1655 51.1593 63.4629 45.5918 54.1265C40.0243 44.7902 66.1057 48.1543 75.2114 58.665Z" fill="#F0B730"/>
<path d="M94.9823 54.8739C94.9823 56.9759 88.6125 57.3422 85.4276 57.2626C76.8934 57.6 73.3424 54.305 75.3952 52.0075C77.4208 49.7403 76.8797 48.8269 78.2616 46.0358C79.8217 42.8847 81.2918 43.2963 85.4276 43.4082C89.4939 43.5183 90.6827 43.4083 91.1605 45.3192C91.6382 47.2301 93.3103 50.0965 93.3103 50.0965C93.3103 50.0965 94.9823 52.7719 94.9823 54.8739Z" fill="url(#paint9_linear_10943_1129)"/>
<rect x="74.4396" y="56.3073" width="21.4981" height="81.6928" rx="8" fill="url(#paint10_linear_10943_1129)"/>
<circle cx="85" cy="95" r="13" fill="url(#paint11_linear_10943_1129)"/>
<path fill-rule="evenodd" clip-rule="evenodd" d="M80.8906 89.302L85.4445 94.8819L83.1631 94.6876L83.1514 101.406L80.87 101.211L80.8906 89.302ZM89.4483 101.942L84.8943 96.3621L87.1758 96.5564L87.1875 89.8383L89.4689 90.0326L89.4483 101.942Z" fill="#1C203B"/>
<path d="M21.9648 24.2465C22.4642 22.0877 25.5382 22.0877 26.0376 24.2465L26.5409 26.4223C26.7176 27.1859 27.3067 27.7866 28.0668 27.978L30.4952 28.5897C32.6014 29.1203 32.6014 32.113 30.4952 32.6435L28.0668 33.2552C27.3067 33.4467 26.7176 34.0474 26.5409 34.811L26.0376 36.9868C25.5382 39.1456 22.4642 39.1456 21.9648 36.9868L21.4614 34.811C21.2848 34.0473 20.6957 33.4467 19.9356 33.2552L17.5071 32.6435C15.4009 32.113 15.4009 29.1203 17.5071 28.5898L19.9356 27.978C20.6957 27.7866 21.2848 27.1859 21.4614 26.4223L21.9648 24.2465Z" fill="url(#paint12_linear_10943_1129)"/>
<path fill-rule="evenodd" clip-rule="evenodd" d="M86.3599 11.7293C87.6222 11.7293 88.6456 10.706 88.6456 9.4436C88.6456 8.18124 87.6222 7.15789 86.3599 7.15789C85.0975 7.15789 84.0741 8.18124 84.0741 9.4436C84.0741 10.706 85.0975 11.7293 86.3599 11.7293ZM86.3599 13.4436C88.569 13.4436 90.3599 11.6527 90.3599 9.4436C90.3599 7.23446 88.569 5.4436 86.3599 5.4436C84.1507 5.4436 82.3599 7.23446 82.3599 9.4436C82.3599 11.6527 84.1507 13.4436 86.3599 13.4436Z" fill="url(#paint13_linear_10943_1129)"/>
<path d="M152.316 103.494C151.926 101.902 153.337 100.466 154.853 100.911L158.134 101.873C159.649 102.317 160.134 104.306 159.007 105.454L156.567 107.939C155.44 109.086 153.546 108.532 153.158 106.941L152.316 103.494Z" fill="url(#paint14_linear_10943_1129)"/>
<path d="M17.4779 101.544C19.0036 101.14 20.3746 102.61 19.9468 104.19L19.0203 107.614C18.5922 109.196 16.6836 109.702 15.5857 108.525L13.2079 105.976C12.1099 104.8 12.6466 102.822 14.1736 102.418L17.4779 101.544Z" fill="url(#paint15_linear_10943_1129)"/>
<path fill-rule="evenodd" clip-rule="evenodd" d="M157.333 38.5599C158.595 38.5599 159.618 37.5365 159.618 36.2742C159.618 35.0118 158.595 33.9885 157.333 33.9885C156.07 33.9885 155.047 35.0118 155.047 36.2742C155.047 37.5365 156.07 38.5599 157.333 38.5599ZM157.333 40.2742C159.542 40.2742 161.333 38.4833 161.333 36.2742C161.333 34.065 159.542 32.2742 157.333 32.2742C155.123 32.2742 153.333 34.065 153.333 36.2742C153.333 38.4833 155.123 40.2742 157.333 40.2742Z" fill="url(#paint16_linear_10943_1129)"/>
<defs>
<linearGradient id="paint0_linear_10943_1129" x1="84.3448" y1="-27.6781" x2="86.086" y2="270.829" gradientUnits="userSpaceOnUse">
<stop stop-color="#CAE0FF" stop-opacity="0"/>
<stop offset="1" stop-color="#BCD8FF"/>
</linearGradient>
<linearGradient id="paint1_linear_10943_1129" x1="111.5" y1="133" x2="111.5" y2="150" gradientUnits="userSpaceOnUse">
<stop stop-color="#FFE070"/>
<stop offset="1" stop-color="#5597FD"/>
</linearGradient>
<linearGradient id="paint2_linear_10943_1129" x1="64.7161" y1="109.608" x2="108.486" y2="125.902" gradientUnits="userSpaceOnUse">
<stop stop-color="#E0ECFF"/>
<stop offset="1" stop-color="#7FB2FF"/>
</linearGradient>
<linearGradient id="paint3_linear_10943_1129" x1="63.7767" y1="72.1779" x2="79.9244" y2="96.5329" gradientUnits="userSpaceOnUse">
<stop stop-color="#E0ECFF"/>
<stop offset="1" stop-color="#7FB2FF"/>
</linearGradient>
<linearGradient id="paint4_linear_10943_1129" x1="63.3485" y1="59.0152" x2="78.679" y2="83.3597" gradientUnits="userSpaceOnUse">
<stop stop-color="#E0ECFF"/>
<stop offset="1" stop-color="#7FB2FF"/>
</linearGradient>
<linearGradient id="paint5_linear_10943_1129" x1="134.276" y1="48.762" x2="134.276" y2="68.9671" gradientUnits="userSpaceOnUse">
<stop stop-color="#FFF0CD"/>
<stop offset="0.557292" stop-color="#FED87F"/>
<stop offset="1" stop-color="#FFC839"/>
</linearGradient>
<linearGradient id="paint6_linear_10943_1129" x1="35.3847" y1="48.762" x2="35.3847" y2="68.9671" gradientUnits="userSpaceOnUse">
<stop stop-color="#FFF0CD"/>
<stop offset="0.557292" stop-color="#FED87F"/>
<stop offset="1" stop-color="#FFC839"/>
</linearGradient>
<linearGradient id="paint7_linear_10943_1129" x1="108.804" y1="31" x2="108.804" y2="59.8164" gradientUnits="userSpaceOnUse">
<stop stop-color="#FFF0CD"/>
<stop offset="0.557292" stop-color="#FED87F"/>
<stop offset="1" stop-color="#FFC839"/>
</linearGradient>
<linearGradient id="paint8_linear_10943_1129" x1="61.0299" y1="31" x2="61.0299" y2="59.8164" gradientUnits="userSpaceOnUse">
<stop stop-color="#FFF0CD"/>
<stop offset="0.557292" stop-color="#FED87F"/>
<stop offset="1" stop-color="#FFC839"/>
</linearGradient>
<linearGradient id="paint9_linear_10943_1129" x1="84.9048" y1="43.328" x2="84.9048" y2="57.2866" gradientUnits="userSpaceOnUse">
<stop stop-color="#FFF0CD"/>
<stop offset="0.557292" stop-color="#FED87F"/>
<stop offset="1" stop-color="#FFC839"/>
</linearGradient>
<linearGradient id="paint10_linear_10943_1129" x1="85.1886" y1="56.3073" x2="85.1886" y2="138" gradientUnits="userSpaceOnUse">
<stop stop-color="#FFF0CD"/>
<stop offset="0.557292" stop-color="#FED87F"/>
<stop offset="1" stop-color="#FFC839"/>
</linearGradient>
<linearGradient id="paint11_linear_10943_1129" x1="85" y1="82" x2="85" y2="108" gradientUnits="userSpaceOnUse">
<stop stop-color="#FFF0CD"/>
<stop offset="0.557292" stop-color="#FED87F"/>
<stop offset="1" stop-color="#FFC839"/>
</linearGradient>
<linearGradient id="paint12_linear_10943_1129" x1="24.0012" y1="15.4436" x2="24.0012" y2="45.7897" gradientUnits="userSpaceOnUse">
<stop stop-color="#FFE070"/>
<stop offset="1" stop-color="#5597FD"/>
</linearGradient>
<linearGradient id="paint13_linear_10943_1129" x1="86.3599" y1="5.4436" x2="86.3599" y2="13.4436" gradientUnits="userSpaceOnUse">
<stop stop-color="#FFE070"/>
<stop offset="1" stop-color="#5597FD"/>
</linearGradient>
<linearGradient id="paint14_linear_10943_1129" x1="151.44" y1="99.9097" x2="160.272" y2="108.582" gradientUnits="userSpaceOnUse">
<stop stop-color="#FFE070"/>
<stop offset="1" stop-color="#5597FD"/>
</linearGradient>
<linearGradient id="paint15_linear_10943_1129" x1="20.9087" y1="100.636" x2="11.8671" y2="109.071" gradientUnits="userSpaceOnUse">
<stop stop-color="#FFE070"/>
<stop offset="1" stop-color="#5597FD"/>
</linearGradient>
<linearGradient id="paint16_linear_10943_1129" x1="157.333" y1="32.2742" x2="157.333" y2="40.2742" gradientUnits="userSpaceOnUse">
<stop stop-color="#FFE070"/>
<stop offset="1" stop-color="#5597FD"/>
</linearGradient>
</defs>
</svg>
