<svg width="170" height="170" viewBox="0 0 170 170" fill="none" xmlns="http://www.w3.org/2000/svg">
<path d="M85 170C131.944 170 170 131.944 170 85C170 38.0558 131.944 0 85 0C38.0558 0 0 38.0558 0 85C0 131.944 38.0558 170 85 170Z" fill="url(#paint0_linear_10943_1387)"/>
<path d="M147.846 21.4817C158.958 43.1087 129.517 66.198 121.366 70.4758" stroke="#63A0FE" stroke-linecap="round" stroke-linejoin="round" stroke-dasharray="4 4"/>
<path d="M32.938 20.9907C30.8495 29.2989 37.6149 46.7561 48.058 48.1408C67.3811 50.703 63.8324 28.2307 52.305 32.4541C38.5858 37.4804 52.3149 58.9811 71.1128 63.8276" stroke="#629FFE" stroke-linecap="round" stroke-linejoin="round" stroke-dasharray="4 4"/>
<path d="M152.747 60.4545H35.5066L26.2577 80.6702H143.49L152.747 60.4545Z" fill="url(#paint1_linear_10943_1387)"/>
<path d="M145.063 80.67H68.381V157.353H145.063V80.67Z" fill="url(#paint2_linear_10943_1387)"/>
<path d="M102.94 80.67H26.2577V157.353H102.94V80.67Z" fill="url(#paint3_linear_10943_1387)"/>
<ellipse cx="62.5" cy="119" rx="14.5" ry="16" fill="url(#paint4_linear_10943_1387)"/>
<path d="M64.5801 120L68.0092 115.796C68.3304 115.38 68.5064 114.827 68.4998 114.255C68.4932 113.683 68.3044 113.136 67.9737 112.732C67.6429 112.327 67.1962 112.096 66.7285 112.088C66.2608 112.08 65.8089 112.295 65.4689 112.688L62.0322 116.893L58.603 112.688C58.438 112.475 58.2397 112.304 58.0197 112.186C57.7997 112.067 57.5626 112.004 57.3224 112C57.0821 111.996 56.8437 112.051 56.6211 112.161C56.3984 112.272 56.1962 112.436 56.0263 112.644C55.8564 112.852 55.7223 113.099 55.632 113.371C55.5416 113.644 55.4968 113.935 55.5002 114.229C55.5036 114.523 55.5551 114.813 55.6518 115.082C55.7484 115.351 55.8882 115.594 56.0628 115.796L59.4977 120L56.0628 124.204C55.8882 124.406 55.7484 124.649 55.6518 124.918C55.5551 125.187 55.5036 125.477 55.5002 125.771C55.4968 126.065 55.5416 126.356 55.632 126.629C55.7223 126.901 55.8564 127.148 56.0263 127.356C56.1962 127.564 56.3984 127.728 56.6211 127.839C56.8437 127.949 57.0821 128.004 57.3224 128C57.5626 127.996 57.7997 127.933 58.0197 127.814C58.2397 127.696 58.438 127.525 58.603 127.312L62.0398 123.107L65.4766 127.312C65.8198 127.681 66.2654 127.877 66.7225 127.859C67.1797 127.841 67.6139 127.61 67.9369 127.214C68.2598 126.818 68.447 126.286 68.4605 125.727C68.4739 125.167 68.3125 124.623 68.0092 124.204L64.5801 120Z" fill="white"/>
<path d="M93.6825 57.3997H17L26.2574 80.6701H102.931L93.6825 57.3997Z" fill="url(#paint5_linear_10943_1387)"/>
<path d="M154.313 57.3996H112.189L102.931 80.6701H145.055L154.313 57.3996Z" fill="url(#paint6_linear_10943_1387)"/>
<path fill-rule="evenodd" clip-rule="evenodd" d="M147.301 5.404C145.215 1.74683 141.342 0.0264978 138.651 1.56151C135.961 3.09653 135.471 7.30561 137.557 10.9628C137.643 11.1128 137.559 11.3063 137.395 11.3614C136.16 11.7776 135.043 13.0415 134.581 14.729C133.933 17.1002 134.824 19.4099 136.572 19.888C138.32 20.366 140.262 18.8313 140.911 16.4601C141.13 15.6585 142.085 15.0653 142.897 15.2417C144.062 15.4946 145.215 15.3712 146.207 14.8053C147.188 14.2452 147.877 13.3292 148.255 12.2139C148.451 11.6343 149.116 11.2825 149.707 11.4439C152.078 12.0925 154.388 11.2013 154.866 9.45341C155.344 7.70554 153.809 5.76286 151.438 5.11433C150.002 4.72162 148.589 4.89348 147.591 5.47823C147.49 5.53718 147.359 5.50525 147.301 5.404Z" fill="url(#paint7_linear_10943_1387)"/>
<path fill-rule="evenodd" clip-rule="evenodd" d="M38.5768 17.6513C38.3102 17.2871 37.7687 17.2075 37.4117 17.4835C36.3206 18.3273 35.0515 18.7337 33.7724 18.5356C32.4922 18.3373 31.4048 17.5649 30.6198 16.4289C30.19 15.8069 29.1819 15.6544 28.5718 16.1009C26.588 17.5526 24.1122 17.544 23.0421 16.0817C21.972 14.6193 22.7127 12.257 24.6965 10.8052C25.2743 10.3824 25.8939 10.0835 26.5082 9.90825C27.9004 9.51117 29.6496 8.57737 30.2865 7.27728C31.5468 4.70422 33.8104 3.11248 36.1061 3.46804C38.574 3.85026 40.3257 6.36617 40.5745 9.50706C40.6674 10.68 41.5235 11.7574 42.4928 12.4243C42.997 12.7712 43.4697 13.2258 43.8724 13.776C45.3241 15.7599 45.3155 18.2356 43.8532 19.3057C42.3908 20.3758 40.0285 19.6351 38.5768 17.6513Z" fill="url(#paint8_linear_10943_1387)"/>
<path d="M8.15945 95.6228C7.76192 94.0636 9.2013 92.6588 10.7503 93.0941L18.3772 95.2374C19.9262 95.6727 20.4231 97.6216 19.2716 98.7455L13.6021 104.279C12.4506 105.403 10.5143 104.859 10.1168 103.299L8.15945 95.6228Z" fill="url(#paint9_linear_10943_1387)"/>
<path d="M125.143 36.1628C126.703 35.7673 128.106 37.2085 127.668 38.757L125.515 46.381C125.078 47.9295 123.128 48.4239 122.006 47.2709L116.48 41.5943C115.358 40.4413 115.904 38.5057 117.464 38.1102L125.143 36.1628Z" fill="url(#paint10_linear_10943_1387)"/>
<path d="M125.468 129.417C125.983 127.284 129.017 127.284 129.532 129.417L130.214 132.244C130.398 133.007 130.993 133.602 131.756 133.786L134.583 134.468C136.716 134.983 136.716 138.017 134.583 138.532L131.756 139.214C130.993 139.398 130.398 139.993 130.214 140.756L129.532 143.583C129.017 145.716 125.983 145.716 125.468 143.583L124.786 140.756C124.602 139.993 124.007 139.398 123.244 139.214L120.417 138.532C118.284 138.017 118.284 134.983 120.417 134.468L123.244 133.786C124.007 133.602 124.602 133.007 124.786 132.244L125.468 129.417Z" fill="url(#paint11_linear_10943_1387)"/>
<defs>
<linearGradient id="paint0_linear_10943_1387" x1="84.3448" y1="-27.6781" x2="86.086" y2="270.829" gradientUnits="userSpaceOnUse">
<stop stop-color="#CAE0FF" stop-opacity="0"/>
<stop offset="1" stop-color="#BCD8FF"/>
</linearGradient>
<linearGradient id="paint1_linear_10943_1387" x1="89.5026" y1="60.4545" x2="89.5026" y2="80.6702" gradientUnits="userSpaceOnUse">
<stop stop-color="#2A64BE"/>
<stop offset="1" stop-color="#6095E7"/>
</linearGradient>
<linearGradient id="paint2_linear_10943_1387" x1="66.0785" y1="138.173" x2="176.866" y2="139.924" gradientUnits="userSpaceOnUse">
<stop offset="0.392237" stop-color="#5597FD"/>
<stop offset="1" stop-color="#E9FCFF"/>
</linearGradient>
<linearGradient id="paint3_linear_10943_1387" x1="47.4078" y1="123.009" x2="89.0226" y2="133.854" gradientUnits="userSpaceOnUse">
<stop stop-color="#E0ECFF"/>
<stop offset="1" stop-color="#7FB2FF"/>
</linearGradient>
<linearGradient id="paint4_linear_10943_1387" x1="48.1387" y1="105.153" x2="79.6603" y2="132.006" gradientUnits="userSpaceOnUse">
<stop stop-color="#FF698D"/>
<stop offset="1" stop-color="#FF3868"/>
</linearGradient>
<linearGradient id="paint5_linear_10943_1387" x1="59.9657" y1="57.3997" x2="59.9657" y2="80.6701" gradientUnits="userSpaceOnUse">
<stop stop-color="#8FB3EC"/>
<stop offset="1" stop-color="#AECEFF"/>
</linearGradient>
<linearGradient id="paint6_linear_10943_1387" x1="128.622" y1="57.3996" x2="128.622" y2="80.6701" gradientUnits="userSpaceOnUse">
<stop stop-color="#8FB3EC"/>
<stop offset="1" stop-color="#AECEFF"/>
</linearGradient>
<linearGradient id="paint7_linear_10943_1387" x1="144.661" y1="1" x2="144.661" y2="19.9752" gradientUnits="userSpaceOnUse">
<stop stop-color="#70A8FF"/>
<stop offset="1" stop-color="#5597FD"/>
</linearGradient>
<linearGradient id="paint8_linear_10943_1387" x1="41.6892" y1="8.05804" x2="27.7837" y2="21.1464" gradientUnits="userSpaceOnUse">
<stop stop-color="#70A8FF"/>
<stop offset="1" stop-color="#5597FD"/>
</linearGradient>
<linearGradient id="paint9_linear_10943_1387" x1="7.265" y1="92.1147" x2="19.4941" y2="104.645" gradientUnits="userSpaceOnUse">
<stop stop-color="#70A8FF"/>
<stop offset="1" stop-color="#5597FD"/>
</linearGradient>
<linearGradient id="paint10_linear_10943_1387" x1="128.652" y1="35.2729" x2="116.107" y2="47.4858" gradientUnits="userSpaceOnUse">
<stop stop-color="#70A8FF"/>
<stop offset="1" stop-color="#5597FD"/>
</linearGradient>
<linearGradient id="paint11_linear_10943_1387" x1="127.5" y1="121" x2="127.5" y2="152" gradientUnits="userSpaceOnUse">
<stop stop-color="#70A8FF"/>
<stop offset="1" stop-color="#5597FD"/>
</linearGradient>
</defs>
</svg>
