<svg width="184" height="176" viewBox="0 0 184 176" fill="none" xmlns="http://www.w3.org/2000/svg">
<g filter="url(#filter0_f_5786_5917)">
<ellipse cx="92.0487" cy="140.058" rx="69.3839" ry="13.7502" fill="#1F88F8" fill-opacity="0.35"/>
</g>
<path d="M94.617 156.856C134.355 156.856 166.569 123.763 166.569 82.9408C166.569 42.1187 134.355 9.02588 94.617 9.02588C54.8789 9.02588 22.6648 42.1187 22.6648 82.9408C22.6648 123.763 54.8789 156.856 94.617 156.856Z" fill="url(#paint0_linear_5786_5917)"/>
<path d="M150.278 38.9053H58.8867V85.2364H150.278V38.9053Z" fill="url(#paint1_linear_5786_5917)"/>
<path d="M150.279 38.9053H159.452C165.432 38.9053 171.167 41.3456 175.396 45.6895C179.624 50.0334 182 55.925 182 62.0681C182 68.2113 179.624 74.1029 175.396 78.4467C171.167 82.7906 165.432 85.231 159.452 85.231H150.279V38.9053Z" fill="url(#paint2_linear_5786_5917)"/>
<path d="M156.211 45.7197H161.459C165.495 45.7197 169.366 47.3668 172.22 50.2985C175.074 53.2302 176.677 57.2065 176.677 61.3526V62.7877C176.677 66.9338 175.074 70.91 172.22 73.8418C169.366 76.7735 165.495 78.4205 161.459 78.4205H156.211V45.7197Z" fill="url(#paint3_linear_5786_5917)"/>
<path d="M150.278 46.6772H66.5615V85.2329H150.278V46.6772Z" fill="url(#paint4_linear_5786_5917)"/>
<rect x="37.0508" y="92.9487" width="33.9417" height="44.6549" fill="url(#paint5_linear_5786_5917)"/>
<rect x="78.7332" y="92.9487" width="33.9417" height="44.6549" fill="url(#paint6_linear_5786_5917)"/>
<rect x="120.417" y="92.9487" width="22.0323" height="44.6549" fill="url(#paint7_linear_5786_5917)"/>
<path d="M150.279 38.9053H142.476V85.2364H150.279V38.9053Z" fill="url(#paint8_linear_5786_5917)"/>
<path d="M78.7338 84.9949L70.9927 84.9949L70.9927 145.554L78.7338 145.554L78.7338 84.9949Z" fill="url(#paint9_linear_5786_5917)"/>
<path fill-rule="evenodd" clip-rule="evenodd" d="M34.0558 84.9949H37.3824L37.3824 145.554H34.0558C31.4345 145.554 29.3096 143.429 29.3096 140.808L29.3096 89.7411C29.3096 87.1198 31.4346 84.9949 34.0558 84.9949ZM116.248 92.9472V84.995H37.3825V92.9472H116.248ZM116.248 145.555V137.603H37.3825V145.555H116.248Z" fill="url(#paint10_linear_5786_5917)"/>
<path fill-rule="evenodd" clip-rule="evenodd" d="M120.416 84.9949H112.675L112.675 145.554H120.415V145.555H142.448L142.448 145.554H145.443C148.064 145.554 150.189 143.429 150.189 140.808L150.189 84.995L142.448 84.995H120.416V84.9949ZM142.448 92.9472H120.416L120.416 137.603H142.448V92.9472Z" fill="url(#paint11_linear_5786_5917)"/>
<path d="M65.011 85.3333V85.4206V88.1761V108.251H85.9828C86.507 108.251 86.932 107.826 86.932 107.301V88.1761V86.2825C86.932 85.7582 86.507 85.3333 85.9828 85.3333H65.011Z" fill="url(#paint12_linear_5786_5917)"/>
<path d="M64.0745 85.3333C63.5502 85.3333 63.1252 85.7582 63.1252 86.2825V107.301C63.1252 107.826 63.5502 108.251 64.0745 108.251H85.0463V85.3333H64.0745Z" fill="url(#paint13_linear_5786_5917)"/>
<g filter="url(#filter1_d_5786_5917)">
<path d="M24.5461 69.8226L32.7898 90.6501C32.9024 90.9356 33.0687 91.1955 33.2793 91.4148C33.4898 91.6341 33.7405 91.8086 34.0168 91.9283C34.2931 92.0479 34.5897 92.1103 34.8896 92.1119C35.1895 92.1136 35.4867 92.0544 35.7643 91.9378L54.238 84.2278C54.7998 83.9929 55.2478 83.5386 55.4839 82.9647C55.7199 82.3908 55.7246 81.7441 55.4969 81.1667L45.9679 57.0926C45.7393 56.5169 45.2977 56.0579 44.74 55.8165C44.1823 55.575 43.5541 55.5708 42.9934 55.8048L27.6428 62.2162L24.5461 69.8226Z" fill="url(#paint14_linear_5786_5917)"/>
</g>
<g filter="url(#filter2_d_5786_5917)">
<path d="M155.107 57.5902L146.864 78.4176C146.751 78.7032 146.585 78.963 146.374 79.1824C146.163 79.4017 145.913 79.5762 145.637 79.6958C145.36 79.8155 145.064 79.8779 144.764 79.8795C144.464 79.8812 144.167 79.822 143.889 79.7054L125.415 71.9953C124.854 71.7605 124.405 71.3062 124.169 70.7323C123.933 70.1584 123.929 69.5117 124.156 68.9342L133.685 44.8602C133.914 44.2845 134.356 43.8255 134.913 43.5841C135.471 43.3426 136.099 43.3384 136.66 43.5724L152.011 49.9838L155.107 57.5902Z" fill="url(#paint15_linear_5786_5917)"/>
</g>
<path d="M24.5461 69.8256L29.7887 67.6375L27.6481 62.2192L24.5461 69.8256Z" fill="url(#paint16_linear_5786_5917)"/>
<path d="M155.107 57.5883L149.865 55.4002L152.005 49.9819L155.107 57.5883Z" fill="url(#paint17_linear_5786_5917)"/>
<path d="M124.384 35.5687C124.384 36.427 124.259 37.2804 124.013 38.1005C123.613 39.4155 122.908 40.6105 121.957 41.5817C121.678 41.872 121.378 42.1401 121.059 42.3838C120.85 42.5515 120.63 42.7046 120.401 42.8422C120.172 42.9861 119.936 43.1172 119.694 43.2351C119.333 43.4182 118.958 43.5715 118.573 43.6934C117.775 43.9465 116.944 44.0753 116.109 44.0754H114.568V85.081H71.5444V34.6793C71.5514 32.6627 72.3343 30.7308 73.7224 29.3048C75.1105 27.8789 76.9911 27.0746 78.9541 27.0674H116.088C117.122 27.0634 118.148 27.2615 119.11 27.6513C119.377 27.7576 119.637 27.8797 119.891 28.0169C120.018 28.0824 120.14 28.1533 120.263 28.2297C120.363 28.2863 120.46 28.3482 120.555 28.4152C121.057 28.7413 121.522 29.1238 121.941 29.5556C122.504 30.1354 122.984 30.795 123.364 31.5145C123.622 31.9994 123.832 32.5093 123.991 33.0369L124.103 33.4461C124.171 33.7195 124.226 33.9963 124.267 34.2755C124.339 34.7028 124.378 35.1352 124.384 35.5687Z" fill="url(#paint18_linear_5786_5917)"/>
<path d="M124.384 35.5692C124.384 36.4275 124.258 37.2809 124.012 38.1011C123.849 38.6272 123.639 39.1368 123.385 39.6234C123 40.3419 122.52 41.0013 121.956 41.5823C121.677 41.8725 121.377 42.1407 121.059 42.3844C120.846 42.5481 120.628 42.6954 120.4 42.8428C120.172 42.9866 119.936 43.1178 119.694 43.2356C119.331 43.4164 118.957 43.5696 118.573 43.694C117.774 43.9471 116.944 44.0758 116.108 44.0759H114.568V34.6798C114.571 33.1773 115.006 31.7091 115.818 30.459C116.629 29.2089 117.781 28.2325 119.131 27.6519C119.396 27.761 119.662 27.881 119.911 28.0174C120.039 28.0829 120.161 28.1539 120.283 28.2302C120.384 28.2869 120.481 28.3488 120.575 28.4158C121.077 28.7418 121.542 29.1243 121.962 29.5562C122.525 30.1359 123.004 30.7956 123.385 31.5151C123.64 32.001 123.85 32.5107 124.012 33.0374L124.123 33.4467C124.193 33.7199 124.248 33.9968 124.288 34.276C124.352 34.7039 124.384 35.1363 124.384 35.5692Z" fill="url(#paint19_linear_5786_5917)"/>
<path d="M105.979 70.1533H78.8101C78.3554 70.1533 77.9868 70.5308 77.9868 70.9963C77.9868 71.4619 78.3554 71.8394 78.8101 71.8394H105.979C106.434 71.8394 106.802 71.4619 106.802 70.9963C106.802 70.5308 106.434 70.1533 105.979 70.1533Z" fill="#A5C4F1"/>
<path d="M105.979 61.5059H78.8101C78.3554 61.5059 77.9868 61.8833 77.9868 62.3489C77.9868 62.8145 78.3554 63.1919 78.8101 63.1919H105.979C106.434 63.1919 106.802 62.8145 106.802 62.3489C106.802 61.8833 106.434 61.5059 105.979 61.5059Z" fill="#A5C4F1"/>
<path d="M105.979 52.8521H88.4825C88.0278 52.8521 87.6592 53.2295 87.6592 53.6951C87.6592 54.1607 88.0278 54.5381 88.4825 54.5381H105.979C106.434 54.5381 106.802 54.1607 106.802 53.6951C106.802 53.2295 106.434 52.8521 105.979 52.8521Z" fill="#A5C4F1"/>
<path d="M94.5006 44.1948H78.6189C78.2698 44.1948 77.9868 44.4855 77.9868 44.8441V45.2316C77.9868 45.5902 78.2698 45.8809 78.6189 45.8809H94.5006C94.8497 45.8809 95.1327 45.5902 95.1327 45.2316V44.8441C95.1327 44.4855 94.8497 44.1948 94.5006 44.1948Z" fill="#A5C4F1"/>
<path d="M84.6529 52.8521H78.8101C78.3554 52.8521 77.9868 53.2295 77.9868 53.6951C77.9868 54.1607 78.3554 54.5381 78.8101 54.5381H84.6529C85.1076 54.5381 85.4762 54.1607 85.4762 53.6951C85.4762 53.2295 85.1076 52.8521 84.6529 52.8521Z" fill="#A5C4F1"/>
<g filter="url(#filter3_f_5786_5917)">
<ellipse cx="47.492" cy="55.2637" rx="22.9459" ry="7.57665" fill="#FF4C77" fill-opacity="0.3"/>
</g>
<path d="M25.9751 44.2258C26.4177 47.6197 27.6898 50.8433 29.6729 53.5956C31.656 56.348 34.2854 58.5395 37.3158 59.9658C40.3463 61.3921 43.679 62.0066 47.0031 61.752C50.3272 61.4975 53.5345 60.3822 56.3256 58.5101L63.9299 61.1658C64.1593 61.2434 64.4056 61.252 64.6396 61.1904C64.8735 61.1289 65.0855 60.9997 65.2503 60.8184C65.4151 60.637 65.5258 60.4109 65.5695 60.1669C65.6132 59.9228 65.5879 59.6711 65.4967 59.4413L62.4471 51.9686C64.069 49.1929 65.0201 46.0585 65.2208 42.8277C65.4214 39.5969 64.8658 36.3637 63.6004 33.3988C62.335 30.4339 60.3966 27.8235 57.9476 25.7861C55.4985 23.7487 52.61 22.3436 49.5238 21.6885C46.4376 21.0333 43.2435 21.1471 40.2089 22.0203C37.1743 22.8935 34.3875 24.5008 32.0817 26.7076C29.7759 28.9143 28.0182 31.6564 26.9558 34.7042C25.8934 37.7521 25.5571 41.017 25.9751 44.2258Z" fill="url(#paint20_linear_5786_5917)"/>
<path d="M45.0141 51.9061C47.1566 51.9061 48.6827 50.3986 48.6827 48.2882C48.6827 46.1777 47.1566 44.6702 45.0141 44.6702C42.901 44.6702 41.3455 46.1777 41.3455 48.2882C41.3455 50.3986 42.901 51.9061 45.0141 51.9061ZM47.949 44.0672C47.949 42.0774 49.0643 41.3538 50.5904 40.6302C52.6155 39.6654 54.1122 37.7057 54.1122 35.2938C54.1122 31.4949 50.473 28.8418 45.5424 28.8418C40.2596 28.8418 36.5323 31.8869 36.2095 36.138L42.9597 37.4042C43.1358 35.746 43.9869 34.5702 45.1902 34.5702C46.1 34.5702 46.775 35.2033 46.775 36.0777C46.775 37.1027 45.7772 37.7359 44.9848 38.2183C42.8717 39.6353 42.0792 41.2031 42.0792 44.0672H47.949Z" fill="white"/>
<path d="M143.176 29.7104C143.176 31.192 142.016 32.3326 140.658 32.3326C139.3 32.3326 138.14 31.192 138.14 29.7104C138.14 28.2288 139.3 27.0881 140.658 27.0881C142.016 27.0881 143.176 28.2288 143.176 29.7104Z" stroke="url(#paint21_linear_5786_5917)" stroke-width="2.61276"/>
<path d="M125.611 152.791C125.611 154.273 124.451 155.414 123.093 155.414C121.736 155.414 120.575 154.273 120.575 152.791C120.575 151.31 121.736 150.169 123.093 150.169C124.451 150.169 125.611 151.31 125.611 152.791Z" stroke="url(#paint22_linear_5786_5917)" stroke-width="2.61276"/>
<path d="M20.9986 113.101C22.3029 112.886 23.339 114.196 22.8678 115.464L21.6154 118.832C21.1422 120.105 19.5053 120.381 18.6723 119.328L16.4584 116.529C15.6254 115.476 16.2227 113.886 17.5323 113.671L20.9986 113.101Z" fill="url(#paint23_linear_5786_5917)"/>
<path d="M160.924 109.351C160.597 108.034 161.782 106.847 163.055 107.214L166.435 108.19C167.708 108.558 168.115 110.203 167.169 111.152L164.656 113.671C163.71 114.62 162.118 114.162 161.792 112.845L160.924 109.351Z" fill="url(#paint24_linear_5786_5917)"/>
<path d="M87.0625 8.66215C87.5676 6.51274 90.627 6.51273 91.1321 8.66215L91.3548 9.61007C91.5342 10.3733 92.1255 10.972 92.8865 11.1607L94.028 11.4438C96.1442 11.9685 96.1442 14.9765 94.028 15.5013L92.8865 15.7844C92.1255 15.9731 91.5342 16.5717 91.3548 17.335L91.1321 18.2829C90.627 20.4323 87.5676 20.4323 87.0625 18.2829L86.8397 17.335C86.6604 16.5717 86.069 15.9731 85.3081 15.7844L84.1665 15.5013C82.0504 14.9765 82.0504 11.9685 84.1665 11.4438L85.3081 11.1607C86.069 10.972 86.6604 10.3733 86.8397 9.61007L87.0625 8.66215Z" fill="url(#paint25_linear_5786_5917)"/>
<path d="M53.8149 151.72C54.32 149.571 57.3794 149.571 57.8845 151.72L58.1072 152.668C58.2866 153.431 58.878 154.03 59.6389 154.219L60.7805 154.502C62.8966 155.026 62.8966 158.034 60.7805 158.559L59.6389 158.842C58.878 159.031 58.2866 159.63 58.1072 160.393L57.8845 161.341C57.3794 163.49 54.32 163.49 53.8149 161.341L53.5922 160.393C53.4128 159.63 52.8215 159.031 52.0605 158.842L50.919 158.559C48.8028 158.034 48.8028 155.026 50.919 154.502L52.0605 154.219C52.8215 154.03 53.4128 153.431 53.5922 152.668L53.8149 151.72Z" fill="url(#paint26_linear_5786_5917)"/>
<defs>
<filter id="filter0_f_5786_5917" x="0.8918" y="104.535" width="182.314" height="71.0465" filterUnits="userSpaceOnUse" color-interpolation-filters="sRGB">
<feFlood flood-opacity="0" result="BackgroundImageFix"/>
<feBlend mode="normal" in="SourceGraphic" in2="BackgroundImageFix" result="shape"/>
<feGaussianBlur stdDeviation="10.8865" result="effect1_foregroundBlur_5786_5917"/>
</filter>
<filter id="filter1_d_5786_5917" x="21.6984" y="55.6323" width="50.1032" height="56.414" filterUnits="userSpaceOnUse" color-interpolation-filters="sRGB">
<feFlood flood-opacity="0" result="BackgroundImageFix"/>
<feColorMatrix in="SourceAlpha" type="matrix" values="0 0 0 0 0 0 0 0 0 0 0 0 0 0 0 0 0 0 127 0" result="hardAlpha"/>
<feOffset dx="6.64476" dy="10.4418"/>
<feGaussianBlur stdDeviation="4.74626"/>
<feComposite in2="hardAlpha" operator="out"/>
<feColorMatrix type="matrix" values="0 0 0 0 0.184314 0 0 0 0 0.254902 0 0 0 0 0.443137 0 0 0 0.15 0"/>
<feBlend mode="normal" in2="BackgroundImageFix" result="effect1_dropShadow_5786_5917"/>
<feBlend mode="normal" in="SourceGraphic" in2="effect1_dropShadow_5786_5917" result="shape"/>
</filter>
<filter id="filter2_d_5786_5917" x="121.141" y="43.3999" width="50.1032" height="56.414" filterUnits="userSpaceOnUse" color-interpolation-filters="sRGB">
<feFlood flood-opacity="0" result="BackgroundImageFix"/>
<feColorMatrix in="SourceAlpha" type="matrix" values="0 0 0 0 0 0 0 0 0 0 0 0 0 0 0 0 0 0 127 0" result="hardAlpha"/>
<feOffset dx="6.64476" dy="10.4418"/>
<feGaussianBlur stdDeviation="4.74626"/>
<feComposite in2="hardAlpha" operator="out"/>
<feColorMatrix type="matrix" values="0 0 0 0 0.184314 0 0 0 0 0.254902 0 0 0 0 0.443137 0 0 0 0.15 0"/>
<feBlend mode="normal" in2="BackgroundImageFix" result="effect1_dropShadow_5786_5917"/>
<feBlend mode="normal" in="SourceGraphic" in2="effect1_dropShadow_5786_5917" result="shape"/>
</filter>
<filter id="filter3_f_5786_5917" x="2.77315" y="25.914" width="89.4378" height="58.6993" filterUnits="userSpaceOnUse" color-interpolation-filters="sRGB">
<feFlood flood-opacity="0" result="BackgroundImageFix"/>
<feBlend mode="normal" in="SourceGraphic" in2="BackgroundImageFix" result="shape"/>
<feGaussianBlur stdDeviation="10.8865" result="effect1_foregroundBlur_5786_5917"/>
</filter>
<linearGradient id="paint0_linear_5786_5917" x1="94.0624" y1="-15.0426" x2="95.6178" y2="244.535" gradientUnits="userSpaceOnUse">
<stop stop-color="#CAE0FF" stop-opacity="0"/>
<stop offset="1" stop-color="#BCD8FF"/>
</linearGradient>
<linearGradient id="paint1_linear_5786_5917" x1="104.583" y1="38.9053" x2="104.583" y2="85.2364" gradientUnits="userSpaceOnUse">
<stop stop-color="#ABCCFF"/>
<stop offset="1" stop-color="#70A8FF"/>
</linearGradient>
<linearGradient id="paint2_linear_5786_5917" x1="166.14" y1="38.9053" x2="166.14" y2="85.231" gradientUnits="userSpaceOnUse">
<stop stop-color="#70A8FF"/>
<stop offset="1" stop-color="#5597FD"/>
</linearGradient>
<linearGradient id="paint3_linear_5786_5917" x1="179.666" y1="79.491" x2="158.721" y2="52.5063" gradientUnits="userSpaceOnUse">
<stop stop-color="#EDF4FF"/>
<stop offset="1" stop-color="#ABCCFF"/>
</linearGradient>
<linearGradient id="paint4_linear_5786_5917" x1="108.42" y1="46.6772" x2="108.42" y2="85.2329" gradientUnits="userSpaceOnUse">
<stop stop-color="#2A64BE"/>
<stop offset="1" stop-color="#6095E7"/>
</linearGradient>
<linearGradient id="paint5_linear_5786_5917" x1="80.2222" y1="154.12" x2="37.4855" y2="114.895" gradientUnits="userSpaceOnUse">
<stop stop-color="#EDF4FF"/>
<stop offset="1" stop-color="#ABCCFF"/>
</linearGradient>
<linearGradient id="paint6_linear_5786_5917" x1="114.461" y1="141.58" x2="72.456" y2="124.64" gradientUnits="userSpaceOnUse">
<stop stop-color="#EDF4FF"/>
<stop offset="1" stop-color="#ABCCFF"/>
</linearGradient>
<linearGradient id="paint7_linear_5786_5917" x1="151.382" y1="142.497" x2="111.694" y2="105.944" gradientUnits="userSpaceOnUse">
<stop stop-color="#EDF4FF"/>
<stop offset="1" stop-color="#ABCCFF"/>
</linearGradient>
<linearGradient id="paint8_linear_5786_5917" x1="146.378" y1="38.9053" x2="146.378" y2="85.2364" gradientUnits="userSpaceOnUse">
<stop stop-color="#ABCCFF"/>
<stop offset="1" stop-color="#70A8FF"/>
</linearGradient>
<linearGradient id="paint9_linear_5786_5917" x1="61.4652" y1="103.652" x2="55.8129" y2="157.146" gradientUnits="userSpaceOnUse">
<stop stop-color="#ABCCFF"/>
<stop offset="1" stop-color="#70A8FF"/>
</linearGradient>
<linearGradient id="paint10_linear_5786_5917" x1="27.8209" y1="95.7" x2="113.764" y2="134.312" gradientUnits="userSpaceOnUse">
<stop stop-color="#ABCCFF"/>
<stop offset="1" stop-color="#70A8FF"/>
</linearGradient>
<linearGradient id="paint11_linear_5786_5917" x1="179.664" y1="122.616" x2="126.367" y2="124.355" gradientUnits="userSpaceOnUse">
<stop stop-color="#70A8FF"/>
<stop offset="1" stop-color="#5597FD"/>
</linearGradient>
<linearGradient id="paint12_linear_5786_5917" x1="75.9715" y1="85.3333" x2="75.9715" y2="108.251" gradientUnits="userSpaceOnUse">
<stop stop-color="#70A8FF"/>
<stop offset="1" stop-color="#5597FD"/>
</linearGradient>
<linearGradient id="paint13_linear_5786_5917" x1="74.0857" y1="85.3333" x2="74.0857" y2="108.251" gradientUnits="userSpaceOnUse">
<stop stop-color="#ABCCFF"/>
<stop offset="1" stop-color="#70A8FF"/>
</linearGradient>
<linearGradient id="paint14_linear_5786_5917" x1="52.2872" y1="71.8675" x2="31.3244" y2="69.83" gradientUnits="userSpaceOnUse">
<stop stop-color="#C6DDFF"/>
<stop offset="1" stop-color="white"/>
</linearGradient>
<linearGradient id="paint15_linear_5786_5917" x1="127.366" y1="59.635" x2="148.329" y2="57.5976" gradientUnits="userSpaceOnUse">
<stop stop-color="#C6DDFF"/>
<stop offset="1" stop-color="white"/>
</linearGradient>
<linearGradient id="paint16_linear_5786_5917" x1="27.1674" y1="62.2192" x2="27.1674" y2="69.8256" gradientUnits="userSpaceOnUse">
<stop stop-color="#EDF4FF"/>
<stop offset="1" stop-color="#ABCCFF"/>
</linearGradient>
<linearGradient id="paint17_linear_5786_5917" x1="152.486" y1="49.9819" x2="152.486" y2="57.5883" gradientUnits="userSpaceOnUse">
<stop stop-color="#EDF4FF"/>
<stop offset="1" stop-color="#ABCCFF"/>
</linearGradient>
<linearGradient id="paint18_linear_5786_5917" x1="97.9644" y1="27.0674" x2="97.9644" y2="85.081" gradientUnits="userSpaceOnUse">
<stop stop-color="#EDF4FF"/>
<stop offset="1" stop-color="#ABCCFF"/>
</linearGradient>
<linearGradient id="paint19_linear_5786_5917" x1="120.714" y1="41.8694" x2="108.872" y2="33.0018" gradientUnits="userSpaceOnUse">
<stop stop-color="#EDF4FF"/>
<stop offset="1" stop-color="#ABCCFF"/>
</linearGradient>
<linearGradient id="paint20_linear_5786_5917" x1="25.991" y1="23.9966" x2="66.3076" y2="61.1934" gradientUnits="userSpaceOnUse">
<stop stop-color="#FF698D"/>
<stop offset="1" stop-color="#FF3868"/>
</linearGradient>
<linearGradient id="paint21_linear_5786_5917" x1="135.957" y1="27.255" x2="148.183" y2="37.5693" gradientUnits="userSpaceOnUse">
<stop stop-color="#94BFFF"/>
<stop offset="1" stop-color="#4C94FE"/>
</linearGradient>
<linearGradient id="paint22_linear_5786_5917" x1="118.393" y1="150.336" x2="130.618" y2="160.65" gradientUnits="userSpaceOnUse">
<stop stop-color="#94BFFF"/>
<stop offset="1" stop-color="#4C94FE"/>
</linearGradient>
<linearGradient id="paint23_linear_5786_5917" x1="23.9252" y1="112.619" x2="15.2649" y2="119.47" gradientUnits="userSpaceOnUse">
<stop stop-color="#70A8FF"/>
<stop offset="1" stop-color="#5597FD"/>
</linearGradient>
<linearGradient id="paint24_linear_5786_5917" x1="160.189" y1="106.387" x2="168.031" y2="114.209" gradientUnits="userSpaceOnUse">
<stop stop-color="#70A8FF"/>
<stop offset="1" stop-color="#5597FD"/>
</linearGradient>
<linearGradient id="paint25_linear_5786_5917" x1="89.0973" y1="0.00292969" x2="89.0973" y2="26.9421" gradientUnits="userSpaceOnUse">
<stop stop-color="#70A8FF"/>
<stop offset="1" stop-color="#5597FD"/>
</linearGradient>
<linearGradient id="paint26_linear_5786_5917" x1="55.8497" y1="143.061" x2="55.8497" y2="170" gradientUnits="userSpaceOnUse">
<stop stop-color="#70A8FF"/>
<stop offset="1" stop-color="#5597FD"/>
</linearGradient>
</defs>
</svg>
