<svg width="24" height="24" viewBox="0 0 24 24" fill="none" xmlns="http://www.w3.org/2000/svg">
<path d="M3 5C2.44772 5 2 5.44772 2 6C2 6.55228 2.44772 7 3 7H3.01C3.56228 7 4.01 6.55228 4.01 6C4.01 5.44772 3.56228 5 3.01 5H3Z" fill="white"/>
<path d="M8 5C7.44772 5 7 5.44772 7 6C7 6.55228 7.44772 7 8 7H21C21.5523 7 22 6.55228 22 6C22 5.44772 21.5523 5 21 5H8Z" fill="white"/>
<path d="M8 11C7.44772 11 7 11.4477 7 12C7 12.5523 7.44772 13 8 13H21C21.5523 13 22 12.5523 22 12C22 11.4477 21.5523 11 21 11H8Z" fill="white"/>
<path d="M7 18C7 17.4477 7.44772 17 8 17H21C21.5523 17 22 17.4477 22 18C22 18.5523 21.5523 19 21 19H8C7.44772 19 7 18.5523 7 18Z" fill="white"/>
<path d="M2 12C2 11.4477 2.44772 11 3 11H3.01C3.56228 11 4.01 11.4477 4.01 12C4.01 12.5523 3.56228 13 3.01 13H3C2.44772 13 2 12.5523 2 12Z" fill="white"/>
<path d="M3 17C2.44772 17 2 17.4477 2 18C2 18.5523 2.44772 19 3 19H3.01C3.56228 19 4.01 18.5523 4.01 18C4.01 17.4477 3.56228 17 3.01 17H3Z" fill="white"/>
</svg>
