<svg width="24" height="24" viewBox="0 0 24 24" fill="none" xmlns="http://www.w3.org/2000/svg">
<path fill-rule="evenodd" clip-rule="evenodd" d="M1.25 5C1.25 2.92893 2.92893 1.25 5 1.25H19C21.0711 1.25 22.75 2.92893 22.75 5C22.75 7.07107 21.0711 8.75 19 8.75V19.6667C19 20.7712 18.1046 21.6667 17 21.6667H7C5.89543 21.6667 5 20.7712 5 19.6667V8.75C2.92893 8.75 1.25 7.07107 1.25 5ZM21.25 5C21.25 6.24264 20.2426 7.25 19 7.25V6C19 5.44772 18.5523 5 18 5H6C5.44772 5 5 5.44771 5 6V7.25C3.75736 7.25 2.75 6.24264 2.75 5C2.75 3.75736 3.75736 2.75 5 2.75H19C20.2426 2.75 21.25 3.75736 21.25 5ZM6.5 6.5V19.6667C6.5 19.9428 6.72386 20.1667 7 20.1667H17C17.2761 20.1667 17.5 19.9428 17.5 19.6667V6.5H6.5ZM12 9.33333C12.2761 9.33333 12.5 9.55719 12.5 9.83333V15.6262L15.1464 12.9798C15.3417 12.7845 15.6583 12.7845 15.8536 12.9798C16.0488 13.175 16.0488 13.4916 15.8536 13.6869L12.3536 17.1869C12.1583 17.3821 11.8417 17.3821 11.6464 17.1869L8.14645 13.6869C7.95118 13.4916 7.95118 13.175 8.14645 12.9798C8.34171 12.7845 8.65829 12.7845 8.85355 12.9798L11.5 15.6262V9.83333C11.5 9.55719 11.7239 9.33333 12 9.33333Z" fill="white"/>
</svg>
