<svg width="24" height="24" viewBox="0 0 24 24" fill="none" xmlns="http://www.w3.org/2000/svg">
<path d="M9.87183 13.3956H10.8426C11.5157 13.3956 12.2055 13.3589 12.7996 13.0424C13.6246 12.6031 14.4988 11.7715 14.4988 10.4512" stroke="#EDCE92" stroke-width="0.5"/>
<path d="M8.9104 14.958H11.0829C11.7561 14.958 12.4379 14.9226 13.072 14.6969C14.2595 14.2741 15.8809 13.2348 15.8809 10.4512" stroke="#EDCE92" stroke-width="0.5"/>
<path d="M3.20169 8.28798C2.88121 7.14626 2.84115 4.83879 5.24477 4.74264C8.24929 4.62246 7.64839 4.3821 8.36947 3.42065" stroke="#EDCE92" stroke-width="0.5"/>
<path d="M13.583 6.30487V4.02144M13.583 4.02144V3C12.7418 3.661 13.49 4.92602 10.6987 4.98299C7.75425 5.04308 7.53392 7.26631 7.4538 8.34794C6.73272 8.34794 5.35063 8.34794 3.18738 8.34794C1.26448 9.00905 1.92126 12.374 3.42774 12.374C4.20891 12.374 5.83136 12.374 7.27353 12.374C8.17488 12.8548 7.87443 13.5759 7.27353 13.8763C7.27353 13.8763 6.84088 13.8763 3.42774 13.8763C1.08421 14.8979 2.28602 16.941 3.54792 17.1812M13.583 4.02144H17.6692L16.1669 5.88424C17.8494 6.54534 21.0943 4.74252 21.0943 4.74252C21.0943 4.74252 20.3132 7.26642 18.7508 8.94885H21.9957C21.9957 10.5714 18.7508 11.4727 18.7508 11.4727C18.7508 11.4727 19.8925 12.9148 21.6952 12.9148C21.4549 13.696 19.7123 14.6574 19.7123 14.6574C19.7123 14.6574 21.1544 16.2199 21.9957 16.2199C22.1159 16.2199 19.7123 18.0826 16.4073 18.0826C16.1907 18.0826 17.2285 18.9639 18.0898 19.8252C17.2485 20.4863 14.147 19.4096 14.1238 18.5634C14.1156 18.2631 14.1839 20.7322 14.1839 21.6881C12.7217 21.4277 9.85741 20.8108 9.85741 19.2244C9.85741 17.638 9.79732 20.7267 9.79732 21.0871C7.75425 21.0871 6.85289 18.3832 6.73271 18.4432C6.61253 18.5033 6.67262 19.3045 6.73271 20.6666C5.41072 20.6666 3.54792 18.5633 3.54792 17.1812M3.54792 17.1812H10.1122" stroke="#EDCE92" stroke-width="0.5"/>
<ellipse cx="10.0522" cy="8.88887" rx="0.841266" ry="0.841266" fill="#EDCE92"/>
<path d="M6.02611 10.9319H7.95871C8.07161 10.9319 8.18487 10.9499 8.28931 10.9928C10.2983 11.8178 10.4103 14.2391 8.31849 15.29C8.19562 15.3517 8.05831 15.3786 7.9208 15.3786H3.74268" stroke="#EDCE92" stroke-width="0.5"/>
<path d="M5.60552 8.40811C5.60552 7.74437 5.06745 7.2063 4.40371 7.2063C3.73997 7.2063 3.2019 7.74437 3.2019 8.40811" stroke="#EDCE92" stroke-width="0.5"/>
<path d="M7.46826 8.34797H8.30953C9.05064 7.62689 10.4728 6.31692 11.6746 7.08614C13.0567 7.97075 12.2755 12.4342 8.67007 9.9104" stroke="#EDCE92" stroke-width="0.5"/>
</svg>
