<svg width="100" height="99" viewBox="0 0 100 99" fill="none" xmlns="http://www.w3.org/2000/svg">
<path fill-rule="evenodd" clip-rule="evenodd" d="M25.251 35.0625C25.251 29.3671 29.868 24.75 35.5635 24.75C41.2589 24.75 45.876 29.3671 45.876 35.0625C45.876 40.7579 41.2589 45.375 35.5635 45.375C29.868 45.375 25.251 40.7579 25.251 35.0625ZM35.5635 33C34.4244 33 33.501 33.9234 33.501 35.0625C33.501 36.2016 34.4244 37.125 35.5635 37.125C36.7026 37.125 37.626 36.2016 37.626 35.0625C37.626 33.9234 36.7026 33 35.5635 33Z" fill="white" fill-opacity="0.8"/>
<path fill-rule="evenodd" clip-rule="evenodd" d="M8.75098 20.625C8.75098 13.7905 14.2915 8.24999 21.126 8.24999H78.876C85.7105 8.24999 91.251 13.7905 91.251 20.625V78.375C91.251 85.2095 85.7105 90.75 78.876 90.75H21.126C14.2915 90.75 8.75098 85.2095 8.75098 78.375V20.625ZM21.126 16.5C18.8478 16.5 17.001 18.3468 17.001 20.625V78.375C17.001 80.1439 18.1144 81.6528 19.6787 82.239L63.5845 38.3332C65.1954 36.7223 67.8072 36.7223 69.4181 38.3332L83.001 51.916V20.625C83.001 18.3468 81.1542 16.5 78.876 16.5H21.126ZM83.001 63.5833L66.5013 47.0836L31.0849 82.5H78.876C81.1542 82.5 83.001 80.6532 83.001 78.375V63.5833Z" fill="white" fill-opacity="0.8"/>
</svg>
