<svg width="170" height="170" viewBox="0 0 170 170" fill="none" xmlns="http://www.w3.org/2000/svg">
<path d="M85 170C131.944 170 170 131.944 170 85C170 38.0558 131.944 0 85 0C38.0558 0 0 38.0558 0 85C0 131.944 38.0558 170 85 170Z" fill="url(#paint0_linear_10943_1444)"/>
<path d="M40.9982 76.3718H126.991V124.567C126.991 131.194 121.618 136.567 114.991 136.567H52.9982C46.3708 136.567 40.9982 131.194 40.9982 124.567V76.3718Z" fill="url(#paint1_linear_10943_1444)"/>
<path fill-rule="evenodd" clip-rule="evenodd" d="M46.1845 50.5742C44.0086 50.5742 42.0825 51.9815 41.4211 54.0545L39.7341 59.342C39.2655 60.8107 39.5094 62.2937 40.2336 63.4735H38.6094V74.2387C38.6094 77.0002 40.8479 79.2387 43.6094 79.2387H124.857C127.618 79.2387 129.857 77.0002 129.857 74.2387V63.4735H128.233C128.957 62.2937 129.201 60.8107 128.732 59.342L127.045 54.0545C126.384 51.9815 124.458 50.5742 122.282 50.5742H46.1845Z" fill="#F9443D"/>
<rect opacity="0.1" x="40.9982" y="76.3718" width="85.9924" height="9.07698" fill="black"/>
<path d="M38.6094 63.4734H129.857V74.2387C129.857 77.0001 127.618 79.2387 124.857 79.2387H43.6094C40.8479 79.2387 38.6094 77.0001 38.6094 74.2387V63.4734Z" fill="url(#paint2_linear_10943_1444)"/>
<path d="M41.4211 54.0545C42.0825 51.9815 44.0086 50.5742 46.1845 50.5742H122.282C124.458 50.5742 126.384 51.9815 127.045 54.0545L128.732 59.342C129.761 62.5675 127.355 65.8618 123.969 65.8618H44.4976C41.1119 65.8618 38.7051 62.5675 39.7341 59.342L41.4211 54.0545Z" fill="url(#paint3_linear_10943_1444)"/>
<path d="M150.161 50.8134C139.269 46.4182 124.921 50.0968 119.108 52.4854L118.391 57.5017C129.857 58.4571 142.756 65.5435 147.772 68.9673C145.861 64.19 141.084 58.5368 138.934 56.3073L150.161 50.8134Z" fill="url(#paint4_linear_10943_1444)"/>
<path d="M19.5 50.8134C30.3924 46.4182 44.7404 50.0968 50.5528 52.4854L51.2694 57.5017C39.8038 58.4571 26.9049 65.5435 21.8887 68.9673C23.7996 64.19 28.577 58.5368 30.7268 56.3073L19.5 50.8134Z" fill="url(#paint5_linear_10943_1444)"/>
<path d="M121.735 32.6593C114.157 26.2631 97.2913 39.9845 90.6827 46.2747L88.7717 55.5906C93.8371 59.6626 106.518 60.8238 117.914 58.9347C131.383 56.7019 132.081 41.3907 121.735 32.6593Z" fill="url(#paint6_linear_10943_1444)"/>
<path d="M48.098 32.6593C55.6763 26.2631 72.5421 39.9845 79.1508 46.2747L81.0618 55.5906C75.9964 59.6626 63.3152 60.8238 51.9199 58.9347C38.451 56.7019 37.7528 41.3907 48.098 32.6593Z" fill="url(#paint7_linear_10943_1444)"/>
<path d="M94.2656 58.4571C100.794 61.3821 119.266 63.8837 123.885 53.9186C128.505 43.9534 103.371 47.9464 94.2656 58.4571Z" fill="#F0B730"/>
<path d="M75.2114 58.6652C71.6267 60.1657 51.1593 63.463 45.5918 54.1267C40.0243 44.7904 66.1057 48.1545 75.2114 58.6652Z" fill="#F0B730"/>
<path d="M94.9823 54.8741C94.9823 56.9761 88.6125 57.3424 85.4275 57.2627C76.8934 57.6001 73.3424 54.3051 75.3951 52.0076C77.4208 49.7404 76.8797 48.8271 78.2615 46.0359C79.8216 42.8848 81.2917 43.2964 85.4275 43.4084C89.4938 43.5185 90.6827 43.4084 91.1604 45.3193C91.6381 47.2303 93.3102 50.0967 93.3102 50.0967C93.3102 50.0967 94.9823 52.772 94.9823 54.8741Z" fill="url(#paint8_linear_10943_1444)"/>
<rect x="74.4396" y="56.3071" width="21.4981" height="81.6928" rx="8" fill="url(#paint9_linear_10943_1444)"/>
<circle cx="85" cy="95" r="13" fill="url(#paint10_linear_10943_1444)"/>
<path fill-rule="evenodd" clip-rule="evenodd" d="M80.8906 89.302L85.4445 94.882L83.1631 94.6876L83.1514 101.406L80.87 101.212L80.8906 89.302ZM89.4483 101.942L84.8943 96.3622L87.1758 96.5565L87.1875 89.8383L89.4689 90.0326L89.4483 101.942Z" fill="#1C203B"/>
<path d="M21.9648 24.2463C22.4642 22.0875 25.5382 22.0875 26.0376 24.2463L26.5409 26.422C26.7176 27.1857 27.3067 27.7863 28.0668 27.9778L30.4952 28.5895C32.6014 29.12 32.6014 32.1128 30.4952 32.6433L28.0668 33.255C27.3067 33.4465 26.7176 34.0471 26.5409 34.8108L26.0376 36.9865C25.5382 39.1453 22.4642 39.1453 21.9648 36.9865L21.4614 34.8108C21.2848 34.0471 20.6957 33.4465 19.9356 33.255L17.5071 32.6433C15.4009 32.1128 15.4009 29.12 17.5071 28.5895L19.9356 27.9778C20.6957 27.7863 21.2848 27.1857 21.4614 26.422L21.9648 24.2463Z" fill="url(#paint11_linear_10943_1444)"/>
<path fill-rule="evenodd" clip-rule="evenodd" d="M86.3599 11.7291C87.6222 11.7291 88.6456 10.7057 88.6456 9.44336C88.6456 8.18099 87.6222 7.15764 86.3599 7.15764C85.0975 7.15764 84.0741 8.18099 84.0741 9.44336C84.0741 10.7057 85.0975 11.7291 86.3599 11.7291ZM86.3599 13.4434C88.569 13.4434 90.3599 11.6525 90.3599 9.44336C90.3599 7.23422 88.569 5.44336 86.3599 5.44336C84.1507 5.44336 82.3599 7.23422 82.3599 9.44336C82.3599 11.6525 84.1507 13.4434 86.3599 13.4434Z" fill="url(#paint12_linear_10943_1444)"/>
<path d="M152.316 103.494C151.926 101.902 153.337 100.466 154.853 100.911L158.134 101.873C159.649 102.317 160.134 104.306 159.007 105.454L156.567 107.939C155.44 109.086 153.546 108.532 153.158 106.941L152.316 103.494Z" fill="url(#paint13_linear_10943_1444)"/>
<path d="M17.4779 101.544C19.0036 101.14 20.3746 102.61 19.9468 104.19L19.0203 107.614C18.5922 109.196 16.6836 109.702 15.5857 108.525L13.2079 105.976C12.1099 104.8 12.6466 102.822 14.1736 102.418L17.4779 101.544Z" fill="url(#paint14_linear_10943_1444)"/>
<path fill-rule="evenodd" clip-rule="evenodd" d="M157.333 38.5601C158.595 38.5601 159.618 37.5368 159.618 36.2744C159.618 35.012 158.595 33.9887 157.333 33.9887C156.07 33.9887 155.047 35.012 155.047 36.2744C155.047 37.5368 156.07 38.5601 157.333 38.5601ZM157.333 40.2744C159.542 40.2744 161.333 38.4836 161.333 36.2744C161.333 34.0653 159.542 32.2744 157.333 32.2744C155.123 32.2744 153.333 34.0653 153.333 36.2744C153.333 38.4836 155.123 40.2744 157.333 40.2744Z" fill="url(#paint15_linear_10943_1444)"/>
<circle cx="123" cy="126" r="16" fill="url(#paint16_linear_10943_1444)"/>
<path d="M127.247 116.8C126.067 116.79 124.93 117.243 124.081 118.063L124.074 118.071L122.784 119.353C122.49 119.645 122.489 120.12 122.781 120.414C123.073 120.708 123.547 120.709 123.841 120.417L125.127 119.138C125.693 118.594 126.449 118.293 127.234 118.3C128.02 118.307 128.773 118.622 129.329 119.178C129.885 119.735 130.201 120.487 130.207 121.274C130.214 122.058 129.914 122.814 129.37 123.38L127.125 125.625C126.82 125.929 126.454 126.164 126.051 126.315C125.648 126.465 125.218 126.527 124.789 126.496C124.359 126.465 123.942 126.343 123.564 126.137C123.187 125.93 122.858 125.645 122.601 125.301C122.352 124.969 121.882 124.901 121.551 125.149C121.219 125.398 121.151 125.868 121.399 126.199C121.786 126.716 122.279 127.143 122.845 127.453C123.412 127.762 124.038 127.946 124.681 127.992C125.325 128.038 125.971 127.946 126.576 127.72C127.18 127.494 127.729 127.142 128.185 126.685L130.435 124.435L130.444 124.426C131.264 123.577 131.718 122.441 131.707 121.261C131.697 120.081 131.224 118.952 130.39 118.118C129.555 117.283 128.427 116.81 127.247 116.8Z" fill="white"/>
<path d="M122.318 122.008C121.675 121.962 121.029 122.054 120.424 122.28C119.82 122.505 119.271 122.858 118.815 123.315L116.565 125.565L116.555 125.574C115.736 126.423 115.282 127.559 115.292 128.739C115.303 129.919 115.776 131.048 116.61 131.882C117.445 132.716 118.573 133.19 119.753 133.2C120.933 133.21 122.07 132.757 122.918 131.937L122.928 131.928L124.21 130.645C124.503 130.352 124.503 129.878 124.21 129.585C123.917 129.292 123.442 129.292 123.15 129.585L121.872 130.862C121.307 131.406 120.551 131.707 119.766 131.7C118.98 131.693 118.227 131.378 117.671 130.821C117.115 130.265 116.799 129.513 116.792 128.726C116.786 127.942 117.086 127.186 117.63 126.62L119.875 124.375C120.179 124.071 120.545 123.836 120.949 123.685C121.352 123.535 121.782 123.473 122.211 123.504C122.64 123.535 123.058 123.657 123.435 123.863C123.813 124.07 124.142 124.355 124.399 124.699C124.647 125.031 125.117 125.099 125.449 124.851C125.781 124.602 125.849 124.132 125.6 123.801C125.214 123.284 124.721 122.856 124.155 122.547C123.588 122.238 122.962 122.054 122.318 122.008Z" fill="white"/>
<defs>
<linearGradient id="paint0_linear_10943_1444" x1="84.3448" y1="-27.6781" x2="86.086" y2="270.829" gradientUnits="userSpaceOnUse">
<stop stop-color="#CAE0FF" stop-opacity="0"/>
<stop offset="1" stop-color="#BCD8FF"/>
</linearGradient>
<linearGradient id="paint1_linear_10943_1444" x1="64.7161" y1="109.607" x2="108.486" y2="125.902" gradientUnits="userSpaceOnUse">
<stop stop-color="#E0ECFF"/>
<stop offset="1" stop-color="#7FB2FF"/>
</linearGradient>
<linearGradient id="paint2_linear_10943_1444" x1="63.7767" y1="72.178" x2="79.9244" y2="96.533" gradientUnits="userSpaceOnUse">
<stop stop-color="#E0ECFF"/>
<stop offset="1" stop-color="#7FB2FF"/>
</linearGradient>
<linearGradient id="paint3_linear_10943_1444" x1="63.3485" y1="59.015" x2="78.679" y2="83.3596" gradientUnits="userSpaceOnUse">
<stop stop-color="#E0ECFF"/>
<stop offset="1" stop-color="#7FB2FF"/>
</linearGradient>
<linearGradient id="paint4_linear_10943_1444" x1="134.276" y1="48.7622" x2="134.276" y2="68.9673" gradientUnits="userSpaceOnUse">
<stop stop-color="#FFF0CD"/>
<stop offset="0.557292" stop-color="#FED87F"/>
<stop offset="1" stop-color="#FFC839"/>
</linearGradient>
<linearGradient id="paint5_linear_10943_1444" x1="35.3847" y1="48.7622" x2="35.3847" y2="68.9673" gradientUnits="userSpaceOnUse">
<stop stop-color="#FFF0CD"/>
<stop offset="0.557292" stop-color="#FED87F"/>
<stop offset="1" stop-color="#FFC839"/>
</linearGradient>
<linearGradient id="paint6_linear_10943_1444" x1="108.804" y1="31" x2="108.804" y2="59.8164" gradientUnits="userSpaceOnUse">
<stop stop-color="#FFF0CD"/>
<stop offset="0.557292" stop-color="#FED87F"/>
<stop offset="1" stop-color="#FFC839"/>
</linearGradient>
<linearGradient id="paint7_linear_10943_1444" x1="61.0299" y1="31" x2="61.0299" y2="59.8164" gradientUnits="userSpaceOnUse">
<stop stop-color="#FFF0CD"/>
<stop offset="0.557292" stop-color="#FED87F"/>
<stop offset="1" stop-color="#FFC839"/>
</linearGradient>
<linearGradient id="paint8_linear_10943_1444" x1="84.9048" y1="43.3281" x2="84.9048" y2="57.2867" gradientUnits="userSpaceOnUse">
<stop stop-color="#FFF0CD"/>
<stop offset="0.557292" stop-color="#FED87F"/>
<stop offset="1" stop-color="#FFC839"/>
</linearGradient>
<linearGradient id="paint9_linear_10943_1444" x1="85.1886" y1="56.3071" x2="85.1886" y2="138" gradientUnits="userSpaceOnUse">
<stop stop-color="#FFF0CD"/>
<stop offset="0.557292" stop-color="#FED87F"/>
<stop offset="1" stop-color="#FFC839"/>
</linearGradient>
<linearGradient id="paint10_linear_10943_1444" x1="85" y1="82" x2="85" y2="108" gradientUnits="userSpaceOnUse">
<stop stop-color="#FFF0CD"/>
<stop offset="0.557292" stop-color="#FED87F"/>
<stop offset="1" stop-color="#FFC839"/>
</linearGradient>
<linearGradient id="paint11_linear_10943_1444" x1="24.0012" y1="15.4434" x2="24.0012" y2="45.7894" gradientUnits="userSpaceOnUse">
<stop stop-color="#FFE070"/>
<stop offset="1" stop-color="#5597FD"/>
</linearGradient>
<linearGradient id="paint12_linear_10943_1444" x1="86.3599" y1="5.44336" x2="86.3599" y2="13.4434" gradientUnits="userSpaceOnUse">
<stop stop-color="#FFE070"/>
<stop offset="1" stop-color="#5597FD"/>
</linearGradient>
<linearGradient id="paint13_linear_10943_1444" x1="151.44" y1="99.9097" x2="160.272" y2="108.582" gradientUnits="userSpaceOnUse">
<stop stop-color="#FFE070"/>
<stop offset="1" stop-color="#5597FD"/>
</linearGradient>
<linearGradient id="paint14_linear_10943_1444" x1="20.9087" y1="100.636" x2="11.8671" y2="109.071" gradientUnits="userSpaceOnUse">
<stop stop-color="#FFE070"/>
<stop offset="1" stop-color="#5597FD"/>
</linearGradient>
<linearGradient id="paint15_linear_10943_1444" x1="157.333" y1="32.2744" x2="157.333" y2="40.2744" gradientUnits="userSpaceOnUse">
<stop stop-color="#FFE070"/>
<stop offset="1" stop-color="#5597FD"/>
</linearGradient>
<linearGradient id="paint16_linear_10943_1444" x1="112" y1="114.5" x2="134" y2="142" gradientUnits="userSpaceOnUse">
<stop stop-color="#92FB91"/>
<stop offset="1" stop-color="#44A482"/>
</linearGradient>
</defs>
</svg>
