<svg width="170" height="170" viewBox="0 0 170 170" fill="none" xmlns="http://www.w3.org/2000/svg">
<path d="M85 170C131.944 170 170 131.944 170 85C170 38.0558 131.944 0 85 0C38.0558 0 0 38.0558 0 85C0 131.944 38.0558 170 85 170Z" fill="url(#paint0_linear_5793_6301)"/>
<path d="M41.4983 76.3721H127.491V124.567C127.491 131.194 122.118 136.567 115.491 136.567H53.4983C46.8709 136.567 41.4983 131.194 41.4983 124.567V76.3721Z" fill="url(#paint1_linear_5793_6301)"/>
<path fill-rule="evenodd" clip-rule="evenodd" d="M46.6845 50.5742C44.5086 50.5742 42.5825 51.9815 41.9211 54.0545L40.2341 59.342C39.7655 60.8107 40.0094 62.2937 40.7336 63.4735H39.1094V74.2387C39.1094 77.0002 41.3479 79.2387 44.1094 79.2387H125.357C128.118 79.2387 130.357 77.0002 130.357 74.2387V63.4735H128.733C129.457 62.2937 129.701 60.8107 129.232 59.342L127.545 54.0545C126.884 51.9815 124.958 50.5742 122.782 50.5742H46.6845Z" fill="#F9443D"/>
<rect opacity="0.1" x="41.4983" y="76.3721" width="85.9924" height="9.07698" fill="black"/>
<path d="M39.1094 63.4731H130.357V74.2384C130.357 76.9998 128.118 79.2384 125.357 79.2384H44.1094C41.3479 79.2384 39.1094 76.9998 39.1094 74.2384V63.4731Z" fill="url(#paint2_linear_5793_6301)"/>
<path d="M41.9211 54.0545C42.5825 51.9815 44.5086 50.5742 46.6845 50.5742H122.782C124.958 50.5742 126.884 51.9815 127.545 54.0545L129.232 59.342C130.261 62.5675 127.855 65.8618 124.469 65.8618H44.9976C41.6119 65.8618 39.2051 62.5675 40.2341 59.342L41.9211 54.0545Z" fill="url(#paint3_linear_5793_6301)"/>
<path d="M150.661 50.8134C139.768 46.4182 125.42 50.0968 119.608 52.4854L118.891 57.5017C130.357 58.4571 143.256 65.5435 148.272 68.9673C146.361 64.19 141.584 58.5368 139.434 56.3073L150.661 50.8134Z" fill="url(#paint4_linear_5793_6301)"/>
<path d="M20.0001 50.8134C30.8925 46.4182 45.2405 50.0968 51.0529 52.4854L51.7695 57.5017C40.3039 58.4571 27.405 65.5435 22.3888 68.9673C24.2997 64.19 29.0771 58.5368 31.2269 56.3073L20.0001 50.8134Z" fill="url(#paint5_linear_5793_6301)"/>
<path d="M122.235 32.6593C114.657 26.2631 97.7913 39.9845 91.1827 46.2747L89.2717 55.5906C94.3371 59.6626 107.018 60.8238 118.414 58.9347C131.883 56.7019 132.581 41.3907 122.235 32.6593Z" fill="url(#paint6_linear_5793_6301)"/>
<path d="M48.598 32.6593C56.1763 26.2631 73.0421 39.9845 79.6508 46.2747L81.5618 55.5906C76.4964 59.6626 63.8152 60.8238 52.4199 58.9347C38.951 56.7019 38.2528 41.3907 48.598 32.6593Z" fill="url(#paint7_linear_5793_6301)"/>
<path d="M94.7656 58.4571C101.294 61.3821 119.766 63.8837 124.385 53.9186C129.005 43.9534 103.871 47.9464 94.7656 58.4571Z" fill="#F0B730"/>
<path d="M75.7114 58.6652C72.1267 60.1657 51.6593 63.463 46.0918 54.1267C40.5243 44.7904 66.6057 48.1545 75.7114 58.6652Z" fill="#F0B730"/>
<path d="M95.4824 54.8741C95.4824 56.9761 89.1126 57.3424 85.9277 57.2627C77.3935 57.6001 73.8425 54.3051 75.8952 52.0076C77.9209 49.7404 77.3798 48.8271 78.7616 46.0359C80.3217 42.8848 81.7918 43.2964 85.9277 43.4084C89.994 43.5185 91.1828 43.4084 91.6605 45.3193C92.1382 47.2303 93.8103 50.0967 93.8103 50.0967C93.8103 50.0967 95.4824 52.772 95.4824 54.8741Z" fill="url(#paint8_linear_5793_6301)"/>
<rect x="74.9397" y="56.3071" width="21.4981" height="81.6928" rx="8" fill="url(#paint9_linear_5793_6301)"/>
<path d="M136.312 128.489L128.39 137.603L150.719 158.738L158.641 149.624L136.312 128.489Z" fill="url(#paint10_linear_5793_6301)"/>
<path fill-rule="evenodd" clip-rule="evenodd" d="M145.212 112.231C145.212 130.648 130.282 145.578 111.865 145.578C93.4483 145.578 78.5183 130.648 78.5183 112.231C78.5183 93.8137 93.4483 78.8838 111.865 78.8838C130.282 78.8838 145.212 93.8137 145.212 112.231ZM140.097 112.231C140.097 127.823 127.457 140.463 111.865 140.463C96.273 140.463 83.6332 127.823 83.6332 112.231C83.6332 96.6387 96.273 83.9988 111.865 83.9988C127.457 83.9988 140.097 96.6387 140.097 112.231Z" fill="url(#paint11_linear_5793_6301)"/>
<g filter="url(#filter0_b_5793_6301)">
<path d="M112 142C128.016 142 141 129.016 141 113C141 96.9837 128.016 84 112 84C95.9837 84 83 96.9837 83 113C83 129.016 95.9837 142 112 142Z" fill="url(#paint12_linear_5793_6301)" fill-opacity="0.2"/>
</g>
<path d="M117.16 112L124.018 104.643C124.661 103.915 125.013 102.948 125 101.946C124.986 100.945 124.609 99.9889 123.947 99.2808C123.286 98.5727 122.392 98.1687 121.457 98.1545C120.522 98.1403 119.618 98.5171 118.938 99.2048L112.064 106.562L105.206 99.2048C104.876 98.831 104.479 98.5318 104.039 98.3249C103.599 98.118 103.125 98.0077 102.645 98.0004C102.164 97.9931 101.687 98.089 101.242 98.2825C100.797 98.4759 100.392 98.763 100.053 99.1267C99.7128 99.4904 99.4446 99.9233 99.2639 100.4C99.0832 100.876 98.9936 101.387 99.0004 101.901C99.0072 102.416 99.1103 102.923 99.3035 103.394C99.4968 103.865 99.7764 104.29 100.126 104.643L106.995 112L100.126 119.357C99.7764 119.71 99.4968 120.135 99.3035 120.606C99.1103 121.077 99.0072 121.584 99.0004 122.099C98.9936 122.613 99.0832 123.124 99.2639 123.6C99.4446 124.077 99.7128 124.51 100.053 124.873C100.392 125.237 100.797 125.524 101.242 125.718C101.687 125.911 102.164 126.007 102.645 126C103.125 125.992 103.599 125.882 104.039 125.675C104.479 125.468 104.876 125.169 105.206 124.795L112.08 117.438L118.953 124.795C119.64 125.442 120.531 125.785 121.445 125.753C122.359 125.722 123.228 125.318 123.874 124.624C124.52 123.931 124.894 123 124.921 122.022C124.948 121.043 124.625 120.09 124.018 119.357L117.16 112Z" fill="url(#paint13_linear_5793_6301)"/>
<g filter="url(#filter1_f_5793_6301)">
<ellipse cx="102.372" cy="114.214" rx="25.3889" ry="3.91374" fill="#EC5575" fill-opacity="0.56"/>
</g>
<path d="M72.4069 142.903C72.9063 140.744 75.9803 140.744 76.4798 142.903L76.9831 145.079C77.1597 145.842 77.7488 146.443 78.5089 146.635L80.9374 147.246C83.0436 147.777 83.0436 150.769 80.9374 151.3L78.5089 151.912C77.7488 152.103 77.1597 152.704 76.9831 153.468L76.4798 155.643C75.9803 157.802 72.9063 157.802 72.4069 155.643L71.9036 153.468C71.7269 152.704 71.1378 152.103 70.3777 151.912L67.9493 151.3C65.8431 150.769 65.8431 147.777 67.9493 147.246L70.3777 146.635C71.1378 146.443 71.7269 145.842 71.9036 145.079L72.4069 142.903Z" fill="url(#paint14_linear_5793_6301)"/>
<path d="M14.9648 14.2463C15.4642 12.0875 18.5382 12.0875 19.0376 14.2463L19.5409 16.422C19.7176 17.1857 20.3067 17.7863 21.0668 17.9778L23.4952 18.5895C25.6014 19.12 25.6014 22.1128 23.4952 22.6433L21.0668 23.255C20.3067 23.4465 19.7176 24.0471 19.5409 24.8108L19.0376 26.9865C18.5382 29.1453 15.4642 29.1453 14.9648 26.9865L14.4614 24.8108C14.2848 24.0471 13.6957 23.4465 12.9356 23.255L10.5071 22.6433C8.40094 22.1128 8.40094 19.12 10.5071 18.5895L12.9356 17.9778C13.6957 17.7863 14.2848 17.1857 14.4614 16.422L14.9648 14.2463Z" fill="url(#paint15_linear_5793_6301)"/>
<path fill-rule="evenodd" clip-rule="evenodd" d="M76.3599 11.7291C77.6222 11.7291 78.6456 10.7057 78.6456 9.44336C78.6456 8.18099 77.6222 7.15764 76.3599 7.15764C75.0975 7.15764 74.0741 8.18099 74.0741 9.44336C74.0741 10.7057 75.0975 11.7291 76.3599 11.7291ZM76.3599 13.4434C78.569 13.4434 80.3599 11.6525 80.3599 9.44336C80.3599 7.23422 78.569 5.44336 76.3599 5.44336C74.1507 5.44336 72.3599 7.23422 72.3599 9.44336C72.3599 11.6525 74.1507 13.4434 76.3599 13.4434Z" fill="url(#paint16_linear_5793_6301)"/>
<path d="M152.316 73.4942C151.926 71.9018 153.337 70.4657 154.853 70.9103L158.134 71.8726C159.649 72.3168 160.134 74.306 159.007 75.4538L156.567 77.9383C155.44 79.0861 153.546 78.5322 153.158 76.941L152.316 73.4942Z" fill="url(#paint17_linear_5793_6301)"/>
<path d="M11.4779 61.5439C13.0036 61.1402 14.3746 62.6098 13.9468 64.1904L13.0203 67.6136C12.5922 69.1956 10.6836 69.7022 9.58568 68.5253L7.20787 65.9765C6.10995 64.7996 6.64659 62.8224 8.1736 62.4183L11.4779 61.5439Z" fill="url(#paint18_linear_5793_6301)"/>
<path d="M124.054 148.926C125.58 148.523 126.951 149.992 126.523 151.573L125.597 154.996C125.169 156.578 123.26 157.085 122.162 155.908L119.784 153.359C118.686 152.182 119.223 150.205 120.75 149.801L124.054 148.926Z" fill="url(#paint19_linear_5793_6301)"/>
<path fill-rule="evenodd" clip-rule="evenodd" d="M157.333 38.5601C158.595 38.5601 159.618 37.5368 159.618 36.2744C159.618 35.012 158.595 33.9887 157.333 33.9887C156.07 33.9887 155.047 35.012 155.047 36.2744C155.047 37.5368 156.07 38.5601 157.333 38.5601ZM157.333 40.2744C159.542 40.2744 161.333 38.4836 161.333 36.2744C161.333 34.0653 159.542 32.2744 157.333 32.2744C155.123 32.2744 153.333 34.0653 153.333 36.2744C153.333 38.4836 155.123 40.2744 157.333 40.2744Z" fill="url(#paint20_linear_5793_6301)"/>
<path d="M150.718 158.739L158.64 149.626L159.833 150.755C160.991 151.851 161.684 153.382 161.76 155.011C161.836 156.64 161.289 158.234 160.239 159.442C159.189 160.65 157.722 161.373 156.16 161.453C154.599 161.532 153.072 160.961 151.914 159.865L150.721 158.736L150.718 158.739Z" fill="url(#paint21_linear_5793_6301)"/>
<defs>
<filter id="filter0_b_5793_6301" x="66.3249" y="67.3249" width="91.3503" height="91.3503" filterUnits="userSpaceOnUse" color-interpolation-filters="sRGB">
<feFlood flood-opacity="0" result="BackgroundImageFix"/>
<feGaussianBlur in="BackgroundImageFix" stdDeviation="8.33757"/>
<feComposite in2="SourceAlpha" operator="in" result="effect1_backgroundBlur_5793_6301"/>
<feBlend mode="normal" in="SourceGraphic" in2="effect1_backgroundBlur_5793_6301" result="shape"/>
</filter>
<filter id="filter1_f_5793_6301" x="56.139" y="89.4559" width="92.4657" height="49.5155" filterUnits="userSpaceOnUse" color-interpolation-filters="sRGB">
<feFlood flood-opacity="0" result="BackgroundImageFix"/>
<feBlend mode="normal" in="SourceGraphic" in2="BackgroundImageFix" result="shape"/>
<feGaussianBlur stdDeviation="10.422" result="effect1_foregroundBlur_5793_6301"/>
</filter>
<linearGradient id="paint0_linear_5793_6301" x1="84.3448" y1="-27.6781" x2="86.086" y2="270.829" gradientUnits="userSpaceOnUse">
<stop stop-color="#CAE0FF" stop-opacity="0"/>
<stop offset="1" stop-color="#BCD8FF"/>
</linearGradient>
<linearGradient id="paint1_linear_5793_6301" x1="65.2162" y1="109.608" x2="108.986" y2="125.902" gradientUnits="userSpaceOnUse">
<stop stop-color="#E0ECFF"/>
<stop offset="1" stop-color="#7FB2FF"/>
</linearGradient>
<linearGradient id="paint2_linear_5793_6301" x1="64.2767" y1="72.1777" x2="80.4244" y2="96.5328" gradientUnits="userSpaceOnUse">
<stop stop-color="#E0ECFF"/>
<stop offset="1" stop-color="#7FB2FF"/>
</linearGradient>
<linearGradient id="paint3_linear_5793_6301" x1="63.8485" y1="59.015" x2="79.179" y2="83.3596" gradientUnits="userSpaceOnUse">
<stop stop-color="#E0ECFF"/>
<stop offset="1" stop-color="#7FB2FF"/>
</linearGradient>
<linearGradient id="paint4_linear_5793_6301" x1="134.776" y1="48.7622" x2="134.776" y2="68.9673" gradientUnits="userSpaceOnUse">
<stop stop-color="#FFF0CD"/>
<stop offset="0.557292" stop-color="#FED87F"/>
<stop offset="1" stop-color="#FFC839"/>
</linearGradient>
<linearGradient id="paint5_linear_5793_6301" x1="35.8848" y1="48.7622" x2="35.8848" y2="68.9673" gradientUnits="userSpaceOnUse">
<stop stop-color="#FFF0CD"/>
<stop offset="0.557292" stop-color="#FED87F"/>
<stop offset="1" stop-color="#FFC839"/>
</linearGradient>
<linearGradient id="paint6_linear_5793_6301" x1="109.304" y1="31" x2="109.304" y2="59.8164" gradientUnits="userSpaceOnUse">
<stop stop-color="#FFF0CD"/>
<stop offset="0.557292" stop-color="#FED87F"/>
<stop offset="1" stop-color="#FFC839"/>
</linearGradient>
<linearGradient id="paint7_linear_5793_6301" x1="61.5299" y1="31" x2="61.5299" y2="59.8164" gradientUnits="userSpaceOnUse">
<stop stop-color="#FFF0CD"/>
<stop offset="0.557292" stop-color="#FED87F"/>
<stop offset="1" stop-color="#FFC839"/>
</linearGradient>
<linearGradient id="paint8_linear_5793_6301" x1="85.4049" y1="43.3281" x2="85.4049" y2="57.2867" gradientUnits="userSpaceOnUse">
<stop stop-color="#FFF0CD"/>
<stop offset="0.557292" stop-color="#FED87F"/>
<stop offset="1" stop-color="#FFC839"/>
</linearGradient>
<linearGradient id="paint9_linear_5793_6301" x1="85.6888" y1="56.3071" x2="85.6888" y2="138" gradientUnits="userSpaceOnUse">
<stop stop-color="#FFF0CD"/>
<stop offset="0.557292" stop-color="#FED87F"/>
<stop offset="1" stop-color="#FFC839"/>
</linearGradient>
<linearGradient id="paint10_linear_5793_6301" x1="125.519" y1="155.33" x2="145.612" y2="174.048" gradientUnits="userSpaceOnUse">
<stop stop-color="#689DF0"/>
<stop offset="1" stop-color="#70A8FF"/>
</linearGradient>
<linearGradient id="paint11_linear_5793_6301" x1="-3.56643" y1="99.4309" x2="-4.37087" y2="158.99" gradientUnits="userSpaceOnUse">
<stop stop-color="#8CB2EC"/>
<stop offset="1" stop-color="#5B92E6"/>
</linearGradient>
<linearGradient id="paint12_linear_5793_6301" x1="112" y1="84" x2="141.222" y2="159.829" gradientUnits="userSpaceOnUse">
<stop stop-color="white"/>
<stop offset="1" stop-color="#D2F7FF"/>
</linearGradient>
<linearGradient id="paint13_linear_5793_6301" x1="99.1243" y1="99.8839" x2="126.805" y2="124.045" gradientUnits="userSpaceOnUse">
<stop stop-color="#FF698D"/>
<stop offset="1" stop-color="#FF3868"/>
</linearGradient>
<linearGradient id="paint14_linear_5793_6301" x1="74.4433" y1="134.1" x2="74.4433" y2="164.446" gradientUnits="userSpaceOnUse">
<stop stop-color="#70A8FF"/>
<stop offset="1" stop-color="#5597FD"/>
</linearGradient>
<linearGradient id="paint15_linear_5793_6301" x1="17.0012" y1="5.44336" x2="17.0012" y2="35.7894" gradientUnits="userSpaceOnUse">
<stop stop-color="#70A8FF"/>
<stop offset="1" stop-color="#5597FD"/>
</linearGradient>
<linearGradient id="paint16_linear_5793_6301" x1="76.3599" y1="5.44336" x2="76.3599" y2="13.4434" gradientUnits="userSpaceOnUse">
<stop stop-color="#70A8FF"/>
<stop offset="1" stop-color="#5597FD"/>
</linearGradient>
<linearGradient id="paint17_linear_5793_6301" x1="151.44" y1="69.9094" x2="160.272" y2="78.5822" gradientUnits="userSpaceOnUse">
<stop stop-color="#70A8FF"/>
<stop offset="1" stop-color="#5597FD"/>
</linearGradient>
<linearGradient id="paint18_linear_5793_6301" x1="14.9087" y1="60.6361" x2="5.86709" y2="69.071" gradientUnits="userSpaceOnUse">
<stop stop-color="#70A8FF"/>
<stop offset="1" stop-color="#5597FD"/>
</linearGradient>
<linearGradient id="paint19_linear_5793_6301" x1="127.485" y1="148.018" x2="118.444" y2="156.453" gradientUnits="userSpaceOnUse">
<stop stop-color="#70A8FF"/>
<stop offset="1" stop-color="#5597FD"/>
</linearGradient>
<linearGradient id="paint20_linear_5793_6301" x1="157.333" y1="32.2744" x2="157.333" y2="40.2744" gradientUnits="userSpaceOnUse">
<stop stop-color="#70A8FF"/>
<stop offset="1" stop-color="#5597FD"/>
</linearGradient>
<linearGradient id="paint21_linear_5793_6301" x1="142.68" y1="171.577" x2="147.798" y2="176.103" gradientUnits="userSpaceOnUse">
<stop stop-color="#6FA5F8"/>
<stop offset="1" stop-color="#70A8FF"/>
</linearGradient>
</defs>
</svg>
