<svg width="171" height="170" viewBox="0 0 171 170" fill="none" xmlns="http://www.w3.org/2000/svg">
<path d="M85.5 170C132.444 170 170.5 131.944 170.5 85C170.5 38.0558 132.444 0 85.5 0C38.5558 0 0.5 38.0558 0.5 85C0.5 131.944 38.5558 170 85.5 170Z" fill="url(#paint0_linear_9839_2696)"/>
<path fill-rule="evenodd" clip-rule="evenodd" d="M112 146.357C114.525 146.357 116.571 144.183 116.571 141.5C116.571 138.817 114.525 136.643 112 136.643C109.475 136.643 107.429 138.817 107.429 141.5C107.429 144.183 109.475 146.357 112 146.357ZM112 150C116.418 150 120 146.194 120 141.5C120 136.806 116.418 133 112 133C107.582 133 104 136.806 104 141.5C104 146.194 107.582 150 112 150Z" fill="url(#paint1_linear_9839_2696)"/>
<path d="M41.4982 76.3719H127.491V124.567C127.491 131.194 122.118 136.567 115.491 136.567H53.4982C46.8708 136.567 41.4982 131.194 41.4982 124.567V76.3719Z" fill="url(#paint2_linear_9839_2696)"/>
<path fill-rule="evenodd" clip-rule="evenodd" d="M46.6846 50.5744C44.5086 50.5744 42.5825 51.9816 41.9211 54.0546L40.2342 59.3422C39.7656 60.8109 40.0094 62.2939 40.7337 63.4736H39.1094V74.2389C39.1094 77.0003 41.348 79.2389 44.1094 79.2389H125.357C128.118 79.2389 130.357 77.0003 130.357 74.2389V63.4736H128.733C129.457 62.2939 129.701 60.8109 129.232 59.3422L127.545 54.0546C126.884 51.9816 124.958 50.5744 122.782 50.5744H46.6846Z" fill="#F9443D"/>
<rect opacity="0.1" x="41.4982" y="76.3719" width="85.9924" height="9.07698" fill="black"/>
<path d="M39.1094 63.4733H130.357V74.2386C130.357 77 128.118 79.2386 125.357 79.2386H44.1094C41.348 79.2386 39.1094 77 39.1094 74.2386V63.4733Z" fill="url(#paint3_linear_9839_2696)"/>
<path d="M41.9211 54.0546C42.5825 51.9816 44.5086 50.5744 46.6846 50.5744H122.782C124.958 50.5744 126.884 51.9816 127.545 54.0546L129.232 59.3422C130.262 62.5676 127.855 65.8619 124.469 65.8619H44.9976C41.6119 65.8619 39.2051 62.5676 40.2342 59.3422L41.9211 54.0546Z" fill="url(#paint4_linear_9839_2696)"/>
<path d="M150.661 50.8132C139.768 46.418 125.421 50.0966 119.608 52.4852L118.891 57.5015C130.357 58.4569 143.256 65.5433 148.272 68.9671C146.361 64.1898 141.584 58.5366 139.434 56.3071L150.661 50.8132Z" fill="url(#paint5_linear_9839_2696)"/>
<path d="M20 50.8132C30.8924 46.418 45.2404 50.0966 51.0528 52.4852L51.7694 57.5015C40.3038 58.4569 27.4049 65.5433 22.3887 68.9671C24.2996 64.1898 29.077 58.5366 31.2268 56.3071L20 50.8132Z" fill="url(#paint6_linear_9839_2696)"/>
<path d="M122.235 32.6593C114.657 26.2631 97.7913 39.9845 91.1826 46.2747L89.2717 55.5906C94.337 59.6626 107.018 60.8238 118.414 58.9347C131.882 56.7019 132.581 41.3907 122.235 32.6593Z" fill="url(#paint7_linear_9839_2696)"/>
<path d="M48.598 32.6593C56.1763 26.2631 73.0421 39.9845 79.6508 46.2747L81.5618 55.5906C76.4964 59.6626 63.8152 60.8238 52.4199 58.9347C38.951 56.7019 38.2528 41.3907 48.598 32.6593Z" fill="url(#paint8_linear_9839_2696)"/>
<path d="M94.7657 58.4571C101.294 61.382 119.766 63.8837 124.385 53.9186C129.005 43.9534 103.871 47.9463 94.7657 58.4571Z" fill="#F0B730"/>
<path d="M75.7114 58.665C72.1267 60.1655 51.6593 63.4629 46.0918 54.1265C40.5243 44.7902 66.6057 48.1543 75.7114 58.665Z" fill="#F0B730"/>
<path d="M95.4823 54.8739C95.4823 56.9759 89.1125 57.3422 85.9276 57.2626C77.3934 57.6 73.8424 54.305 75.8952 52.0075C77.9208 49.7403 77.3797 48.8269 78.7616 46.0358C80.3216 42.8847 81.7918 43.2963 85.9276 43.4083C89.9939 43.5184 91.1827 43.4083 91.6604 45.3192C92.1382 47.2301 93.8103 50.0966 93.8103 50.0966C93.8103 50.0966 95.4823 52.7719 95.4823 54.8739Z" fill="url(#paint9_linear_9839_2696)"/>
<rect x="74.9396" y="56.3073" width="21.4981" height="81.6928" rx="8" fill="url(#paint10_linear_9839_2696)"/>
<circle cx="85.5" cy="95" r="13" fill="url(#paint11_linear_9839_2696)"/>
<path fill-rule="evenodd" clip-rule="evenodd" d="M81.3906 89.302L85.9445 94.8819L83.6631 94.6876L83.6514 101.406L81.37 101.211L81.3906 89.302ZM89.9483 101.942L85.3943 96.3621L87.6758 96.5565L87.6875 89.8383L89.9689 90.0326L89.9483 101.942Z" fill="#1C203B"/>
<path d="M22.4648 24.2465C22.9642 22.0877 26.0382 22.0877 26.5376 24.2465L27.0409 26.4223C27.2176 27.1859 27.8067 27.7866 28.5668 27.978L30.9952 28.5897C33.1014 29.1203 33.1014 32.113 30.9952 32.6435L28.5668 33.2552C27.8067 33.4467 27.2176 34.0474 27.0409 34.811L26.5376 36.9868C26.0382 39.1456 22.9642 39.1456 22.4648 36.9868L21.9614 34.811C21.7848 34.0473 21.1957 33.4467 20.4356 33.2552L18.0071 32.6435C15.9009 32.113 15.9009 29.1203 18.0071 28.5898L20.4356 27.978C21.1957 27.7866 21.7848 27.1859 21.9614 26.4223L22.4648 24.2465Z" fill="url(#paint12_linear_9839_2696)"/>
<path fill-rule="evenodd" clip-rule="evenodd" d="M86.8599 11.7293C88.1222 11.7293 89.1456 10.706 89.1456 9.4436C89.1456 8.18124 88.1222 7.15789 86.8599 7.15789C85.5975 7.15789 84.5741 8.18124 84.5741 9.4436C84.5741 10.706 85.5975 11.7293 86.8599 11.7293ZM86.8599 13.4436C89.069 13.4436 90.8599 11.6527 90.8599 9.4436C90.8599 7.23446 89.069 5.4436 86.8599 5.4436C84.6507 5.4436 82.8599 7.23446 82.8599 9.4436C82.8599 11.6527 84.6507 13.4436 86.8599 13.4436Z" fill="url(#paint13_linear_9839_2696)"/>
<path d="M152.816 103.494C152.426 101.902 153.837 100.466 155.353 100.911L158.634 101.873C160.149 102.317 160.634 104.306 159.507 105.454L157.067 107.939C155.94 109.086 154.046 108.532 153.658 106.941L152.816 103.494Z" fill="url(#paint14_linear_9839_2696)"/>
<path d="M17.9779 101.544C19.5036 101.14 20.8746 102.61 20.4468 104.19L19.5203 107.614C19.0922 109.196 17.1836 109.702 16.0857 108.525L13.7079 105.976C12.6099 104.8 13.1466 102.822 14.6736 102.418L17.9779 101.544Z" fill="url(#paint15_linear_9839_2696)"/>
<path fill-rule="evenodd" clip-rule="evenodd" d="M157.833 38.5599C159.095 38.5599 160.118 37.5365 160.118 36.2742C160.118 35.0118 159.095 33.9885 157.833 33.9885C156.57 33.9885 155.547 35.0118 155.547 36.2742C155.547 37.5365 156.57 38.5599 157.833 38.5599ZM157.833 40.2742C160.042 40.2742 161.833 38.4833 161.833 36.2742C161.833 34.065 160.042 32.2742 157.833 32.2742C155.623 32.2742 153.833 34.065 153.833 36.2742C153.833 38.4833 155.623 40.2742 157.833 40.2742Z" fill="url(#paint16_linear_9839_2696)"/>
<defs>
<linearGradient id="paint0_linear_9839_2696" x1="84.8448" y1="-27.6781" x2="86.586" y2="270.829" gradientUnits="userSpaceOnUse">
<stop stop-color="#CAE0FF" stop-opacity="0"/>
<stop offset="1" stop-color="#BCD8FF"/>
</linearGradient>
<linearGradient id="paint1_linear_9839_2696" x1="112" y1="133" x2="112" y2="150" gradientUnits="userSpaceOnUse">
<stop stop-color="#FFE070"/>
<stop offset="1" stop-color="#5597FD"/>
</linearGradient>
<linearGradient id="paint2_linear_9839_2696" x1="65.2161" y1="109.608" x2="108.986" y2="125.902" gradientUnits="userSpaceOnUse">
<stop stop-color="#E0ECFF"/>
<stop offset="1" stop-color="#7FB2FF"/>
</linearGradient>
<linearGradient id="paint3_linear_9839_2696" x1="64.2768" y1="72.1779" x2="80.4244" y2="96.5329" gradientUnits="userSpaceOnUse">
<stop stop-color="#E0ECFF"/>
<stop offset="1" stop-color="#7FB2FF"/>
</linearGradient>
<linearGradient id="paint4_linear_9839_2696" x1="63.8485" y1="59.0152" x2="79.179" y2="83.3597" gradientUnits="userSpaceOnUse">
<stop stop-color="#E0ECFF"/>
<stop offset="1" stop-color="#7FB2FF"/>
</linearGradient>
<linearGradient id="paint5_linear_9839_2696" x1="134.776" y1="48.762" x2="134.776" y2="68.9671" gradientUnits="userSpaceOnUse">
<stop stop-color="#FFF0CD"/>
<stop offset="0.557292" stop-color="#FED87F"/>
<stop offset="1" stop-color="#FFC839"/>
</linearGradient>
<linearGradient id="paint6_linear_9839_2696" x1="35.8847" y1="48.762" x2="35.8847" y2="68.9671" gradientUnits="userSpaceOnUse">
<stop stop-color="#FFF0CD"/>
<stop offset="0.557292" stop-color="#FED87F"/>
<stop offset="1" stop-color="#FFC839"/>
</linearGradient>
<linearGradient id="paint7_linear_9839_2696" x1="109.304" y1="31" x2="109.304" y2="59.8164" gradientUnits="userSpaceOnUse">
<stop stop-color="#FFF0CD"/>
<stop offset="0.557292" stop-color="#FED87F"/>
<stop offset="1" stop-color="#FFC839"/>
</linearGradient>
<linearGradient id="paint8_linear_9839_2696" x1="61.5299" y1="31" x2="61.5299" y2="59.8164" gradientUnits="userSpaceOnUse">
<stop stop-color="#FFF0CD"/>
<stop offset="0.557292" stop-color="#FED87F"/>
<stop offset="1" stop-color="#FFC839"/>
</linearGradient>
<linearGradient id="paint9_linear_9839_2696" x1="85.4048" y1="43.328" x2="85.4048" y2="57.2866" gradientUnits="userSpaceOnUse">
<stop stop-color="#FFF0CD"/>
<stop offset="0.557292" stop-color="#FED87F"/>
<stop offset="1" stop-color="#FFC839"/>
</linearGradient>
<linearGradient id="paint10_linear_9839_2696" x1="85.6886" y1="56.3073" x2="85.6886" y2="138" gradientUnits="userSpaceOnUse">
<stop stop-color="#FFF0CD"/>
<stop offset="0.557292" stop-color="#FED87F"/>
<stop offset="1" stop-color="#FFC839"/>
</linearGradient>
<linearGradient id="paint11_linear_9839_2696" x1="85.5" y1="82" x2="85.5" y2="108" gradientUnits="userSpaceOnUse">
<stop stop-color="#FFF0CD"/>
<stop offset="0.557292" stop-color="#FED87F"/>
<stop offset="1" stop-color="#FFC839"/>
</linearGradient>
<linearGradient id="paint12_linear_9839_2696" x1="24.5012" y1="15.4436" x2="24.5012" y2="45.7897" gradientUnits="userSpaceOnUse">
<stop stop-color="#FFE070"/>
<stop offset="1" stop-color="#5597FD"/>
</linearGradient>
<linearGradient id="paint13_linear_9839_2696" x1="86.8599" y1="5.4436" x2="86.8599" y2="13.4436" gradientUnits="userSpaceOnUse">
<stop stop-color="#FFE070"/>
<stop offset="1" stop-color="#5597FD"/>
</linearGradient>
<linearGradient id="paint14_linear_9839_2696" x1="151.94" y1="99.9097" x2="160.772" y2="108.582" gradientUnits="userSpaceOnUse">
<stop stop-color="#FFE070"/>
<stop offset="1" stop-color="#5597FD"/>
</linearGradient>
<linearGradient id="paint15_linear_9839_2696" x1="21.4087" y1="100.636" x2="12.3671" y2="109.071" gradientUnits="userSpaceOnUse">
<stop stop-color="#FFE070"/>
<stop offset="1" stop-color="#5597FD"/>
</linearGradient>
<linearGradient id="paint16_linear_9839_2696" x1="157.833" y1="32.2742" x2="157.833" y2="40.2742" gradientUnits="userSpaceOnUse">
<stop stop-color="#FFE070"/>
<stop offset="1" stop-color="#5597FD"/>
</linearGradient>
</defs>
</svg>
