<svg width="940" height="466" viewBox="0 0 940 466" fill="none" xmlns="http://www.w3.org/2000/svg">
<g clip-path="url(#clip0_112_1034)">
<path d="M340.5 432L343.336 439.664L351 442.5L343.336 445.336L340.5 453L337.664 445.336L330 442.5L337.664 439.664L340.5 432Z" fill="white"/>
<path d="M676.5 162L680.416 172.584L691 176.5L680.416 180.416L676.5 191L672.584 180.416L662 176.5L672.584 172.584L676.5 162Z" fill="white"/>
<path d="M612.5 66L618.847 83.1529L636 89.5L618.847 95.8471L612.5 113L606.153 95.8471L589 89.5L606.153 83.1529L612.5 66Z" fill="white"/>
<path d="M50.5 185L53.336 192.664L61 195.5L53.336 198.336L50.5 206L47.664 198.336L40 195.5L47.664 192.664L50.5 185Z" fill="white"/>
<rect x="600.5" y="279.454" width="179.884" height="58.6918" rx="1.5" stroke="white"/>
<rect x="609.544" y="337.336" width="161.796" height="89.4422" stroke="white"/>
<rect x="675.972" y="278.954" width="28.9415" height="148.325" fill="white"/>
<path d="M690.442 280.762C678.383 260.865 650.647 225.412 636.177 242.777C621.706 260.142 666.324 275.336 690.442 280.762Z" fill="white" stroke="white"/>
<path d="M689.425 280.762C701.484 260.865 729.22 225.412 743.69 242.777C758.161 260.142 713.543 275.336 689.425 280.762Z" fill="white" stroke="white"/>
<path d="M834.923 197.239C823.509 178.405 797.256 144.847 783.559 161.283C769.862 177.72 812.095 192.102 834.923 197.239Z" fill="white" stroke="white"/>
<path d="M833.961 197.239C845.375 178.405 871.628 144.847 885.325 161.284C899.022 177.72 856.789 192.102 833.961 197.239Z" fill="white" stroke="white"/>
<rect x="793.058" y="196.118" width="80.7163" height="230.06" stroke="white"/>
<rect x="817.918" y="195.925" width="30.9958" height="229.539" fill="white"/>
<rect x="178.532" y="96.6487" width="358.551" height="117.652" rx="1.5" stroke="white"/>
<path d="M196.009 393.571V213.795H519.605V349.584M288.74 393.571H443.121" stroke="white"/>
<path d="M329.043 96.1487H386.571V392.98H329.043V96.1487Z" fill="white"/>
<path fill-rule="evenodd" clip-rule="evenodd" d="M357.562 99.3401C357.644 99.4752 357.726 99.61 357.807 99.7443C357.472 99.669 357.135 99.5927 356.797 99.5154C356.458 99.5927 356.121 99.669 355.786 99.7444C355.867 99.61 355.949 99.4752 356.031 99.3401C307.716 88.2189 221.529 58.3336 249.942 24.2387C278.309 -9.80161 332.32 58.2676 356.796 98.0886C381.273 58.2676 435.284 -9.80159 463.651 24.2387C492.064 58.3337 405.876 88.2189 357.562 99.3401Z" fill="white"/>
<path d="M357.807 99.7443L357.697 100.232L358.844 100.49L358.235 99.4852L357.807 99.7443ZM357.562 99.3401L357.45 98.8529L356.775 99.0082L357.135 99.6L357.562 99.3401ZM356.797 99.5154L356.908 99.0279L356.797 99.0026L356.685 99.0279L356.797 99.5154ZM355.786 99.7444L355.358 99.4852L354.749 100.49L355.896 100.232L355.786 99.7444ZM356.031 99.3401L356.458 99.5999L356.818 99.0082L356.143 98.8529L356.031 99.3401ZM249.942 24.2387L249.558 23.9186L249.942 24.2387ZM356.796 98.0886L356.371 98.3505L356.796 99.0434L357.222 98.3505L356.796 98.0886ZM463.651 24.2387L464.035 23.9186L463.651 24.2387ZM358.235 99.4852C358.153 99.3506 358.071 99.2156 357.989 99.0803L357.135 99.6C357.217 99.7348 357.298 99.8693 357.38 100.003L358.235 99.4852ZM356.685 100.003C357.025 100.08 357.362 100.157 357.697 100.232L357.917 99.2565C357.582 99.1813 357.246 99.1051 356.908 99.0279L356.685 100.003ZM356.685 99.0279C356.347 99.1051 356.011 99.1813 355.676 99.2565L355.896 100.232C356.231 100.157 356.568 100.08 356.908 100.003L356.685 99.0279ZM356.213 100.004C356.295 99.8693 356.376 99.7348 356.458 99.5999L355.604 99.0803C355.522 99.2156 355.44 99.3506 355.358 99.4852L356.213 100.004ZM249.558 23.9186C245.954 28.2431 244.139 32.5366 243.862 36.7659C243.586 40.9947 244.851 45.105 247.313 49.0575C252.223 56.9411 261.938 64.2716 273.974 70.8434C298.067 83.9986 331.744 94.2626 355.919 99.8274L356.143 98.8529C332.004 93.2964 298.43 83.0571 274.453 69.9657C262.455 63.4141 252.931 56.1855 248.162 48.5288C245.784 44.7112 244.6 40.8061 244.86 36.8311C245.12 32.8567 246.827 28.758 250.326 24.5587L249.558 23.9186ZM357.222 97.8268C344.972 77.8973 325.32 50.8775 305.159 33.0907C295.083 24.202 284.833 17.5754 275.277 15.3304C270.492 14.2059 265.866 14.1775 261.525 15.5279C257.182 16.8789 253.157 19.5996 249.558 23.9186L250.326 24.5587C253.819 20.3676 257.687 17.7692 261.822 16.4828C265.96 15.1957 270.4 15.2116 275.049 16.3039C284.364 18.4924 294.464 24.9894 304.497 33.8406C324.552 51.5335 344.144 78.4589 356.371 98.3505L357.222 97.8268ZM357.222 98.3505C369.449 78.4589 389.041 51.5335 409.096 33.8406C419.129 24.9894 429.229 18.4924 438.544 16.3039C443.193 15.2116 447.633 15.1957 451.771 16.4828C455.906 17.7692 459.774 20.3677 463.267 24.5588L464.035 23.9186C460.436 19.5996 456.411 16.8789 452.068 15.5279C447.727 14.1776 443.101 14.2059 438.315 15.3304C428.76 17.5754 418.51 24.202 408.434 33.0907C388.273 50.8775 368.621 77.8973 356.371 97.8268L357.222 98.3505ZM463.267 24.5588C466.766 28.758 468.473 32.8567 468.733 36.8311C468.993 40.8061 467.809 44.7112 465.431 48.5288C460.662 56.1855 451.138 63.4141 439.14 69.9657C415.163 83.0571 381.589 93.2964 357.45 98.8529L357.674 99.8274C381.849 94.2626 415.526 83.9986 439.619 70.8434C451.655 64.2716 461.37 56.9411 466.28 49.0575C468.742 45.105 470.007 40.9947 469.731 36.7659C469.454 32.5366 467.639 28.2431 464.035 23.9186L463.267 24.5588Z" fill="white"/>
<rect x="437.34" y="349.828" width="124.16" height="40.3026" rx="1.5" stroke="white"/>
<rect x="443.598" y="389.88" width="111.644" height="61.5798" stroke="white"/>
<rect x="489.408" y="349.328" width="20.0255" height="102.631" fill="white"/>
<path fill-rule="evenodd" clip-rule="evenodd" d="M498.802 350.439C498.773 350.486 498.745 350.533 498.717 350.58C498.833 350.554 498.95 350.527 499.068 350.5C499.186 350.527 499.303 350.554 499.42 350.58C499.392 350.533 499.363 350.486 499.335 350.439C516.153 346.568 546.155 336.165 536.264 324.297C526.39 312.447 507.589 336.142 499.068 350.004C490.548 336.142 471.747 312.447 461.872 324.297C451.982 336.165 481.984 346.568 498.802 350.439Z" fill="white"/>
<path d="M498.717 350.58L498.289 350.321L497.68 351.326L498.826 351.068L498.717 350.58ZM498.802 350.439L499.229 350.699L499.589 350.108L498.914 349.952L498.802 350.439ZM499.068 350.5L499.179 350.013L499.068 349.988L498.957 350.013L499.068 350.5ZM499.42 350.58L499.31 351.068L500.457 351.326L499.848 350.321L499.42 350.58ZM499.335 350.439L499.222 349.952L498.547 350.107L498.907 350.699L499.335 350.439ZM536.264 324.297L535.88 324.617L535.88 324.617L536.264 324.297ZM499.068 350.004L498.642 350.266L499.068 350.959L499.494 350.266L499.068 350.004ZM461.872 324.297L461.488 323.977L461.488 323.977L461.872 324.297ZM499.144 350.839C499.172 350.793 499.201 350.746 499.229 350.699L498.375 350.18C498.346 350.227 498.317 350.274 498.289 350.321L499.144 350.839ZM498.957 350.013C498.839 350.04 498.723 350.066 498.607 350.092L498.826 351.068C498.943 351.042 499.061 351.015 499.179 350.988L498.957 350.013ZM498.957 350.988C499.075 351.015 499.193 351.042 499.31 351.068L499.53 350.092C499.414 350.066 499.297 350.04 499.179 350.013L498.957 350.988ZM499.848 350.321C499.819 350.274 499.79 350.227 499.762 350.18L498.907 350.699C498.936 350.746 498.964 350.793 498.992 350.839L499.848 350.321ZM535.88 324.617C537.064 326.038 537.623 327.401 537.708 328.701C537.793 330.002 537.408 331.295 536.607 332.58C534.993 335.171 531.74 337.654 527.576 339.928C519.268 344.464 507.614 348.021 499.222 349.952L499.447 350.927C507.874 348.987 519.63 345.406 528.055 340.806C532.257 338.512 535.701 335.927 537.456 333.108C538.34 331.689 538.808 330.191 538.706 328.636C538.604 327.081 537.937 325.523 536.649 323.976L535.88 324.617ZM499.494 350.266C503.743 343.354 510.543 334.012 517.489 327.883C520.968 324.815 524.435 322.595 527.599 321.852C529.173 321.482 530.658 321.481 532.032 321.908C533.404 322.335 534.699 323.199 535.88 324.617L536.649 323.976C535.361 322.431 533.909 321.444 532.329 320.953C530.752 320.462 529.081 320.476 527.37 320.878C523.966 321.678 520.349 324.027 516.828 327.134C509.775 333.356 502.914 342.792 498.642 349.742L499.494 350.266ZM499.494 349.742C495.222 342.792 488.362 333.356 481.309 327.134C477.788 324.027 474.171 321.678 470.766 320.878C469.055 320.476 467.385 320.463 465.807 320.953C464.228 321.445 462.776 322.431 461.488 323.977L462.256 324.617C463.437 323.2 464.733 322.335 466.105 321.908C467.479 321.481 468.964 321.482 470.537 321.852C473.701 322.595 477.169 324.815 480.647 327.884C487.594 334.012 494.394 343.354 498.642 350.266L499.494 349.742ZM461.488 323.977C460.2 325.523 459.532 327.081 459.431 328.636C459.329 330.191 459.796 331.689 460.68 333.108C462.436 335.927 465.88 338.512 470.082 340.806C478.507 345.406 490.263 348.987 498.69 350.927L498.914 349.952C490.523 348.021 478.869 344.464 470.561 339.928C466.396 337.654 463.143 335.171 461.529 332.58C460.729 331.295 460.343 330.002 460.428 328.701C460.513 327.401 461.072 326.038 462.256 324.617L461.488 323.977Z" fill="white"/>
<rect x="51.5" y="231.971" width="249.653" height="81.7156" rx="1.5" stroke="white"/>
<rect x="64.0327" y="314.18" width="224.588" height="124.327" stroke="white"/>
<rect x="156.274" y="231.471" width="40.1045" height="205.536" fill="white"/>
<path fill-rule="evenodd" clip-rule="evenodd" d="M176.155 233.696C176.213 233.79 176.27 233.884 176.326 233.978C176.093 233.925 175.858 233.872 175.622 233.818C175.386 233.872 175.151 233.925 174.917 233.978C174.974 233.884 175.031 233.79 175.088 233.696C141.407 225.943 81.3231 205.109 101.13 181.34C120.906 157.61 158.558 205.063 175.622 232.824C192.685 205.063 230.338 157.61 250.113 181.341C269.92 205.109 209.837 225.943 176.155 233.696Z" fill="white"/>
<path d="M176.326 233.978L176.217 234.465L177.363 234.723L176.754 233.718L176.326 233.978ZM176.155 233.696L176.043 233.209L175.368 233.364L175.728 233.956L176.155 233.696ZM175.622 233.818L175.733 233.331L175.622 233.305L175.511 233.331L175.622 233.818ZM174.917 233.978L174.49 233.719L173.881 234.724L175.027 234.466L174.917 233.978ZM175.088 233.696L175.516 233.956L175.876 233.364L175.201 233.209L175.088 233.696ZM101.13 181.34L101.514 181.661L101.514 181.661L101.13 181.34ZM175.622 232.824L175.196 233.085L175.622 233.778L176.048 233.085L175.622 232.824ZM250.113 181.341L250.497 181.021L250.497 181.021L250.113 181.341ZM176.754 233.718C176.697 233.625 176.64 233.531 176.583 233.436L175.728 233.956C175.785 234.05 175.842 234.143 175.899 234.237L176.754 233.718ZM175.511 234.306C175.748 234.36 175.983 234.413 176.217 234.465L176.436 233.49C176.203 233.437 175.969 233.384 175.733 233.331L175.511 234.306ZM175.511 233.331C175.275 233.384 175.041 233.438 174.807 233.49L175.027 234.466C175.261 234.413 175.497 234.36 175.733 234.306L175.511 233.331ZM175.345 234.237C175.402 234.144 175.458 234.05 175.516 233.956L174.661 233.436C174.604 233.531 174.547 233.625 174.49 233.719L175.345 234.237ZM100.746 181.02C98.2181 184.054 96.9362 187.077 96.7409 190.064C96.5457 193.05 97.4403 195.947 99.1692 198.722C102.614 204.253 109.415 209.378 117.811 213.963C134.625 223.143 158.118 230.303 174.976 234.183L175.201 233.209C158.378 229.336 134.987 222.202 118.291 213.085C109.932 208.521 103.321 203.497 100.018 198.194C98.3731 195.553 97.5602 192.862 97.7388 190.129C97.9174 187.397 99.0907 184.569 101.514 181.661L100.746 181.02ZM176.048 232.562C167.504 218.663 153.795 199.812 139.724 187.398C132.694 181.196 125.525 176.556 118.827 174.983C115.47 174.194 112.218 174.172 109.16 175.123C106.101 176.075 103.271 177.99 100.746 181.02L101.514 181.661C103.933 178.758 106.606 176.965 109.457 176.078C112.311 175.19 115.378 175.2 118.598 175.956C125.056 177.473 132.074 181.983 139.062 188.148C153.027 200.468 166.676 219.224 175.196 233.085L176.048 232.562ZM176.048 233.085C184.568 219.224 198.217 200.468 212.181 188.148C219.169 181.983 226.188 177.474 232.645 175.957C235.865 175.2 238.932 175.191 241.786 176.078C244.638 176.965 247.31 178.758 249.729 181.661L250.497 181.021C247.972 177.99 245.142 176.075 242.083 175.124C239.026 174.173 235.774 174.194 232.416 174.983C225.719 176.557 218.55 181.196 211.52 187.398C197.449 199.812 183.739 218.663 175.196 232.562L176.048 233.085ZM249.729 181.661C252.153 184.569 253.326 187.397 253.505 190.129C253.683 192.862 252.87 195.553 251.226 198.194C247.922 203.497 241.312 208.521 232.953 213.085C216.256 222.202 192.866 229.336 176.043 233.209L176.268 234.183C193.126 230.303 216.619 223.144 233.432 213.963C241.828 209.379 248.63 204.253 252.074 198.723C253.803 195.947 254.698 193.05 254.503 190.064C254.307 187.077 253.025 184.054 250.497 181.021L249.729 181.661Z" fill="white"/>
<circle cx="176.5" cy="273.5" r="26.5" fill="url(#paint0_linear_112_1034)"/>
<path d="M175.836 288C178.23 288 179.934 286.105 179.934 283.451C179.934 280.797 178.23 278.902 175.836 278.902C173.475 278.902 171.738 280.797 171.738 283.451C171.738 286.105 173.475 288 175.836 288ZM179.115 278.144C179.115 275.642 180.361 274.732 182.066 273.822C184.328 272.609 186 270.145 186 267.112C186 262.336 181.934 259 176.426 259C170.525 259 166.361 262.829 166 268.174L173.541 269.766C173.738 267.681 174.689 266.203 176.033 266.203C177.049 266.203 177.803 266.999 177.803 268.098C177.803 269.387 176.689 270.183 175.803 270.79C173.443 272.571 172.557 274.542 172.557 278.144H179.115Z" fill="#1F2D75"/>
<circle cx="834" cy="228" r="21" fill="url(#paint1_linear_112_1034)"/>
<path d="M833.869 240C835.784 240 837.148 238.431 837.148 236.235C837.148 234.039 835.784 232.471 833.869 232.471C831.98 232.471 830.59 234.039 830.59 236.235C830.59 238.431 831.98 240 833.869 240ZM836.492 231.843C836.492 229.773 837.489 229.02 838.852 228.267C840.662 227.263 842 225.224 842 222.714C842 218.761 838.748 216 834.341 216C829.62 216 826.289 219.169 826 223.592L832.033 224.91C832.19 223.184 832.951 221.961 834.026 221.961C834.839 221.961 835.443 222.62 835.443 223.529C835.443 224.596 834.551 225.255 833.843 225.757C831.954 227.231 831.246 228.863 831.246 231.843H836.492Z" fill="#1F2D75"/>
<circle cx="357" cy="155" r="33" fill="url(#paint2_linear_112_1034)"/>
<path d="M356.77 176C360.121 176 362.508 173.32 362.508 169.569C362.508 165.817 360.121 163.137 356.77 163.137C353.466 163.137 351.033 165.817 351.033 169.569C351.033 173.32 353.466 176 356.77 176ZM361.361 162.065C361.361 158.528 363.105 157.242 365.492 155.956C368.659 154.241 371 150.757 371 146.469C371 139.716 365.308 135 357.597 135C349.334 135 343.505 140.413 343 147.97L353.557 150.221C353.833 147.273 355.164 145.183 357.046 145.183C358.469 145.183 359.525 146.308 359.525 147.863C359.525 149.685 357.964 150.81 356.725 151.668C353.42 154.187 352.18 156.974 352.18 162.065H361.361Z" fill="#1F2D75"/>
<circle cx="499" cy="370" r="13" fill="url(#paint3_linear_112_1034)"/>
<path d="M498.918 377C500.115 377 500.967 376.085 500.967 374.804C500.967 373.523 500.115 372.608 498.918 372.608C497.738 372.608 496.869 373.523 496.869 374.804C496.869 376.085 497.738 377 498.918 377ZM500.557 372.242C500.557 371.034 501.18 370.595 502.033 370.156C503.164 369.57 504 368.38 504 366.916C504 364.61 501.967 363 499.213 363C496.262 363 494.18 364.848 494 367.429L497.77 368.197C497.869 367.191 498.344 366.477 499.016 366.477C499.525 366.477 499.902 366.861 499.902 367.392C499.902 368.014 499.344 368.399 498.902 368.692C497.721 369.552 497.279 370.503 497.279 372.242H500.557Z" fill="#1F2D75"/>
<circle cx="690.5" cy="309.5" r="19.5" fill="url(#paint4_linear_112_1034)"/>
<path d="M689.869 322C691.784 322 693.148 320.431 693.148 318.235C693.148 316.039 691.784 314.471 689.869 314.471C687.98 314.471 686.59 316.039 686.59 318.235C686.59 320.431 687.98 322 689.869 322ZM692.492 313.843C692.492 311.773 693.489 311.02 694.852 310.267C696.662 309.263 698 307.224 698 304.714C698 300.761 694.748 298 690.341 298C685.62 298 682.289 301.169 682 305.592L688.033 306.91C688.19 305.184 688.951 303.961 690.026 303.961C690.839 303.961 691.443 304.62 691.443 305.529C691.443 306.596 690.551 307.255 689.843 307.757C687.954 309.231 687.246 310.863 687.246 313.843H692.492Z" fill="#1F2D75"/>
<path d="M765 45H916.061" stroke="#BFC3D9" stroke-width="1.5"/>
<path d="M922.67 35.1112L925.261 42.1135L925.341 42.3291L925.557 42.4089L932.559 45L925.557 47.5911L925.341 47.6709L925.261 47.8865L922.67 54.8889L920.079 47.8865L920 47.6709L919.784 47.5911L912.782 45L919.784 42.4089L920 42.3291L920.079 42.1135L922.67 35.1112Z" fill="#BFC3D9" stroke="#BFC3D9"/>
</g>
<defs>
<linearGradient id="paint0_linear_112_1034" x1="176.5" y1="249.008" x2="176.713" y2="299.999" gradientUnits="userSpaceOnUse">
<stop stop-color="#E0ECFF"/>
<stop offset="1" stop-color="#7FB2FF"/>
</linearGradient>
<linearGradient id="paint1_linear_112_1034" x1="834" y1="208.591" x2="834.169" y2="248.999" gradientUnits="userSpaceOnUse">
<stop stop-color="#E0ECFF"/>
<stop offset="1" stop-color="#7FB2FF"/>
</linearGradient>
<linearGradient id="paint2_linear_112_1034" x1="357" y1="124.5" x2="357.265" y2="187.999" gradientUnits="userSpaceOnUse">
<stop stop-color="#E0ECFF"/>
<stop offset="1" stop-color="#7FB2FF"/>
</linearGradient>
<linearGradient id="paint3_linear_112_1034" x1="499" y1="357.985" x2="499.105" y2="383" gradientUnits="userSpaceOnUse">
<stop stop-color="#E0ECFF"/>
<stop offset="1" stop-color="#7FB2FF"/>
</linearGradient>
<linearGradient id="paint4_linear_112_1034" x1="690.5" y1="291.477" x2="690.657" y2="328.999" gradientUnits="userSpaceOnUse">
<stop stop-color="#E0ECFF"/>
<stop offset="1" stop-color="#7FB2FF"/>
</linearGradient>
<clipPath id="clip0_112_1034">
<rect width="940" height="466" rx="4" fill="white"/>
</clipPath>
</defs>
</svg>
