<svg width="174" height="40" viewBox="0 0 174 40" fill="none" xmlns="http://www.w3.org/2000/svg">
<path fill-rule="evenodd" clip-rule="evenodd" d="M26.3519 18.2384L28.0683 14.0045H22.1915L26.3519 18.2384ZM25.5851 20.1295L21.1418 31.0896L30.905 14.0045H37.2857L20.0115 36L3 14.0045H9.25105L19.0142 31.0896L14.5781 20.1475L20.0905 14.5378L25.5851 20.1295ZM12.0877 14.0045L13.8114 18.2563L17.9895 14.0045H12.0877ZM35.6427 11.4484H30.0282L24.2713 6H31.7082L35.6427 11.4484ZM27.0952 11.4484L21.2301 6.01449V11.4484H27.0952ZM18.9213 11.4484V6.01871L13.0609 11.4484H18.9213ZM15.8847 6H8.71127L4.68528 11.4484H10.1278L15.8847 6Z" fill="white"/>
<path d="M100.479 33.6851H94.2832V35.7505H100.479V37.4819H94.2832C94.0488 37.4819 93.8262 37.438 93.6152 37.3501C93.4043 37.2563 93.2197 37.1333 93.0615 36.981C92.9092 36.8228 92.7861 36.6382 92.6924 36.4272C92.6045 36.2163 92.5605 35.9907 92.5605 35.7505V29.853C92.5605 29.6128 92.6045 29.3872 92.6924 29.1763C92.7861 28.9653 92.9092 28.7837 93.0615 28.6313C93.2197 28.4731 93.4043 28.3501 93.6152 28.2622C93.8262 28.1685 94.0488 28.1216 94.2832 28.1216H98.748C98.9883 28.1216 99.2139 28.1685 99.4248 28.2622C99.6357 28.3501 99.8174 28.4731 99.9697 28.6313C100.128 28.7837 100.251 28.9653 100.339 29.1763C100.433 29.3872 100.479 29.6128 100.479 29.853V33.6851ZM94.2832 29.853V31.9536H98.748V29.853H94.2832Z" fill="white"/>
<path d="M89.6777 37.4819H87.9463V29.853H83.1211V37.4819H81.3984V28.1216H83.1211V29.7739C83.1328 29.5454 83.1855 29.3315 83.2793 29.1323C83.373 28.9272 83.4961 28.7515 83.6484 28.605C83.8066 28.4526 83.9883 28.3354 84.1934 28.2534C84.3984 28.1655 84.6182 28.1216 84.8525 28.1216H87.9463C88.1865 28.1216 88.4121 28.1685 88.623 28.2622C88.834 28.3501 89.0156 28.4731 89.168 28.6313C89.3262 28.7837 89.4492 28.9653 89.5371 29.1763C89.6309 29.3872 89.6777 29.6128 89.6777 29.853V37.4819Z" fill="white"/>
<path d="M78.5068 35.7505C78.5068 35.9907 78.46 36.2163 78.3662 36.4272C78.2783 36.6382 78.1553 36.8228 77.9971 36.981C77.8447 37.1333 77.6631 37.2563 77.4521 37.3501C77.2471 37.438 77.0244 37.4819 76.7842 37.4819H72.1348C71.9004 37.4819 71.6777 37.438 71.4668 37.3501C71.2559 37.2563 71.0713 37.1333 70.9131 36.981C70.7607 36.8228 70.6377 36.6382 70.5439 36.4272C70.4561 36.2163 70.4121 35.9907 70.4121 35.7505V29.853C70.4121 29.6128 70.4561 29.3872 70.5439 29.1763C70.6377 28.9653 70.7607 28.7837 70.9131 28.6313C71.0713 28.4731 71.2559 28.3501 71.4668 28.2622C71.6777 28.1685 71.9004 28.1216 72.1348 28.1216H76.7842C77.0244 28.1216 77.2471 28.1685 77.4521 28.2622C77.6631 28.3501 77.8447 28.4731 77.9971 28.6313C78.1553 28.7837 78.2783 28.9653 78.3662 29.1763C78.46 29.3872 78.5068 29.6128 78.5068 29.853V35.7505ZM72.1348 29.853V35.7505H76.7842V29.853H72.1348Z" fill="white"/>
<path d="M60.4277 28.1216H62.7129V25.2388H64.4443V28.1216H67.5205V29.853H64.4443V35.7505H67.5205V37.4819H64.4443C64.21 37.4819 63.9873 37.438 63.7764 37.3501C63.5654 37.2563 63.3809 37.1333 63.2227 36.981C63.0645 36.8228 62.9385 36.6382 62.8447 36.4272C62.7568 36.2163 62.7129 35.9907 62.7129 35.7505V29.853H60.4277V28.1216Z" fill="white"/>
<path d="M49.9775 32.0854C49.7314 32.0854 49.4971 32.0386 49.2744 31.9448C49.0576 31.8452 48.8672 31.7163 48.7031 31.5581C48.5391 31.394 48.4102 31.2036 48.3164 30.9868C48.2227 30.7642 48.1758 30.5298 48.1758 30.2837V26.6802C48.1758 26.4341 48.2227 26.2026 48.3164 25.9858C48.4102 25.7632 48.5391 25.5728 48.7031 25.4146C48.8672 25.2505 49.0576 25.1216 49.2744 25.0278C49.4971 24.9282 49.7314 24.8784 49.9775 24.8784H56.0947C56.3408 24.8784 56.5723 24.9282 56.7891 25.0278C57.0117 25.1216 57.2051 25.2505 57.3691 25.4146C57.5332 25.5728 57.6621 25.7632 57.7559 25.9858C57.8496 26.2026 57.8965 26.4341 57.8965 26.6802V28.3062H56.0947V26.6802H49.9775V30.2837H56.0947C56.3408 30.2837 56.5723 30.3306 56.7891 30.4243C57.0117 30.5181 57.2051 30.647 57.3691 30.811C57.5332 30.9751 57.6621 31.1685 57.7559 31.3911C57.8496 31.6079 57.8965 31.8394 57.8965 32.0854V35.6802C57.8965 35.9263 57.8496 36.1606 57.7559 36.3833C57.6621 36.6001 57.5332 36.7905 57.3691 36.9546C57.2051 37.1187 57.0117 37.2476 56.7891 37.3413C56.5723 37.4351 56.3408 37.4819 56.0947 37.4819H49.8018C49.5557 37.4819 49.3213 37.4351 49.0986 37.3413C48.8818 37.2476 48.6914 37.1187 48.5273 36.9546C48.3633 36.7905 48.2344 36.6001 48.1406 36.3833C48.0469 36.1606 48 35.9263 48 35.6802V34.063H49.8018V35.6802H56.0947V32.0854H49.9775Z" fill="white"/>
<path d="M166.222 15.7505V13.5796H162.117C161.877 13.5796 161.651 13.5356 161.44 13.4478C161.229 13.354 161.045 13.231 160.887 13.0786C160.734 12.9204 160.611 12.7358 160.518 12.5249C160.43 12.314 160.386 12.0884 160.386 11.8481V9.85303C160.386 9.61279 160.43 9.38721 160.518 9.17627C160.611 8.96533 160.734 8.78369 160.887 8.63135C161.045 8.47314 161.229 8.3501 161.44 8.26221C161.651 8.16846 161.877 8.12158 162.117 8.12158H167.593V9.85303H162.117V11.8481H166.222C166.462 11.8481 166.685 11.895 166.89 11.9888C167.101 12.0767 167.285 12.1997 167.443 12.3579C167.602 12.5103 167.725 12.6919 167.812 12.9028C167.906 13.1138 167.953 13.3394 167.953 13.5796V15.7505C167.953 15.9907 167.906 16.2163 167.812 16.4272C167.725 16.6382 167.602 16.8228 167.443 16.981C167.285 17.1333 167.101 17.2563 166.89 17.3501C166.685 17.438 166.462 17.4819 166.222 17.4819H160.386V15.7505H166.222Z" fill="white"/>
<path d="M156.694 10.1958H155.42L156.712 7.50635H155.42V4.87842H158.048V7.50635L156.694 10.1958Z" fill="white"/>
<path d="M147.967 9.85303V17.4819H146.244V8.12158H147.967V9.77393C147.979 9.54541 148.031 9.33154 148.125 9.13232C148.219 8.92725 148.342 8.75146 148.494 8.60498C148.652 8.45264 148.834 8.33545 149.039 8.25342C149.244 8.16553 149.464 8.12158 149.698 8.12158H151.535C151.775 8.12158 151.998 8.16846 152.203 8.26221C152.414 8.3501 152.599 8.47314 152.757 8.63135C152.915 8.78369 153.038 8.96533 153.126 9.17627C153.22 9.38721 153.267 9.61279 153.267 9.85303V11.4351H151.535V9.85303H147.967Z" fill="white"/>
<path d="M143.353 13.6851H137.156V15.7505H143.353V17.4819H137.156C136.922 17.4819 136.699 17.438 136.488 17.3501C136.277 17.2563 136.093 17.1333 135.935 16.981C135.782 16.8228 135.659 16.6382 135.565 16.4272C135.478 16.2163 135.434 15.9907 135.434 15.7505V9.85303C135.434 9.61279 135.478 9.38721 135.565 9.17627C135.659 8.96533 135.782 8.78369 135.935 8.63135C136.093 8.47314 136.277 8.3501 136.488 8.26221C136.699 8.16846 136.922 8.12158 137.156 8.12158H141.621C141.861 8.12158 142.087 8.16846 142.298 8.26221C142.509 8.3501 142.69 8.47314 142.843 8.63135C143.001 8.78369 143.124 8.96533 143.212 9.17627C143.306 9.38721 143.353 9.61279 143.353 9.85303V13.6851ZM137.156 9.85303V11.9536H141.621V9.85303H137.156Z" fill="white"/>
<path d="M132.551 17.4819H130.819V9.85303H125.994V17.4819H124.271V4.51807H125.994V9.77393C126.006 9.54541 126.059 9.33154 126.152 9.13232C126.246 8.92725 126.369 8.75146 126.521 8.60498C126.68 8.45264 126.861 8.33545 127.066 8.25342C127.271 8.16553 127.491 8.12158 127.726 8.12158H130.819C131.06 8.12158 131.285 8.16846 131.496 8.26221C131.707 8.3501 131.889 8.47314 132.041 8.63135C132.199 8.78369 132.322 8.96533 132.41 9.17627C132.504 9.38721 132.551 9.61279 132.551 9.85303V17.4819Z" fill="white"/>
<path d="M121.389 15.7505C121.389 15.9907 121.342 16.2163 121.248 16.4272C121.16 16.6382 121.037 16.8228 120.879 16.981C120.727 17.1333 120.545 17.2563 120.334 17.3501C120.123 17.438 119.897 17.4819 119.657 17.4819H114.832V21.2612H113.109V8.12158H114.832V9.70361C114.85 9.48096 114.908 9.27588 115.008 9.08838C115.107 8.89502 115.233 8.72803 115.386 8.5874C115.538 8.44092 115.714 8.32666 115.913 8.24463C116.118 8.1626 116.335 8.12158 116.563 8.12158H119.657C119.897 8.12158 120.123 8.16846 120.334 8.26221C120.545 8.3501 120.727 8.47314 120.879 8.63135C121.037 8.78369 121.16 8.96533 121.248 9.17627C121.342 9.38721 121.389 9.61279 121.389 9.85303V15.7505ZM119.657 15.7505V9.85303H114.832V15.7505H119.657Z" fill="white"/>
<path d="M110.218 15.7505C110.218 15.9907 110.171 16.2163 110.077 16.4272C109.989 16.6382 109.866 16.8228 109.708 16.981C109.556 17.1333 109.374 17.2563 109.163 17.3501C108.958 17.438 108.735 17.4819 108.495 17.4819H103.846C103.611 17.4819 103.389 17.438 103.178 17.3501C102.967 17.2563 102.782 17.1333 102.624 16.981C102.472 16.8228 102.349 16.6382 102.255 16.4272C102.167 16.2163 102.123 15.9907 102.123 15.7505V9.85303C102.123 9.61279 102.167 9.38721 102.255 9.17627C102.349 8.96533 102.472 8.78369 102.624 8.63135C102.782 8.47314 102.967 8.3501 103.178 8.26221C103.389 8.16846 103.611 8.12158 103.846 8.12158H108.495C108.735 8.12158 108.958 8.16846 109.163 8.26221C109.374 8.3501 109.556 8.47314 109.708 8.63135C109.866 8.78369 109.989 8.96533 110.077 9.17627C110.171 9.38721 110.218 9.61279 110.218 9.85303V15.7505ZM103.846 9.85303V15.7505H108.495V9.85303H103.846Z" fill="white"/>
<path d="M97.6846 15.7505V13.5796H93.5801C93.3398 13.5796 93.1143 13.5356 92.9033 13.4478C92.6924 13.354 92.5078 13.231 92.3496 13.0786C92.1973 12.9204 92.0742 12.7358 91.9805 12.5249C91.8926 12.314 91.8486 12.0884 91.8486 11.8481V9.85303C91.8486 9.61279 91.8926 9.38721 91.9805 9.17627C92.0742 8.96533 92.1973 8.78369 92.3496 8.63135C92.5078 8.47314 92.6924 8.3501 92.9033 8.26221C93.1143 8.16846 93.3398 8.12158 93.5801 8.12158H99.0557V9.85303H93.5801V11.8481H97.6846C97.9248 11.8481 98.1475 11.895 98.3525 11.9888C98.5635 12.0767 98.748 12.1997 98.9062 12.3579C99.0645 12.5103 99.1875 12.6919 99.2754 12.9028C99.3691 13.1138 99.416 13.3394 99.416 13.5796V15.7505C99.416 15.9907 99.3691 16.2163 99.2754 16.4272C99.1875 16.6382 99.0645 16.8228 98.9062 16.981C98.748 17.1333 98.5635 17.2563 98.3525 17.3501C98.1475 17.438 97.9248 17.4819 97.6846 17.4819H91.8486V15.7505H97.6846Z" fill="white"/>
<path d="M89.1416 15.7505C89.1416 15.9907 89.0947 16.2163 89.001 16.4272C88.9131 16.6382 88.79 16.8228 88.6318 16.981C88.4795 17.1333 88.2979 17.2563 88.0869 17.3501C87.8818 17.438 87.6592 17.4819 87.4189 17.4819H82.7695C82.5352 17.4819 82.3125 17.438 82.1016 17.3501C81.8906 17.2563 81.7061 17.1333 81.5479 16.981C81.3955 16.8228 81.2725 16.6382 81.1787 16.4272C81.0908 16.2163 81.0469 15.9907 81.0469 15.7505V9.85303C81.0469 9.61279 81.0908 9.38721 81.1787 9.17627C81.2725 8.96533 81.3955 8.78369 81.5479 8.63135C81.7061 8.47314 81.8906 8.3501 82.1016 8.26221C82.3125 8.16846 82.5352 8.12158 82.7695 8.12158H87.4189C87.6592 8.12158 87.8818 8.16846 88.0869 8.26221C88.2979 8.3501 88.4795 8.47314 88.6318 8.63135C88.79 8.78369 88.9131 8.96533 89.001 9.17627C89.0947 9.38721 89.1416 9.61279 89.1416 9.85303V15.7505ZM82.7695 9.85303V15.7505H87.4189V9.85303H82.7695Z" fill="white"/>
<path d="M78.1641 4.51807V17.4819H76.4414V4.51807H78.1641Z" fill="white"/>
<path d="M72.5 3L73.0402 4.45982L74.5 5L73.0402 5.54018L72.5 7L71.9598 5.54018L70.5 5L71.9598 4.45982L72.5 3Z" fill="#B7C4FF"/>
<path d="M73.4619 8.12158V17.4819H71.7305V8.12158H73.4619Z" fill="white"/>
<path d="M68.7598 17.4819H67.0283V9.85303H62.2031V17.4819H60.4805V4.51807H62.2031V9.77393C62.2148 9.54541 62.2676 9.33154 62.3613 9.13232C62.4551 8.92725 62.5781 8.75146 62.7305 8.60498C62.8887 8.45264 63.0703 8.33545 63.2754 8.25342C63.4805 8.16553 63.7002 8.12158 63.9346 8.12158H67.0283C67.2686 8.12158 67.4941 8.16846 67.7051 8.26221C67.916 8.3501 68.0977 8.47314 68.25 8.63135C68.4082 8.78369 68.5312 8.96533 68.6191 9.17627C68.7129 9.38721 68.7598 9.61279 68.7598 9.85303V17.4819Z" fill="white"/>
<path d="M48.1758 17.4819V4.87842H55.0752C57.1143 4.87842 58.1338 5.90088 58.1338 7.9458V9.73877C58.1338 11.7837 57.1143 12.8062 55.0752 12.8062H49.9775V17.4819H48.1758ZM49.9775 11.0044H54.9785C55.459 11.0044 55.8047 10.8989 56.0156 10.688C56.2266 10.4771 56.332 10.1313 56.332 9.65088V8.03369C56.332 7.55322 56.2266 7.20752 56.0156 6.99658C55.8047 6.78564 55.459 6.68018 54.9785 6.68018H49.9775V11.0044Z" fill="white"/>
</svg>
