<svg width="40" height="40" viewBox="0 0 40 40" fill="none" xmlns="http://www.w3.org/2000/svg">
<path fill-rule="evenodd" clip-rule="evenodd" d="M25.7591 17.4225L27.3515 13.4708H21.8996L25.7591 17.4225ZM25.0479 19.1876L20.9259 29.417L29.9829 13.4708H36L19.8774 34L4 13.4708H9.89525L18.9522 29.417L14.837 19.2044L19.9507 13.9686L25.0479 19.1876ZM12.5267 13.4708L14.1258 17.4394L18.0017 13.4708H12.5267ZM34.4665 11.0852H29.1694L23.829 6H30.7943L34.4665 11.0852ZM26.4485 11.0852L21.0079 6.01363V11.0852H26.4485ZM18.8661 11.0852V6.01746L13.4296 11.0852H18.8661ZM16.0491 6H9.33052L5.57293 11.0852H10.7087L16.0491 6Z" fill="white"/>
</svg>
