<svg width="940" height="466" viewBox="0 0 940 466" fill="none" xmlns="http://www.w3.org/2000/svg">
<g clip-path="url(#clip0_109_684)">
<path d="M278 390L279.621 394.379L284 396L279.621 397.621L278 402L276.379 397.621L272 396L276.379 394.379L278 390Z" fill="white"/>
<path d="M742 27L743.621 31.3795L748 33L743.621 34.6205L742 39L740.379 34.6205L736 33L740.379 31.3795L742 27Z" fill="white"/>
<path d="M595 66L596.621 70.3795L601 72L596.621 73.6205L595 78L593.379 73.6205L589 72L593.379 70.3795L595 66Z" fill="white"/>
<path d="M53 201L53.8103 203.19L56 204L53.8103 204.81L53 207L52.1897 204.81L50 204L52.1897 203.19L53 201Z" fill="white"/>
<rect x="743.5" y="371.793" width="89.3649" height="28.8204" rx="1.5" stroke="white"/>
<rect x="748.018" y="400.709" width="80.3284" height="44.1825" stroke="white"/>
<rect x="780.953" y="371.293" width="14.4584" height="74.0992" fill="white"/>
<path d="M788.182 372.197C782.158 362.256 768.302 344.545 761.073 353.22C753.844 361.895 776.134 369.486 788.182 372.197Z" fill="white" stroke="white"/>
<path d="M787.674 372.197C793.699 362.256 807.555 344.545 814.784 353.22C822.013 361.895 799.723 369.486 787.674 372.197Z" fill="white" stroke="white"/>
<path d="M860.361 330.47C854.659 321.061 841.544 304.297 834.701 312.508C827.858 320.719 848.957 327.904 860.361 330.47Z" fill="white" stroke="white"/>
<path d="M859.88 330.47C865.583 321.061 878.698 304.297 885.541 312.508C892.384 320.719 871.285 327.904 859.88 330.47Z" fill="white" stroke="white"/>
<rect x="839.697" y="330.16" width="39.8233" height="114.431" stroke="white"/>
<rect x="851.866" y="329.814" width="15.4847" height="114.672" fill="white"/>
<path d="M729 181H830L835.5 164.5H862" stroke="#BFC3D9" stroke-width="1.5"/>
<circle cx="869" cy="165" r="18" fill="url(#paint0_linear_109_684)" stroke="white" stroke-width="2"/>
<path fill-rule="evenodd" clip-rule="evenodd" d="M864.087 157.632L869.489 163.965L866.848 163.798L867.002 171.56L864.362 171.393L864.087 157.632ZM874.291 172.022L868.89 165.689L871.531 165.857L871.376 158.094L874.017 158.261L874.291 172.022Z" fill="#1C203B"/>
<path d="M570 35H650" stroke="#BFC3D9" stroke-width="1.5"/>
<path d="M653.5 30.4408L654.652 33.553L654.731 33.7686L654.947 33.8484L658.059 35L654.947 36.1516L654.731 36.2314L654.652 36.447L653.5 39.5592L652.348 36.447L652.269 36.2314L652.053 36.1516L648.941 35L652.053 33.8484L652.269 33.7686L652.348 33.553L653.5 30.4408Z" fill="#BFC3D9" stroke="#BFC3D9"/>
<path d="M339.5 45V35H324V28.5H279" stroke="#BFC3D9" stroke-width="1.5"/>
<circle cx="273.5" cy="28.5" r="6.5" stroke="#BFC3D9" stroke-width="1.5"/>
<circle cx="339.5" cy="51.5" r="6.5" stroke="#BFC3D9" stroke-width="1.5"/>
<path d="M710 129H620.5" stroke="#BFC3D9" stroke-width="1.5"/>
<circle cx="616" cy="129" r="5" stroke="#BFC3D9" stroke-width="1.5"/>
<circle cx="720" cy="129" r="22" fill="url(#paint1_linear_109_684)" stroke="white" stroke-width="2"/>
<path fill-rule="evenodd" clip-rule="evenodd" d="M712.733 119.14L720.185 127.878L716.541 127.647L716.755 138.357L713.111 138.126L712.733 119.14ZM726.811 138.995L719.359 130.257L723.003 130.488L722.789 119.778L726.433 120.009L726.811 138.995Z" fill="#1C203B"/>
<rect x="67.973" y="295.581" width="145.573" height="47.3692" rx="1.5" stroke="white"/>
<path d="M74.8016 415.271V341.984H206.717V403M129.5 415.271H173.5" stroke="white"/>
<rect x="129.034" y="295.081" width="23.4517" height="120.19" fill="white"/>
<path fill-rule="evenodd" clip-rule="evenodd" d="M140.036 296.382C140.002 296.437 139.969 296.492 139.936 296.547C140.072 296.516 140.209 296.485 140.347 296.453C140.486 296.485 140.623 296.516 140.759 296.547C140.726 296.492 140.693 296.437 140.659 296.382C160.355 291.848 195.49 279.665 183.907 265.766C172.344 251.889 150.326 279.638 140.347 295.872C130.369 279.638 108.351 251.89 96.7875 265.766C85.205 279.665 120.34 291.848 140.036 296.382Z" fill="white"/>
<path d="M139.936 296.547L139.508 296.287L138.899 297.292L140.045 297.034L139.936 296.547ZM140.036 296.382L140.463 296.642L140.823 296.05L140.148 295.895L140.036 296.382ZM140.347 296.453L140.459 295.966L140.347 295.94L140.236 295.966L140.347 296.453ZM140.759 296.547L140.65 297.034L141.796 297.292L141.187 296.287L140.759 296.547ZM140.659 296.382L140.547 295.895L139.872 296.05L140.232 296.642L140.659 296.382ZM183.907 265.766L184.292 265.446L184.292 265.446L183.907 265.766ZM140.347 295.872L139.922 296.133L140.347 296.826L140.773 296.133L140.347 295.872ZM96.7875 265.766L96.4034 265.446L96.4034 265.446L96.7875 265.766ZM140.363 296.806C140.396 296.751 140.429 296.696 140.463 296.642L139.608 296.122C139.575 296.177 139.541 296.232 139.508 296.287L140.363 296.806ZM140.236 295.966C140.099 295.997 139.962 296.028 139.826 296.059L140.045 297.034C140.182 297.004 140.32 296.972 140.459 296.941L140.236 295.966ZM140.236 296.941C140.375 296.972 140.513 297.004 140.65 297.034L140.869 296.059C140.733 296.028 140.596 295.997 140.459 295.966L140.236 296.941ZM141.187 296.287C141.154 296.232 141.12 296.177 141.087 296.122L140.232 296.642C140.266 296.696 140.299 296.751 140.332 296.806L141.187 296.287ZM183.523 266.086C184.919 267.761 185.583 269.374 185.684 270.919C185.785 272.464 185.326 273.995 184.382 275.512C182.479 278.566 178.654 281.482 173.773 284.147C164.034 289.465 150.377 293.632 140.547 295.895L140.772 296.869C150.638 294.598 164.396 290.407 174.252 285.025C179.17 282.34 183.187 279.321 185.23 276.04C186.259 274.389 186.799 272.653 186.681 270.854C186.564 269.054 185.792 267.246 184.292 265.446L183.523 266.086ZM140.773 296.133C145.751 288.036 153.72 277.087 161.864 269.903C165.941 266.305 170.014 263.695 173.74 262.82C175.595 262.384 177.35 262.381 178.976 262.887C180.601 263.393 182.131 264.416 183.523 266.086L184.292 265.446C182.793 263.648 181.106 262.502 179.273 261.932C177.443 261.363 175.503 261.378 173.511 261.846C169.545 262.778 165.322 265.518 161.202 269.153C152.952 276.431 144.922 287.474 139.922 295.61L140.773 296.133ZM140.773 295.61C135.773 287.474 127.743 276.431 119.493 269.153C115.373 265.518 111.15 262.778 107.183 261.846C105.192 261.378 103.252 261.363 101.422 261.932C99.5895 262.502 97.9022 263.648 96.4034 265.446L97.1716 266.086C98.5639 264.416 100.094 263.393 101.719 262.887C103.345 262.381 105.1 262.384 106.955 262.82C110.681 263.695 114.754 266.305 118.831 269.903C126.975 277.087 134.944 288.036 139.922 296.133L140.773 295.61ZM96.4034 265.446C94.9034 267.246 94.1313 269.054 94.0136 270.854C93.896 272.653 94.4361 274.389 95.4645 276.04C97.508 279.321 101.525 282.34 106.443 285.025C116.299 290.407 130.057 294.598 139.923 296.869L140.148 295.895C130.318 293.632 116.661 289.465 106.922 284.147C102.041 281.482 98.2155 278.566 96.3133 275.512C95.3689 273.995 94.9105 272.464 95.0115 270.919C95.1125 269.374 95.776 267.761 97.1716 266.086L96.4034 265.446Z" fill="white"/>
<rect x="173.478" y="402.868" width="50.0221" height="15.8373" rx="1.5" stroke="white"/>
<rect x="176.029" y="419.195" width="44.9199" height="24.511" stroke="white"/>
<rect x="194.407" y="402.368" width="8.16353" height="41.8381" fill="white"/>
<path fill-rule="evenodd" clip-rule="evenodd" d="M198.237 402.821C198.225 402.84 198.214 402.859 198.202 402.878C198.25 402.867 198.297 402.856 198.345 402.846C198.393 402.856 198.441 402.867 198.489 402.878C198.477 402.859 198.466 402.84 198.454 402.821C205.31 401.242 217.541 397.002 213.509 392.163C209.483 387.333 201.819 396.992 198.345 402.643C194.872 396.992 187.208 387.333 183.182 392.163C179.15 397.002 191.381 401.243 198.237 402.821Z" fill="white"/>
<path d="M198.202 402.878L197.775 402.619L197.165 403.624L198.312 403.366L198.202 402.878ZM198.237 402.821L198.664 403.08L199.024 402.489L198.349 402.333L198.237 402.821ZM198.345 402.846L198.456 402.358L198.345 402.333L198.234 402.358L198.345 402.846ZM198.489 402.878L198.379 403.366L199.526 403.624L198.917 402.619L198.489 402.878ZM198.454 402.821L198.342 402.333L197.667 402.489L198.027 403.08L198.454 402.821ZM213.509 392.163L213.125 392.483L213.125 392.483L213.509 392.163ZM198.345 402.643L197.92 402.905L198.345 403.598L198.771 402.905L198.345 402.643ZM183.182 392.163L183.566 392.483L183.566 392.483L183.182 392.163ZM198.63 403.137C198.641 403.118 198.653 403.099 198.664 403.08L197.81 402.561C197.798 402.58 197.786 402.6 197.775 402.619L198.63 403.137ZM198.234 402.358C198.187 402.369 198.139 402.38 198.092 402.39L198.312 403.366C198.36 403.355 198.408 403.344 198.456 403.333L198.234 402.358ZM198.234 403.333C198.283 403.344 198.331 403.355 198.379 403.366L198.599 402.39C198.552 402.38 198.504 402.369 198.456 402.358L198.234 403.333ZM198.917 402.619C198.905 402.6 198.893 402.58 198.881 402.561L198.027 403.08C198.038 403.099 198.05 403.118 198.061 403.137L198.917 402.619ZM213.125 392.483C213.576 393.026 213.772 393.524 213.802 393.978C213.831 394.433 213.699 394.9 213.397 395.383C212.781 396.373 211.512 397.355 209.825 398.276C206.473 400.106 201.752 401.548 198.342 402.333L198.566 403.308C202.012 402.515 206.835 401.048 210.304 399.153C212.028 398.212 213.489 397.128 214.246 395.912C214.631 395.293 214.846 394.622 214.8 393.913C214.753 393.203 214.449 392.511 213.893 391.843L213.125 392.483ZM198.771 402.905C200.496 400.098 203.251 396.318 206.051 393.848C207.456 392.608 208.825 391.741 210.044 391.455C210.645 391.314 211.195 391.317 211.695 391.472C212.193 391.627 212.675 391.944 213.125 392.483L213.893 391.843C213.336 391.175 212.698 390.737 211.992 390.518C211.289 390.299 210.553 390.308 209.815 390.482C208.356 390.824 206.837 391.82 205.389 393.098C202.483 395.662 199.668 399.537 197.92 402.381L198.771 402.905ZM198.771 402.381C197.023 399.537 194.208 395.662 191.302 393.098C189.854 391.82 188.335 390.824 186.876 390.482C186.138 390.308 185.402 390.299 184.699 390.518C183.993 390.737 183.355 391.176 182.798 391.843L183.566 392.483C184.016 391.944 184.498 391.627 184.996 391.472C185.496 391.317 186.046 391.314 186.647 391.455C187.866 391.741 189.235 392.608 190.64 393.848C193.44 396.318 196.194 400.098 197.92 402.905L198.771 402.381ZM182.798 391.843C182.242 392.511 181.938 393.204 181.891 393.913C181.845 394.622 182.06 395.293 182.445 395.912C183.202 397.128 184.663 398.212 186.387 399.153C189.856 401.048 194.679 402.515 198.125 403.308L198.349 402.333C194.939 401.548 190.218 400.106 186.866 398.276C185.179 397.355 183.91 396.373 183.294 395.383C182.993 394.9 182.86 394.433 182.889 393.978C182.919 393.524 183.115 393.026 183.566 392.483L182.798 391.843Z" fill="white"/>
<rect x="31.5" y="350.746" width="101.18" height="32.7195" rx="1.5" stroke="white"/>
<rect x="36.609" y="383.444" width="90.9624" height="50.0902" stroke="white"/>
<rect x="73.9158" y="350.246" width="16.3489" height="83.7879" fill="white"/>
<path fill-rule="evenodd" clip-rule="evenodd" d="M82.0204 351.153C82.0437 351.191 82.067 351.23 82.0901 351.268C81.995 351.246 81.8993 351.225 81.8031 351.203C81.7067 351.225 81.6109 351.246 81.5157 351.268C81.5388 351.23 81.5621 351.191 81.5854 351.153C67.8549 347.992 43.3614 339.499 51.436 329.81C59.4975 320.136 74.8468 339.481 81.8029 350.797C88.759 339.481 104.108 320.136 112.17 329.81C120.244 339.499 95.7509 347.992 82.0204 351.153Z" fill="white"/>
<path d="M82.0901 351.268L81.9803 351.756L83.1268 352.013L82.5177 351.009L82.0901 351.268ZM82.0204 351.153L81.9082 350.666L81.2333 350.821L81.5932 351.413L82.0204 351.153ZM81.8031 351.203L81.9142 350.715L81.8031 350.69L81.6919 350.715L81.8031 351.203ZM81.5157 351.268L81.0881 351.009L80.479 352.014L81.6254 351.756L81.5157 351.268ZM81.5854 351.153L82.0126 351.413L82.3725 350.821L81.6976 350.666L81.5854 351.153ZM51.436 329.81L51.0519 329.49L51.0519 329.49L51.436 329.81ZM81.8029 350.797L81.3769 351.059L81.8029 351.752L82.2289 351.059L81.8029 350.797ZM112.17 329.81L111.786 330.13L111.786 330.13L112.17 329.81ZM82.5177 351.009C82.4944 350.97 82.4711 350.932 82.4476 350.893L81.5932 351.413C81.6164 351.451 81.6395 351.489 81.6625 351.527L82.5177 351.009ZM81.6919 351.69C81.7886 351.712 81.8848 351.734 81.9803 351.756L82.1999 350.78C82.1052 350.759 82.01 350.737 81.9142 350.715L81.6919 351.69ZM81.6919 350.715C81.596 350.737 81.5007 350.759 81.4059 350.78L81.6254 351.756C81.7211 351.734 81.8174 351.712 81.9142 351.69L81.6919 350.715ZM81.9433 351.527C81.9663 351.489 81.9894 351.451 82.0126 351.413L81.1583 350.893C81.1348 350.932 81.1114 350.97 81.0881 351.009L81.9433 351.527ZM51.0519 329.49C49.9904 330.764 49.4356 332.053 49.3511 333.347C49.2666 334.639 49.6555 335.881 50.3851 337.052C51.8311 339.374 54.6605 341.494 58.0942 343.369C64.983 347.13 74.59 350.056 81.4733 351.64L81.6976 350.666C74.8503 349.089 65.3454 346.188 58.5734 342.491C55.1767 340.636 52.5386 338.618 51.2339 336.524C50.5883 335.487 50.2811 334.451 50.349 333.412C50.4168 332.374 50.863 331.278 51.8201 330.13L51.0519 329.49ZM82.2289 350.535C78.7392 344.858 73.1325 337.146 67.3648 332.057C64.4863 329.518 61.5194 327.588 58.7179 326.93C57.3088 326.599 55.928 326.586 54.6215 326.993C53.3128 327.4 52.1128 328.217 51.0519 329.49L51.8201 330.13C52.7745 328.985 53.8176 328.29 54.9186 327.947C56.0217 327.604 57.217 327.604 58.4892 327.903C61.0504 328.505 63.8672 330.305 66.7032 332.807C72.3645 337.802 77.9106 345.42 81.3769 351.059L82.2289 350.535ZM82.2289 351.059C85.6952 345.42 91.2413 337.802 96.9026 332.807C99.7386 330.305 102.555 328.505 105.117 327.903C106.389 327.604 107.584 327.604 108.687 327.948C109.788 328.29 110.831 328.985 111.786 330.13L112.554 329.49C111.493 328.217 110.293 327.4 108.984 326.993C107.678 326.586 106.297 326.599 104.888 326.93C102.086 327.588 99.1195 329.518 96.241 332.057C90.4733 337.146 84.8667 344.858 81.3769 350.535L82.2289 351.059ZM111.786 330.13C112.743 331.279 113.189 332.374 113.257 333.412C113.325 334.451 113.017 335.487 112.372 336.524C111.067 338.618 108.429 340.636 105.032 342.491C98.2605 346.189 88.7555 349.09 81.9082 350.666L82.1326 351.64C89.0158 350.056 98.6228 347.13 105.512 343.369C108.945 341.494 111.775 339.374 113.221 337.052C113.95 335.881 114.339 334.639 114.255 333.347C114.17 332.054 113.615 330.764 112.554 329.49L111.786 330.13Z" fill="white"/>
<path d="M592 292H670.5V283H728M728 283V258H817.5M728 283V294.5H786" stroke="#BFC3D9" stroke-width="1.5"/>
<circle cx="589" cy="292" r="3.25" stroke="#BFC3D9" stroke-width="1.5"/>
<circle cx="822" cy="258" r="3.25" stroke="#BFC3D9" stroke-width="1.5"/>
<circle cx="789" cy="294" r="3.25" stroke="#BFC3D9" stroke-width="1.5"/>
<circle cx="819" cy="254" r="19" fill="url(#paint2_linear_109_684)" stroke="white" stroke-width="2"/>
<path fill-rule="evenodd" clip-rule="evenodd" d="M814.087 246.679L819.489 253.012L816.848 252.845L817.002 260.607L814.362 260.44L814.087 246.679ZM824.291 261.069L818.89 254.736L821.531 254.904L821.376 247.141L824.017 247.309L824.291 261.069Z" fill="#1C203B"/>
<path d="M66 132H231.41V116H262.214V122.8H285" stroke="#BFC3D9" stroke-width="1.5"/>
<circle cx="291.5" cy="122.5" r="6.75" stroke="#BFC3D9" stroke-width="1.5"/>
<circle cx="82" cy="132" r="20" fill="url(#paint3_linear_109_684)" stroke="white" stroke-width="2"/>
<path d="M82.0225 144C83.9747 144 85.3653 142.431 85.3653 140.235C85.3653 138.039 83.9747 136.471 82.0225 136.471C80.0971 136.471 78.6798 138.039 78.6798 140.235C78.6798 142.431 80.0971 144 82.0225 144ZM84.6967 135.843C84.6967 133.773 85.7129 133.02 87.1035 132.267C88.9487 131.263 90.3125 129.224 90.3125 126.714C90.3125 122.761 86.9965 120 82.5039 120C77.6904 120 74.2942 123.169 74 127.592L80.1506 128.91C80.3111 127.184 81.0866 125.961 82.183 125.961C83.012 125.961 83.627 126.62 83.627 127.529C83.627 128.596 82.7178 129.255 81.9958 129.757C80.0704 131.231 79.3484 132.863 79.3484 135.843H84.6967Z" fill="white"/>
<path d="M304 226H214.5" stroke="#BFC3D9" stroke-width="1.5"/>
<circle cx="210" cy="226" r="4.25" stroke="#BFC3D9" stroke-width="1.5"/>
<circle cx="205" cy="226" r="12" fill="url(#paint4_linear_109_684)" stroke="white" stroke-width="2"/>
<path d="M205.014 233.429C206.222 233.429 207.083 232.458 207.083 231.098C207.083 229.739 206.222 228.768 205.014 228.768C203.822 228.768 202.945 229.739 202.945 231.098C202.945 232.458 203.822 233.429 205.014 233.429ZM206.669 228.379C206.669 227.097 207.298 226.631 208.159 226.165C209.302 225.544 210.146 224.281 210.146 222.728C210.146 220.281 208.093 218.572 205.312 218.572C202.332 218.572 200.23 220.533 200.048 223.271L203.855 224.087C203.954 223.019 204.435 222.262 205.113 222.262C205.626 222.262 206.007 222.669 206.007 223.233C206.007 223.893 205.444 224.301 204.997 224.611C203.805 225.524 203.359 226.534 203.359 228.379H206.669Z" fill="white"/>
<path d="M344.393 409C304.908 374.242 280 323.365 280 266.679C280 161.922 365.066 77 470 77C521.265 77 567.788 97.2689 601.967 130.217C637.748 164.711 660 213.101 660 266.679C660 323.365 635.092 374.242 595.607 409" stroke="#BFC3D9" stroke-width="1.5"/>
<path d="M370.622 224.616H565.109V348.757C565.109 355.385 559.737 360.757 553.109 360.757H382.622C375.995 360.757 370.622 355.385 370.622 348.757V224.616Z" fill="url(#paint5_linear_109_684)"/>
<path fill-rule="evenodd" clip-rule="evenodd" d="M377.743 166.271C375.567 166.271 373.641 167.678 372.979 169.751L365.139 194.327C364.777 195.459 364.84 196.601 365.219 197.605V226.101C365.219 228.862 367.458 231.101 370.219 231.101H566.592C569.353 231.101 571.592 228.862 571.592 226.101V197.606C571.972 196.602 572.034 195.46 571.673 194.327L563.832 169.751C563.171 167.678 561.245 166.271 559.069 166.271H377.743Z" fill="#F9443D"/>
<rect opacity="0.1" x="370.622" y="224.616" width="194.487" height="20.5292" fill="black"/>
<path d="M365.219 195.445H571.592V226.101C571.592 228.862 569.353 231.101 566.592 231.101H370.219C367.458 231.101 365.219 228.862 365.219 226.101V195.445Z" fill="url(#paint6_linear_109_684)"/>
<path d="M372.979 169.751C373.641 167.678 375.567 166.271 377.743 166.271H559.069C561.245 166.271 563.171 167.678 563.832 169.751L571.673 194.327C572.702 197.552 570.295 200.847 566.909 200.847H369.902C366.516 200.847 364.11 197.552 365.139 194.327L372.979 169.751Z" fill="url(#paint7_linear_109_684)"/>
<path d="M617.513 166.811C592.878 156.871 560.427 165.19 547.281 170.593L545.661 181.938C571.592 184.099 600.765 200.126 612.111 207.87C607.789 197.065 596.984 184.279 592.122 179.237L617.513 166.811Z" fill="url(#paint8_linear_109_684)"/>
<path d="M322 166.811C346.635 156.871 379.086 165.19 392.231 170.593L393.852 181.938C367.921 184.099 338.747 200.126 327.402 207.87C331.724 197.065 342.529 184.279 347.391 179.237L322 166.811Z" fill="url(#paint9_linear_109_684)"/>
<path d="M553.224 125.753C536.084 111.287 497.939 142.32 482.992 156.547L478.67 177.616C490.126 186.826 518.807 189.452 544.58 185.179C575.042 180.129 576.621 145.5 553.224 125.753Z" fill="url(#paint10_linear_109_684)"/>
<path d="M386.68 125.753C403.819 111.287 441.964 142.32 456.911 156.547L461.233 177.616C449.777 186.826 421.096 189.452 395.323 185.179C364.861 180.129 363.282 145.5 386.68 125.753Z" fill="url(#paint11_linear_109_684)"/>
<path d="M491.096 184.099C505.86 190.715 547.638 196.373 558.086 173.835C568.533 151.297 511.69 160.327 491.096 184.099Z" fill="#F0B730"/>
<path d="M448.001 184.569C439.894 187.963 393.603 195.42 381.011 174.305C368.419 153.189 427.407 160.797 448.001 184.569Z" fill="#F0B730"/>
<path d="M492.717 175.995C492.717 180.749 478.31 181.578 471.107 181.397C451.805 182.16 443.774 174.708 448.417 169.512C452.998 164.384 451.775 162.319 454.9 156.006C458.428 148.879 461.753 149.81 471.107 150.063C480.304 150.312 482.993 150.063 484.073 154.385C485.153 158.707 488.935 165.19 488.935 165.19C488.935 165.19 492.717 171.241 492.717 175.995Z" fill="url(#paint12_linear_109_684)"/>
<rect x="446.256" y="179.237" width="48.6218" height="184.763" rx="8" fill="url(#paint13_linear_109_684)"/>
<circle cx="470.14" cy="266.747" r="29.4018" fill="url(#paint14_linear_109_684)"/>
<path fill-rule="evenodd" clip-rule="evenodd" d="M460.846 253.861L471.145 266.481L465.986 266.041L465.959 281.235L460.799 280.796L460.846 253.861ZM480.201 282.448L469.901 269.828L475.061 270.268L475.087 255.073L480.247 255.513L480.201 282.448Z" fill="#1C203B"/>
</g>
<defs>
<linearGradient id="paint0_linear_109_684" x1="856.5" y1="173" x2="882.5" y2="162.5" gradientUnits="userSpaceOnUse">
<stop stop-color="#FFF0CD"/>
<stop offset="0.557292" stop-color="#FED87F"/>
<stop offset="1" stop-color="#FFC839"/>
</linearGradient>
<linearGradient id="paint1_linear_109_684" x1="703.088" y1="139.824" x2="738.265" y2="125.618" gradientUnits="userSpaceOnUse">
<stop stop-color="#FFF0CD"/>
<stop offset="0.557292" stop-color="#FED87F"/>
<stop offset="1" stop-color="#FFC839"/>
</linearGradient>
<linearGradient id="paint2_linear_109_684" x1="804.294" y1="263.412" x2="834.882" y2="251.059" gradientUnits="userSpaceOnUse">
<stop stop-color="#FFF0CD"/>
<stop offset="0.557292" stop-color="#FED87F"/>
<stop offset="1" stop-color="#FFC839"/>
</linearGradient>
<linearGradient id="paint3_linear_109_684" x1="61" y1="142.191" x2="94.9706" y2="127.059" gradientUnits="userSpaceOnUse">
<stop stop-color="#DDEBF5"/>
<stop offset="1" stop-color="#7FB2FF"/>
</linearGradient>
<linearGradient id="paint4_linear_109_684" x1="192" y1="232.309" x2="213.029" y2="222.941" gradientUnits="userSpaceOnUse">
<stop stop-color="#DDEBF5"/>
<stop offset="1" stop-color="#7FB2FF"/>
</linearGradient>
<linearGradient id="paint5_linear_109_684" x1="509.719" y1="232.822" x2="514.438" y2="320.171" gradientUnits="userSpaceOnUse">
<stop stop-color="#E0ECFF"/>
<stop offset="1" stop-color="#7FB2FF"/>
</linearGradient>
<linearGradient id="paint6_linear_109_684" x1="422.14" y1="215.132" x2="458.661" y2="270.215" gradientUnits="userSpaceOnUse">
<stop stop-color="#E0ECFF"/>
<stop offset="1" stop-color="#7FB2FF"/>
</linearGradient>
<linearGradient id="paint7_linear_109_684" x1="421.171" y1="185.362" x2="455.844" y2="240.421" gradientUnits="userSpaceOnUse">
<stop stop-color="#E0ECFF"/>
<stop offset="1" stop-color="#7FB2FF"/>
</linearGradient>
<linearGradient id="paint8_linear_109_684" x1="581.587" y1="162.172" x2="581.587" y2="207.87" gradientUnits="userSpaceOnUse">
<stop stop-color="#FFF0CD"/>
<stop offset="0.557292" stop-color="#FED87F"/>
<stop offset="1" stop-color="#FFC839"/>
</linearGradient>
<linearGradient id="paint9_linear_109_684" x1="357.926" y1="162.172" x2="357.926" y2="207.87" gradientUnits="userSpaceOnUse">
<stop stop-color="#FFF0CD"/>
<stop offset="0.557292" stop-color="#FED87F"/>
<stop offset="1" stop-color="#FFC839"/>
</linearGradient>
<linearGradient id="paint10_linear_109_684" x1="523.976" y1="122" x2="523.976" y2="187.173" gradientUnits="userSpaceOnUse">
<stop stop-color="#FFF0CD"/>
<stop offset="0.557292" stop-color="#FED87F"/>
<stop offset="1" stop-color="#FFC839"/>
</linearGradient>
<linearGradient id="paint11_linear_109_684" x1="415.927" y1="122" x2="415.927" y2="187.173" gradientUnits="userSpaceOnUse">
<stop stop-color="#FFF0CD"/>
<stop offset="0.557292" stop-color="#FED87F"/>
<stop offset="1" stop-color="#FFC839"/>
</linearGradient>
<linearGradient id="paint12_linear_109_684" x1="469.925" y1="149.882" x2="469.925" y2="181.452" gradientUnits="userSpaceOnUse">
<stop stop-color="#FFF0CD"/>
<stop offset="0.557292" stop-color="#FED87F"/>
<stop offset="1" stop-color="#FFC839"/>
</linearGradient>
<linearGradient id="paint13_linear_109_684" x1="470.567" y1="179.237" x2="470.567" y2="364" gradientUnits="userSpaceOnUse">
<stop stop-color="#FFF0CD"/>
<stop offset="0.557292" stop-color="#FED87F"/>
<stop offset="1" stop-color="#FFC839"/>
</linearGradient>
<linearGradient id="paint14_linear_109_684" x1="470.14" y1="237.345" x2="470.14" y2="296.149" gradientUnits="userSpaceOnUse">
<stop stop-color="#FFF0CD"/>
<stop offset="0.557292" stop-color="#FED87F"/>
<stop offset="1" stop-color="#FFC839"/>
</linearGradient>
<clipPath id="clip0_109_684">
<rect width="940" height="466" rx="4" fill="white"/>
</clipPath>
</defs>
</svg>
