<svg width="18" height="18" viewBox="0 0 18 18" fill="none" xmlns="http://www.w3.org/2000/svg">
<g clip-path="url(#clip0_9839_2803)">
<path d="M9.19368 6.01826C8.84454 5.95837 8.48547 6.02398 8.18007 6.20347C7.87466 6.38295 7.64264 6.66473 7.52509 6.9989C7.38763 7.38964 6.95945 7.59497 6.5687 7.45752C6.17796 7.32006 5.97263 6.89188 6.11009 6.50113C6.34519 5.8328 6.80924 5.26924 7.42004 4.91027C8.03084 4.55129 8.74898 4.42007 9.44726 4.53985C10.1455 4.65962 10.7789 5.02266 11.2352 5.56466C11.6913 6.10655 11.941 6.79238 11.9401 7.5007C11.9397 8.64847 11.0888 9.40644 10.4811 9.81155C10.1544 10.0294 9.833 10.1895 9.59625 10.2948C9.47681 10.3478 9.37624 10.3881 9.30376 10.4157C9.26746 10.4296 9.23804 10.4403 9.21661 10.4479L9.19056 10.457L9.18227 10.4598L9.17935 10.4608L9.1782 10.4612C9.1782 10.4612 9.17726 10.4615 8.94009 9.75002L9.17726 10.4615C8.7843 10.5925 8.35956 10.3801 8.22857 9.98719C8.09768 9.59449 8.30968 9.17006 8.70213 9.03877L8.7141 9.03457C8.72564 9.03046 8.74455 9.0236 8.76977 9.01399C8.82034 8.99473 8.89555 8.9647 8.98705 8.92403C9.17217 8.84175 9.41329 8.72066 9.64906 8.56348C10.1663 8.21868 10.4401 7.85187 10.4401 7.50002L10.4401 7.4989C10.4406 7.14466 10.3158 6.80167 10.0876 6.53066C9.8595 6.25966 9.54282 6.07814 9.19368 6.01826Z" fill="#FFECA8"/>
<path d="M9 12C8.58579 12 8.25 12.3358 8.25 12.75C8.25 13.1642 8.58579 13.5 9 13.5H9.0075C9.42171 13.5 9.7575 13.1642 9.7575 12.75C9.7575 12.3358 9.42171 12 9.0075 12H9Z" fill="#FFECA8"/>
<path fill-rule="evenodd" clip-rule="evenodd" d="M0.75 9C0.75 4.44365 4.44365 0.75 9 0.75C13.5563 0.75 17.25 4.44365 17.25 9C17.25 13.5563 13.5563 17.25 9 17.25C4.44365 17.25 0.75 13.5563 0.75 9ZM9 2.25C5.27208 2.25 2.25 5.27208 2.25 9C2.25 12.7279 5.27208 15.75 9 15.75C12.7279 15.75 15.75 12.7279 15.75 9C15.75 5.27208 12.7279 2.25 9 2.25Z" fill="#FFECA8"/>
</g>
<defs>
<clipPath id="clip0_9839_2803">
<rect width="18" height="18" fill="white"/>
</clipPath>
</defs>
</svg>
