<svg width="89" height="88" viewBox="0 0 89 88" fill="none" xmlns="http://www.w3.org/2000/svg">
<rect x="46.626" y="46.9966" width="41.0772" height="12.8855" rx="1.5" stroke="white"/>
<rect x="48.7299" y="60.4609" width="36.8695" height="20.0386" stroke="white"/>
<rect x="63.7985" y="46.4966" width="6.73236" height="34.5033" fill="white"/>
<path fill-rule="evenodd" clip-rule="evenodd" d="M67.1359 46.8701C67.1455 46.8859 67.1551 46.9017 67.1647 46.9174C67.1254 46.9086 67.086 46.8996 67.0463 46.8906C67.0066 46.8996 66.9672 46.9086 66.928 46.9174C66.9375 46.9017 66.9471 46.8859 66.9567 46.8701C61.3025 45.5685 51.2165 42.0712 54.5415 38.0812C57.8612 34.0976 64.1818 42.0633 67.0463 46.7235C69.9108 42.0633 76.2315 34.0976 79.5511 38.0812C82.8761 42.0712 72.7901 45.5685 67.1359 46.8701Z" fill="white"/>
<path d="M67.1647 46.9174L67.0549 47.4052L68.2013 47.6631L67.5923 46.6582L67.1647 46.9174ZM67.1359 46.8701L67.0238 46.3828L66.3488 46.5382L66.7087 47.1299L67.1359 46.8701ZM67.0463 46.8906L67.1574 46.4031L67.0463 46.3778L66.9352 46.4031L67.0463 46.8906ZM66.928 46.9174L66.5004 46.6582L65.8913 47.6631L67.0377 47.4052L66.928 46.9174ZM66.9567 46.8701L67.3839 47.1299L67.7438 46.5382L67.0689 46.3828L66.9567 46.8701ZM54.5415 38.0812L54.9256 38.4013L54.9256 38.4013L54.5415 38.0812ZM67.0463 46.7235L66.6203 46.9853L67.0463 47.6783L67.4723 46.9853L67.0463 46.7235ZM79.5511 38.0812L79.167 38.4013L79.167 38.4013L79.5511 38.0812ZM67.5923 46.6582C67.5826 46.6423 67.5729 46.6263 67.5631 46.6102L66.7087 47.1299C66.7182 47.1455 66.7277 47.161 66.7371 47.1766L67.5923 46.6582ZM66.9352 47.3781C66.9753 47.3872 67.0152 47.3963 67.0549 47.4052L67.2744 46.4296C67.2357 46.4209 67.1967 46.412 67.1574 46.4031L66.9352 47.3781ZM66.9352 46.4031C66.8959 46.412 66.857 46.4209 66.8182 46.4296L67.0377 47.4052C67.0774 47.3963 67.1173 47.3872 67.1574 47.3781L66.9352 46.4031ZM67.3556 47.1766C67.365 47.161 67.3744 47.1455 67.3839 47.1299L66.5295 46.6102C66.5198 46.6263 66.51 46.6423 66.5004 46.6582L67.3556 47.1766ZM54.1574 37.7611C53.6896 38.3225 53.4292 38.9109 53.3895 39.5184C53.3498 40.1253 53.5339 40.697 53.8591 41.219C54.4961 42.2418 55.7175 43.1447 57.1423 43.9226C60.0134 45.4903 63.9995 46.7024 66.8445 47.3573L67.0689 46.3828C64.2598 45.7362 60.3757 44.5488 57.6215 43.045C56.2337 42.2872 55.2036 41.4862 54.7079 40.6904C54.4668 40.3031 54.3643 39.9368 54.3873 39.5836C54.4104 39.231 54.5622 38.8374 54.9256 38.4013L54.1574 37.7611ZM67.4723 46.4617C66.0284 44.1126 63.7017 40.9089 61.2954 38.786C60.0975 37.7292 58.8317 36.8965 57.6074 36.6089C56.9869 36.4631 56.3637 36.4543 55.7659 36.6402C55.1659 36.8269 54.6256 37.1992 54.1574 37.7611L54.9256 38.4013C55.2873 37.9673 55.6707 37.7171 56.0629 37.5951C56.4574 37.4724 56.895 37.4687 57.3787 37.5824C58.3627 37.8135 59.4785 38.5166 60.6338 39.5359C62.9338 41.5649 65.1998 44.6742 66.6203 46.9853L67.4723 46.4617ZM67.4723 46.9853C68.8929 44.6742 71.1588 41.5649 73.4588 39.5359C74.6141 38.5166 75.73 37.8135 76.7139 37.5824C77.1976 37.4687 77.6352 37.4724 78.0297 37.5951C78.4219 37.7171 78.8053 37.9673 79.167 38.4013L79.9352 37.7611C79.467 37.1992 78.9267 36.8269 78.3267 36.6402C77.7289 36.4543 77.1057 36.4631 76.4852 36.6089C75.2609 36.8965 73.9951 37.7292 72.7973 38.786C70.3909 40.9089 68.0643 44.1126 66.6203 46.4617L67.4723 46.9853ZM79.167 38.4013C79.5305 38.8374 79.6822 39.231 79.7053 39.5836C79.7284 39.9368 79.6259 40.3031 79.3847 40.6904C78.889 41.4862 77.8589 42.2872 76.4711 43.045C73.7169 44.5488 69.8328 45.7362 67.0238 46.3828L67.2481 47.3573C70.0932 46.7024 74.0792 45.4903 76.9503 43.9226C78.3751 43.1447 79.5965 42.2418 80.2335 41.219C80.5587 40.697 80.7428 40.1253 80.7031 39.5184C80.6634 38.9109 80.4031 38.3225 79.9352 37.7611L79.167 38.4013Z" fill="white"/>
<path fill-rule="evenodd" clip-rule="evenodd" d="M34 10H6C5.44772 10 5 10.4477 5 11V39C5 39.3077 5.13898 39.583 5.35759 39.7664L26.3999 23.4001L35 32.0002V11C35 10.4477 34.5523 10 34 10ZM6 9C4.89543 9 4 9.89543 4 11V39C4 40.1046 4.89543 41 6 41H34C35.1046 41 36 40.1046 36 39V11C36 9.89543 35.1046 9 34 9H6ZM18.3999 18.5999C18.3999 21.2509 16.2509 23.3999 13.5999 23.3999C10.949 23.3999 8.79994 21.2509 8.79994 18.5999C8.79994 15.949 10.949 13.7999 13.5999 13.7999C16.2509 13.7999 18.3999 15.949 18.3999 18.5999Z" fill="white"/>
<path d="M42 21.5C41.7239 21.5 41.5 21.7239 41.5 22C41.5 22.2761 41.7239 22.5 42 22.5V21.5ZM64.5 22H65C65 21.7239 64.7761 21.5 64.5 21.5V22ZM64.1464 31.3536C64.3417 31.5488 64.6583 31.5488 64.8536 31.3536L68.0355 28.1716C68.2308 27.9763 68.2308 27.6597 68.0355 27.4645C67.8403 27.2692 67.5237 27.2692 67.3284 27.4645L64.5 30.2929L61.6716 27.4645C61.4763 27.2692 61.1597 27.2692 60.9645 27.4645C60.7692 27.6597 60.7692 27.9763 60.9645 28.1716L64.1464 31.3536ZM42 22.5H64.5V21.5H42V22.5ZM64 22V31H65V22H64Z" fill="white"/>
<path d="M18.5 48C18.5 47.7239 18.7239 47.5 19 47.5C19.2761 47.5 19.5 47.7239 19.5 48H18.5ZM19 66V66.5C18.7239 66.5 18.5 66.2761 18.5 66H19ZM43.3536 65.6464C43.5488 65.8417 43.5488 66.1583 43.3536 66.3536L40.1716 69.5355C39.9763 69.7308 39.6597 69.7308 39.4645 69.5355C39.2692 69.3403 39.2692 69.0237 39.4645 68.8284L42.2929 66L39.4645 63.1716C39.2692 62.9763 39.2692 62.6597 39.4645 62.4645C39.6597 62.2692 39.9763 62.2692 40.1716 62.4645L43.3536 65.6464ZM19.5 48V66H18.5V48H19.5ZM19 65.5H43V66.5H19V65.5Z" fill="white"/>
</svg>
